RangeenFColr0#1.ttf.ufo
<glyph name="hyphen" format="2">
  <advance width="502"/>
  <unicode hex="002D"/>
  <outline>
    <contour>
      <point x="55" y="420"/>
      <point x="55" y="402"/>
      <point x="68" y="389"/>
      <point x="77" y="389" type="qcurve"/>
      <point x="425" y="389" type="line"/>
      <point x="434" y="389"/>
      <point x="447" y="402"/>
      <point x="447" y="420"/>
      <point x="434" y="433"/>
      <point x="425" y="433" type="qcurve"/>
      <point x="77" y="433" type="line"/>
      <point x="68" y="433"/>
    </contour>
    <contour>
      <point x="452" y="422"/>
      <point x="452" y="400"/>
      <point x="436" y="384"/>
      <point x="425" y="384" type="qcurve"/>
      <point x="77" y="384" type="line"/>
      <point x="66" y="384"/>
      <point x="50" y="400"/>
      <point x="50" y="422"/>
      <point x="66" y="438"/>
      <point x="77" y="438" type="qcurve"/>
      <point x="425" y="438" type="line"/>
      <point x="436" y="438"/>
    </contour>
  </outline>
</glyph>
<glyph name="period" format="2">
  <advance width="154"/>
  <unicode hex="002E"/>
  <outline>
    <contour>
      <point x="86" y="51"/>
      <point x="68" y="51"/>
      <point x="55" y="38"/>
      <point x="55" y="20"/>
      <point x="68" y="7"/>
      <point x="86" y="7"/>
      <point x="99" y="20"/>
      <point x="99" y="38"/>
    </contour>
    <contour>
      <point x="88" y="2"/>
      <point x="66" y="2"/>
      <point x="50" y="18"/>
      <point x="50" y="40"/>
      <point x="66" y="56"/>
      <point x="88" y="56"/>
      <point x="104" y="40"/>
      <point x="104" y="18"/>
    </contour>
  </outline>
</glyph>
<glyph name="two" format="2">
  <advance width="410"/>
  <unicode hex="0032"/>
  <outline>
    <contour>
      <point x="235" y="389" type="qcurve"/>
      <point x="270" y="389"/>
      <point x="310" y="322"/>
      <point x="310" y="280" type="qcurve"/>
      <point x="310" y="236"/>
      <point x="250" y="151"/>
      <point x="179" y="99"/>
      <point x="81" y="34"/>
      <point x="62" y="17" type="qcurve"/>
      <point x="55" y="11"/>
      <point x="55" y="0" type="qcurve"/>
      <point x="55" y="-9"/>
      <point x="68" y="-22"/>
      <point x="77" y="-22" type="qcurve"/>
      <point x="332" y="-22" type="line"/>
      <point x="341" y="-22"/>
      <point x="355" y="-9"/>
      <point x="355" y="9"/>
      <point x="341" y="22"/>
      <point x="332" y="22" type="qcurve"/>
      <point x="149" y="22" type="line"/>
      <point x="146" y="22"/>
      <point x="146" y="25" type="qcurve"/>
      <point x="146" y="32"/>
      <point x="201" y="74"/>
      <point x="268" y="120"/>
      <point x="274" y="126" type="qcurve"/>
      <point x="355" y="207"/>
      <point x="355" y="280" type="qcurve"/>
      <point x="355" y="342"/>
      <point x="290" y="434"/>
      <point x="234" y="434" type="qcurve"/>
      <point x="198" y="434"/>
      <point x="142" y="408"/>
      <point x="84" y="363"/>
      <point x="67" y="354" type="qcurve"/>
      <point x="55" y="349"/>
      <point x="55" y="334" type="qcurve"/>
      <point x="55" y="325"/>
      <point x="68" y="312"/>
      <point x="77" y="312" type="qcurve"/>
      <point x="97" y="312"/>
      <point x="138" y="336"/>
      <point x="168" y="365"/>
      <point x="212" y="389"/>
    </contour>
    <contour>
      <point x="77" y="307" type="qcurve"/>
      <point x="66" y="307"/>
      <point x="50" y="323"/>
      <point x="50" y="334" type="qcurve"/>
      <point x="50" y="366"/>
      <point x="190" y="439"/>
      <point x="234" y="439" type="qcurve"/>
      <point x="292" y="439"/>
      <point x="360" y="345"/>
      <point x="360" y="280" type="qcurve"/>
      <point x="360" y="254"/>
      <point x="347" y="206"/>
      <point x="316" y="162"/>
      <point x="291" y="129"/>
      <point x="242" y="89"/>
      <point x="217" y="69"/>
      <point x="162" y="32"/>
      <point x="156" y="27" type="qcurve"/>
      <point x="332" y="27" type="line"/>
      <point x="343" y="27"/>
      <point x="360" y="11"/>
      <point x="360" y="-11"/>
      <point x="343" y="-27"/>
      <point x="332" y="-27" type="qcurve"/>
      <point x="77" y="-27" type="line"/>
      <point x="66" y="-27"/>
      <point x="50" y="-11"/>
      <point x="50" y="0" type="qcurve"/>
      <point x="50" y="12"/>
      <point x="78" y="44"/>
      <point x="108" y="64"/>
      <point x="148" y="90"/>
      <point x="150" y="91" type="qcurve"/>
      <point x="154" y="94"/>
      <point x="190" y="119"/>
      <point x="205" y="131"/>
      <point x="239" y="158"/>
      <point x="257" y="177"/>
      <point x="283" y="206"/>
      <point x="295" y="232"/>
      <point x="305" y="264"/>
      <point x="305" y="280" type="qcurve"/>
      <point x="305" y="319"/>
      <point x="268" y="384"/>
      <point x="235" y="384" type="qcurve"/>
      <point x="200" y="384"/>
      <point x="107" y="307"/>
    </contour>
  </outline>
</glyph>
<glyph name="three" format="2">
  <advance width="483"/>
  <unicode hex="0033"/>
  <outline>
    <contour>
      <point x="266" y="-168" type="qcurve"/>
      <point x="227" y="-168"/>
      <point x="110" y="-114"/>
      <point x="77" y="-114" type="qcurve"/>
      <point x="68" y="-114"/>
      <point x="55" y="-127"/>
      <point x="55" y="-136" type="qcurve"/>
      <point x="55" y="-162"/>
      <point x="219" y="-213"/>
      <point x="266" y="-213" type="qcurve"/>
      <point x="338" y="-213"/>
      <point x="428" y="-148"/>
      <point x="428" y="-79" type="qcurve"/>
      <point x="428" y="-44"/>
      <point x="403" y="20"/>
      <point x="371" y="63"/>
      <point x="312" y="109"/>
      <point x="271" y="134"/>
      <point x="201" y="174"/>
      <point x="188" y="182" type="qcurve"/>
      <point x="186" y="182"/>
      <point x="186" y="184" type="qcurve"/>
      <point x="187" y="185" type="line"/>
      <point x="383" y="396" type="line"/>
      <point x="389" y="402"/>
      <point x="389" y="420"/>
      <point x="375" y="433"/>
      <point x="366" y="433" type="qcurve"/>
      <point x="78" y="433" type="line"/>
      <point x="69" y="433"/>
      <point x="56" y="420"/>
      <point x="56" y="402"/>
      <point x="69" y="389"/>
      <point x="78" y="389" type="qcurve"/>
      <point x="309" y="389" type="line"/>
      <point x="311" y="389"/>
      <point x="311" y="386" type="qcurve"/>
      <point x="311" y="384" type="line"/>
      <point x="134" y="194" type="line"/>
      <point x="128" y="188"/>
      <point x="128" y="179" type="qcurve"/>
      <point x="128" y="169"/>
      <point x="154" y="145"/>
      <point x="180" y="130"/>
      <point x="200" y="121" type="qcurve"/>
      <point x="219" y="112" type="line"/>
      <point x="250" y="95"/>
      <point x="296" y="65"/>
      <point x="352" y="16"/>
      <point x="383" y="-45"/>
      <point x="383" y="-79" type="qcurve"/>
      <point x="383" y="-128"/>
      <point x="324" y="-168"/>
    </contour>
    <contour>
      <point x="193" y="184" type="line"/>
      <point x="206" y="176"/>
      <point x="277" y="136"/>
      <point x="316" y="111"/>
      <point x="376" y="64"/>
      <point x="408" y="20"/>
      <point x="433" y="-44"/>
      <point x="433" y="-79" type="qcurve"/>
      <point x="433" y="-150"/>
      <point x="339" y="-218"/>
      <point x="266" y="-218" type="qcurve"/>
      <point x="216" y="-218"/>
      <point x="50" y="-166"/>
      <point x="50" y="-136" type="qcurve"/>
      <point x="50" y="-125"/>
      <point x="66" y="-109"/>
      <point x="77" y="-109" type="qcurve"/>
      <point x="111" y="-109"/>
      <point x="228" y="-163"/>
      <point x="266" y="-163" type="qcurve"/>
      <point x="322" y="-163"/>
      <point x="378" y="-126"/>
      <point x="378" y="-79" type="qcurve"/>
      <point x="378" y="-42"/>
      <point x="345" y="22"/>
      <point x="285" y="69"/>
      <point x="228" y="104"/>
      <point x="153" y="143"/>
      <point x="135" y="156" type="qcurve"/>
      <point x="123" y="165"/>
      <point x="123" y="179" type="qcurve"/>
      <point x="123" y="191"/>
      <point x="130" y="198" type="qcurve"/>
      <point x="303" y="384" type="line"/>
      <point x="78" y="384" type="line"/>
      <point x="67" y="384"/>
      <point x="51" y="400"/>
      <point x="51" y="422"/>
      <point x="67" y="438"/>
      <point x="78" y="438" type="qcurve"/>
      <point x="366" y="438" type="line"/>
      <point x="377" y="438"/>
      <point x="394" y="422"/>
      <point x="394" y="411" type="qcurve"/>
      <point x="394" y="399"/>
      <point x="387" y="392" type="qcurve"/>
    </contour>
  </outline>
</glyph>
<glyph name="colon" format="2">
  <advance width="154"/>
  <unicode hex="003A"/>
  <outline>
    <contour>
      <point x="86" y="461"/>
      <point x="68" y="461"/>
      <point x="55" y="448"/>
      <point x="55" y="430"/>
      <point x="68" y="417"/>
      <point x="86" y="417"/>
      <point x="99" y="430"/>
      <point x="99" y="448"/>
    </contour>
    <contour>
      <point x="88" y="412"/>
      <point x="66" y="412"/>
      <point x="50" y="428"/>
      <point x="50" y="450"/>
      <point x="66" y="466"/>
      <point x="88" y="466"/>
      <point x="104" y="450"/>
      <point x="104" y="428"/>
    </contour>
    <contour>
      <point x="86" y="51"/>
      <point x="68" y="51"/>
      <point x="55" y="38"/>
      <point x="55" y="20"/>
      <point x="68" y="7"/>
      <point x="86" y="7"/>
      <point x="99" y="20"/>
      <point x="99" y="38"/>
    </contour>
    <contour>
      <point x="88" y="2"/>
      <point x="66" y="2"/>
      <point x="50" y="18"/>
      <point x="50" y="40"/>
      <point x="66" y="56"/>
      <point x="88" y="56"/>
      <point x="104" y="40"/>
      <point x="104" y="18"/>
    </contour>
  </outline>
</glyph>
<glyph name="greater" format="2">
  <advance width="388"/>
  <unicode hex="003E"/>
  <outline>
    <contour>
      <point x="77" y="657" type="qcurve"/>
      <point x="68" y="657"/>
      <point x="55" y="644"/>
      <point x="55" y="635" type="qcurve"/>
      <point x="55" y="624"/>
      <point x="61" y="619" type="qcurve"/>
      <point x="278" y="412" type="line"/>
      <point x="278" y="410" type="line"/>
      <point x="278" y="410"/>
      <point x="278" y="408" type="qcurve"/>
      <point x="73" y="191" type="line"/>
      <point x="67" y="185"/>
      <point x="67" y="167"/>
      <point x="80" y="154"/>
      <point x="89" y="154" type="qcurve"/>
      <point x="99" y="154"/>
      <point x="105" y="161" type="qcurve"/>
      <point x="327" y="396" type="line"/>
      <point x="333" y="402"/>
      <point x="333" y="411" type="qcurve"/>
      <point x="333" y="422"/>
      <point x="327" y="427" type="qcurve"/>
      <point x="93" y="651" type="line"/>
      <point x="87" y="657"/>
    </contour>
    <contour>
      <point x="89" y="149" type="qcurve"/>
      <point x="78" y="149"/>
      <point x="62" y="165"/>
      <point x="62" y="176" type="qcurve"/>
      <point x="62" y="188"/>
      <point x="69" y="195" type="qcurve"/>
      <point x="272" y="410" type="line"/>
      <point x="58" y="615" type="line"/>
      <point x="50" y="622"/>
      <point x="50" y="635" type="qcurve"/>
      <point x="50" y="646"/>
      <point x="66" y="662"/>
      <point x="77" y="662" type="qcurve"/>
      <point x="89" y="662"/>
      <point x="96" y="655" type="qcurve"/>
      <point x="330" y="431" type="line"/>
      <point x="338" y="424"/>
      <point x="338" y="411" type="qcurve"/>
      <point x="338" y="399"/>
      <point x="331" y="392" type="qcurve"/>
      <point x="109" y="157" type="line"/>
      <point x="102" y="149"/>
    </contour>
  </outline>
</glyph>
<glyph name="G" format="2">
  <advance width="569"/>
  <unicode hex="0047"/>
  <outline>
    <contour>
      <point x="368" y="134" type="qcurve"/>
      <point x="368" y="156"/>
      <point x="326" y="218"/>
      <point x="326" y="232" type="qcurve"/>
      <point x="326" y="236"/>
      <point x="324" y="248"/>
      <point x="324" y="252" type="qcurve"/>
      <point x="324" y="259"/>
      <point x="345" y="268"/>
      <point x="367" y="268"/>
      <point x="411" y="270"/>
      <point x="421" y="270" type="qcurve"/>
      <point x="439" y="270"/>
      <point x="441" y="266" type="qcurve"/>
      <point x="443" y="262"/>
      <point x="443" y="254" type="qcurve"/>
      <point x="443" y="229"/>
      <point x="399" y="128"/>
      <point x="399" y="98" type="qcurve"/>
      <point x="399" y="78"/>
      <point x="429" y="40"/>
      <point x="444" y="38" type="qcurve"/>
      <point x="490" y="34" type="line"/>
      <point x="492" y="34" type="line"/>
      <point x="501" y="34"/>
      <point x="514" y="47"/>
      <point x="514" y="65"/>
      <point x="502" y="77"/>
      <point x="493" y="78" type="qcurve"/>
      <point x="458" y="81" type="line"/>
      <point x="455" y="81"/>
      <point x="448" y="90"/>
      <point x="446" y="94" type="qcurve"/>
      <point x="444" y="98" type="line"/>
      <point x="444" y="123"/>
      <point x="488" y="224"/>
      <point x="488" y="254" type="qcurve"/>
      <point x="488" y="315"/>
      <point x="420" y="315" type="qcurve"/>
      <point x="410" y="315"/>
      <point x="366" y="312"/>
      <point x="356" y="312" type="qcurve"/>
      <point x="327" y="312"/>
      <point x="279" y="280"/>
      <point x="279" y="252" type="qcurve"/>
      <point x="279" y="248"/>
      <point x="281" y="236"/>
      <point x="281" y="232" type="qcurve"/>
      <point x="281" y="210"/>
      <point x="323" y="149"/>
      <point x="323" y="134" type="qcurve"/>
      <point x="323" y="87"/>
      <point x="264" y="25"/>
      <point x="220" y="25" type="qcurve"/>
      <point x="194" y="25"/>
      <point x="153" y="82"/>
      <point x="128" y="179"/>
      <point x="111" y="286"/>
      <point x="103" y="407"/>
      <point x="100" y="488"/>
      <point x="100" y="522" type="qcurve"/>
      <point x="100" y="618"/>
      <point x="194" y="752"/>
      <point x="282" y="752" type="qcurve"/>
      <point x="316" y="752"/>
      <point x="373" y="732"/>
      <point x="403" y="712"/>
      <point x="429" y="690" type="qcurve"/>
      <point x="434" y="686"/>
      <point x="444" y="686" type="qcurve"/>
      <point x="453" y="686"/>
      <point x="466" y="699"/>
      <point x="466" y="708" type="qcurve"/>
      <point x="466" y="745"/>
      <point x="337" y="796"/>
      <point x="283" y="796" type="qcurve"/>
      <point x="211" y="796"/>
      <point x="105" y="717"/>
      <point x="55" y="595"/>
      <point x="55" y="523" type="qcurve"/>
      <point x="55" y="467"/>
      <point x="58" y="377"/>
      <point x="67" y="252"/>
      <point x="88" y="155"/>
      <point x="120" y="60"/>
      <point x="173" y="-5"/>
      <point x="207" y="-19" type="qcurve"/>
      <point x="210" y="-20"/>
      <point x="216" y="-20" type="qcurve"/>
      <point x="279" y="-20"/>
      <point x="363" y="70"/>
      <point x="369" y="132" type="qcurve"/>
      <point x="368" y="133"/>
    </contour>
    <contour>
      <point x="438" y="254" type="qcurve"/>
      <point x="438" y="262"/>
      <point x="433" y="265"/>
      <point x="425" y="265" type="qcurve"/>
      <point x="423" y="265"/>
      <point x="421" y="265" type="qcurve"/>
      <point x="411" y="265"/>
      <point x="367" y="263"/>
      <point x="356" y="263" type="qcurve"/>
      <point x="348" y="263"/>
      <point x="329" y="256"/>
      <point x="329" y="253" type="qcurve"/>
      <point x="329" y="252" type="line"/>
      <point x="329" y="249"/>
      <point x="331" y="236"/>
      <point x="331" y="232" type="qcurve"/>
      <point x="331" y="220"/>
      <point x="374" y="157"/>
      <point x="374" y="135" type="qcurve"/>
      <point x="374" y="134" type="line"/>
      <point x="374" y="75"/>
      <point x="279" y="-25"/>
      <point x="216" y="-25" type="qcurve"/>
      <point x="179" y="-25"/>
      <point x="121" y="33"/>
      <point x="86" y="137"/>
      <point x="63" y="248"/>
      <point x="53" y="385"/>
      <point x="50" y="475"/>
      <point x="50" y="523" type="qcurve"/>
      <point x="50" y="637"/>
      <point x="173" y="801"/>
      <point x="283" y="801" type="qcurve"/>
      <point x="341" y="801"/>
      <point x="471" y="748"/>
      <point x="471" y="708" type="qcurve"/>
      <point x="471" y="697"/>
      <point x="455" y="681"/>
      <point x="444" y="681" type="qcurve"/>
      <point x="423" y="681"/>
      <point x="373" y="714"/>
      <point x="314" y="747"/>
      <point x="282" y="747" type="qcurve"/>
      <point x="196" y="747"/>
      <point x="105" y="616"/>
      <point x="105" y="522" type="qcurve"/>
      <point x="105" y="88"/>
      <point x="221" y="30" type="qcurve"/>
      <point x="265" y="34"/>
      <point x="318" y="88"/>
      <point x="318" y="134" type="qcurve"/>
      <point x="318" y="148"/>
      <point x="276" y="210"/>
      <point x="276" y="232" type="qcurve"/>
      <point x="276" y="236"/>
      <point x="274" y="248"/>
      <point x="274" y="252" type="qcurve"/>
      <point x="274" y="283"/>
      <point x="325" y="317"/>
      <point x="356" y="317" type="qcurve"/>
      <point x="366" y="317"/>
      <point x="410" y="320"/>
      <point x="420" y="320" type="qcurve"/>
      <point x="454" y="320"/>
      <point x="493" y="286"/>
      <point x="493" y="254" type="qcurve"/>
      <point x="493" y="224"/>
      <point x="449" y="122"/>
      <point x="449" y="98" type="qcurve"/>
      <point x="456" y="89"/>
      <point x="459" y="86" type="qcurve"/>
      <point x="494" y="83" type="line"/>
      <point x="504" y="82"/>
      <point x="519" y="67"/>
      <point x="519" y="45"/>
      <point x="503" y="29"/>
      <point x="492" y="29" type="qcurve"/>
      <point x="489" y="29" type="line"/>
      <point x="443" y="33" type="line"/>
      <point x="426" y="35"/>
      <point x="394" y="76"/>
      <point x="394" y="98" type="qcurve"/>
      <point x="394" y="128"/>
      <point x="438" y="230"/>
    </contour>
  </outline>
</glyph>
<glyph name="backslash" format="2">
  <advance width="386"/>
  <unicode hex="005C"/>
  <outline>
    <contour>
      <point x="309" y="85" type="qcurve"/>
      <point x="318" y="85"/>
      <point x="331" y="98"/>
      <point x="331" y="107" type="qcurve"/>
      <point x="331" y="113"/>
      <point x="330" y="116" type="qcurve"/>
      <point x="98" y="674" type="line"/>
      <point x="93" y="687"/>
      <point x="77" y="687" type="qcurve"/>
      <point x="68" y="687"/>
      <point x="55" y="674"/>
      <point x="55" y="665" type="qcurve"/>
      <point x="55" y="659"/>
      <point x="56" y="656" type="qcurve"/>
      <point x="288" y="98" type="line"/>
      <point x="293" y="85"/>
    </contour>
    <contour>
      <point x="50" y="665" type="qcurve"/>
      <point x="50" y="676"/>
      <point x="66" y="692"/>
      <point x="77" y="692" type="qcurve"/>
      <point x="95" y="692"/>
      <point x="102" y="676" type="qcurve"/>
      <point x="334" y="118" type="line"/>
      <point x="336" y="112"/>
      <point x="336" y="107" type="qcurve"/>
      <point x="336" y="96"/>
      <point x="320" y="80"/>
      <point x="309" y="80" type="qcurve"/>
      <point x="291" y="80"/>
      <point x="284" y="96" type="qcurve"/>
      <point x="52" y="654" type="line"/>
      <point x="50" y="660"/>
    </contour>
  </outline>
</glyph>
<glyph name="asciicircum" format="2">
  <advance width="676"/>
  <unicode hex="005E"/>
  <outline>
    <contour>
      <point x="502" y="697" type="qcurve"/>
      <point x="511" y="697"/>
      <point x="525" y="710"/>
      <point x="525" y="719" type="qcurve"/>
      <point x="525" y="731"/>
      <point x="515" y="738" type="qcurve"/>
      <point x="350" y="843" type="line"/>
      <point x="344" y="846"/>
      <point x="338" y="846" type="qcurve"/>
      <point x="331" y="846"/>
      <point x="325" y="843" type="qcurve"/>
      <point x="161" y="738" type="line"/>
      <point x="151" y="731"/>
      <point x="151" y="719" type="qcurve"/>
      <point x="151" y="710"/>
      <point x="165" y="697"/>
      <point x="174" y="697" type="qcurve"/>
      <point x="180" y="697"/>
      <point x="186" y="700" type="qcurve"/>
      <point x="336" y="796" type="line"/>
      <point x="338" y="797" type="line"/>
      <point x="339" y="796" type="line"/>
      <point x="490" y="700" type="line"/>
      <point x="496" y="697"/>
    </contour>
    <contour>
      <point x="174" y="692" type="qcurve"/>
      <point x="163" y="692"/>
      <point x="146" y="708"/>
      <point x="146" y="719" type="qcurve"/>
      <point x="146" y="733"/>
      <point x="159" y="742" type="qcurve"/>
      <point x="323" y="847" type="line"/>
      <point x="330" y="851"/>
      <point x="338" y="851" type="qcurve"/>
      <point x="347" y="851"/>
      <point x="352" y="847" type="qcurve"/>
      <point x="517" y="742" type="line"/>
      <point x="530" y="733"/>
      <point x="530" y="719" type="qcurve"/>
      <point x="530" y="708"/>
      <point x="513" y="692"/>
      <point x="502" y="692" type="qcurve"/>
      <point x="493" y="692"/>
      <point x="488" y="696" type="qcurve"/>
      <point x="338" y="791" type="line"/>
      <point x="188" y="696" type="line"/>
      <point x="181" y="692"/>
    </contour>
  </outline>
</glyph>
<glyph name="m" format="2">
  <advance width="694"/>
  <unicode hex="006D"/>
  <outline>
    <contour>
      <point x="225" y="-28" type="qcurve"/>
      <point x="246" y="-28"/>
      <point x="273" y="0"/>
      <point x="283" y="55"/>
      <point x="286" y="94"/>
      <point x="286" y="125" type="qcurve"/>
      <point x="286" y="170" type="line"/>
      <point x="286" y="194" type="line"/>
      <point x="286" y="206"/>
      <point x="282" y="252"/>
      <point x="282" y="263" type="qcurve"/>
      <point x="282" y="278"/>
      <point x="355" y="383"/>
      <point x="368" y="383" type="qcurve"/>
      <point x="382" y="383"/>
      <point x="400" y="328"/>
      <point x="400" y="308" type="qcurve"/>
      <point x="400" y="307" type="line"/>
      <point x="384" y="239" type="line"/>
      <point x="383" y="239" type="line"/>
      <point x="371" y="181" type="line"/>
      <point x="371" y="176" type="line"/>
      <point x="369" y="46" type="line"/>
      <point x="369" y="27"/>
      <point x="404" y="-30"/>
      <point x="423" y="-30" type="qcurve"/>
      <point x="436" y="-30"/>
      <point x="453" y="-12"/>
      <point x="459" y="26"/>
      <point x="460" y="50"/>
      <point x="460" y="73" type="qcurve"/>
      <point x="460" y="81"/>
      <point x="460" y="84" type="qcurve"/>
      <point x="460" y="110"/>
      <point x="452" y="192"/>
      <point x="452" y="213" type="qcurve"/>
      <point x="452" y="254" type="line"/>
      <point x="452" y="262"/>
      <point x="446" y="296"/>
      <point x="446" y="305" type="qcurve"/>
      <point x="446" y="306" type="line"/>
      <point x="457" y="338" type="line"/>
      <point x="462" y="354"/>
      <point x="495" y="387"/>
      <point x="510" y="387" type="qcurve"/>
      <point x="514" y="387"/>
      <point x="531" y="350"/>
      <point x="532" y="343" type="qcurve"/>
      <point x="537" y="275" type="line"/>
      <point x="538" y="258"/>
      <point x="534" y="171"/>
      <point x="534" y="99"/>
      <point x="543" y="22"/>
      <point x="574" y="-22"/>
      <point x="601" y="-22" type="qcurve"/>
      <point x="641" y="-22"/>
      <point x="652" y="0" type="qcurve"/>
      <point x="674" y="46" type="line"/>
      <point x="674" y="47" type="line"/>
      <point x="675" y="48"/>
      <point x="675" y="49" type="qcurve"/>
      <point x="689" y="89" type="line"/>
      <point x="690" y="91"/>
      <point x="690" y="96" type="qcurve"/>
      <point x="690" y="105"/>
      <point x="676" y="118"/>
      <point x="667" y="118" type="qcurve"/>
      <point x="652" y="118"/>
      <point x="646" y="103" type="qcurve"/>
      <point x="633" y="65" type="line"/>
      <point x="633" y="64" type="line"/>
      <point x="614" y="26" type="line"/>
      <point x="612" y="22"/>
      <point x="601" y="22" type="qcurve"/>
      <point x="595" y="22"/>
      <point x="591" y="46"/>
      <point x="592" y="85"/>
      <point x="592" y="87" type="qcurve"/>
      <point x="582" y="277" type="line"/>
      <point x="582" y="278" type="line"/>
      <point x="576" y="352" type="line"/>
      <point x="574" y="376"/>
      <point x="536" y="432"/>
      <point x="513" y="432" type="qcurve"/>
      <point x="493" y="432"/>
      <point x="462" y="406"/>
      <point x="440" y="379"/>
      <point x="432" y="379" type="qcurve"/>
      <point x="427" y="379"/>
      <point x="388" y="428"/>
      <point x="371" y="428" type="qcurve"/>
      <point x="351" y="428"/>
      <point x="319" y="398"/>
      <point x="302" y="363"/>
      <point x="280" y="333"/>
      <point x="269" y="333" type="qcurve"/>
      <point x="264" y="333"/>
      <point x="247" y="380"/>
      <point x="220" y="428"/>
      <point x="201" y="428" type="qcurve"/>
      <point x="198" y="428"/>
      <point x="190" y="426"/>
      <point x="189" y="426" type="qcurve"/>
      <point x="181" y="426" type="line"/>
      <point x="163" y="426"/>
      <point x="139" y="405"/>
      <point x="114" y="355"/>
      <point x="113" y="354" type="qcurve"/>
      <point x="5" y="190"/>
      <point x="5" y="90" type="qcurve"/>
      <point x="5" y="86" type="line"/>
      <point x="5" y="77"/>
      <point x="18" y="64"/>
      <point x="36" y="64"/>
      <point x="50" y="77"/>
      <point x="50" y="86" type="qcurve"/>
      <point x="50" y="88" type="line"/>
      <point x="50" y="180"/>
      <point x="150" y="330" type="qcurve"/>
      <point x="151" y="332"/>
      <point x="166" y="361"/>
      <point x="180" y="382"/>
      <point x="184" y="382" type="qcurve"/>
      <point x="191" y="382" type="line"/>
      <point x="195" y="382" type="line"/>
      <point x="207" y="382"/>
      <point x="236" y="289"/>
      <point x="236" y="269" type="qcurve"/>
      <point x="236" y="237"/>
      <point x="193" y="109"/>
      <point x="193" y="72" type="qcurve"/>
      <point x="193" y="-28"/>
    </contour>
    <contour>
      <point x="368" y="377" type="qcurve"/>
      <point x="337" y="359"/>
      <point x="287" y="263" type="qcurve"/>
      <point x="291" y="232"/>
      <point x="291" y="194" type="qcurve"/>
      <point x="291" y="170" type="line"/>
      <point x="291" y="125" type="line"/>
      <point x="291" y="100"/>
      <point x="290" y="67"/>
      <point x="283" y="19"/>
      <point x="269" y="-11"/>
      <point x="243" y="-33"/>
      <point x="225" y="-33" type="qcurve"/>
      <point x="188" y="-33"/>
      <point x="188" y="72" type="qcurve"/>
      <point x="188" y="150"/>
      <point x="231" y="270" type="qcurve"/>
      <point x="217" y="345"/>
      <point x="194" y="377" type="qcurve"/>
      <point x="191" y="377" type="line"/>
      <point x="185" y="377" type="line"/>
      <point x="139" y="334"/>
      <point x="69" y="168"/>
      <point x="55" y="88" type="qcurve"/>
      <point x="55" y="86" type="line"/>
      <point x="55" y="75"/>
      <point x="38" y="59"/>
      <point x="16" y="59"/>
      <point x="0" y="75"/>
      <point x="0" y="86" type="qcurve"/>
      <point x="0" y="90" type="line"/>
      <point x="0" y="127"/>
      <point x="27" y="212"/>
      <point x="56" y="267"/>
      <point x="109" y="357"/>
      <point x="118" y="373" type="qcurve"/>
      <point x="122" y="380" type="line"/>
      <point x="125" y="387"/>
      <point x="127" y="391"/>
      <point x="135" y="404"/>
      <point x="139" y="408"/>
      <point x="148" y="419"/>
      <point x="155" y="423"/>
      <point x="164" y="429"/>
      <point x="175" y="431"/>
      <point x="181" y="431" type="qcurve"/>
      <point x="189" y="431" type="line"/>
      <point x="193" y="433"/>
      <point x="201" y="433" type="qcurve"/>
      <point x="226" y="433"/>
      <point x="264" y="371"/>
      <point x="270" y="341" type="qcurve"/>
      <point x="272" y="344"/>
      <point x="302" y="390"/>
      <point x="318" y="410"/>
      <point x="353" y="433"/>
      <point x="371" y="433" type="qcurve"/>
      <point x="407" y="433"/>
      <point x="432" y="386" type="qcurve"/>
      <point x="446" y="405"/>
      <point x="459" y="419"/>
      <point x="492" y="437"/>
      <point x="513" y="437" type="qcurve"/>
      <point x="538" y="437"/>
      <point x="579" y="378"/>
      <point x="581" y="352" type="qcurve"/>
      <point x="587" y="278" type="line"/>
      <point x="587" y="277" type="line"/>
      <point x="597" y="87" type="line"/>
      <point x="597" y="27"/>
      <point x="601" y="27" type="qcurve"/>
      <point x="606" y="27"/>
      <point x="610" y="29" type="qcurve"/>
      <point x="628" y="67" type="line"/>
      <point x="642" y="105" type="line"/>
      <point x="649" y="123"/>
      <point x="667" y="123" type="qcurve"/>
      <point x="678" y="123"/>
      <point x="695" y="107"/>
      <point x="695" y="96" type="qcurve"/>
      <point x="695" y="93"/>
      <point x="693" y="87" type="qcurve"/>
      <point x="679" y="47" type="line"/>
      <point x="679" y="46"/>
      <point x="678" y="44" type="qcurve"/>
      <point x="656" y="-2" type="line"/>
      <point x="644" y="-27"/>
      <point x="601" y="-27" type="qcurve"/>
      <point x="576" y="-27"/>
      <point x="544" y="19"/>
      <point x="535" y="90"/>
      <point x="530" y="173"/>
      <point x="534" y="247"/>
      <point x="532" y="274" type="qcurve"/>
      <point x="527" y="342" type="line"/>
      <point x="526" y="344"/>
      <point x="513" y="375"/>
      <point x="509" y="382" type="qcurve"/>
      <point x="498" y="381"/>
      <point x="482" y="366"/>
      <point x="466" y="341"/>
      <point x="461" y="336" type="qcurve"/>
      <point x="451" y="305" type="line"/>
      <point x="457" y="283"/>
      <point x="457" y="254" type="qcurve"/>
      <point x="457" y="213" type="line"/>
      <point x="457" y="192"/>
      <point x="465" y="110"/>
      <point x="465" y="84" type="qcurve"/>
      <point x="465" y="8"/>
      <point x="455" y="-13" type="qcurve"/>
      <point x="445" y="-35"/>
      <point x="423" y="-35" type="qcurve"/>
      <point x="402" y="-35"/>
      <point x="364" y="24"/>
      <point x="364" y="46" type="qcurve"/>
      <point x="366" y="176" type="line"/>
      <point x="366" y="177"/>
      <point x="367" y="181"/>
      <point x="367" y="182" type="qcurve"/>
      <point x="379" y="240" type="line"/>
      <point x="379" y="241" type="line"/>
      <point x="395" y="308" type="line"/>
      <point x="394" y="312"/>
      <point x="391" y="335"/>
      <point x="388" y="346"/>
      <point x="383" y="362"/>
      <point x="374" y="373"/>
    </contour>
  </outline>
</glyph>
<glyph name="bar" format="2">
  <advance width="226"/>
  <unicode hex="007C"/>
  <outline>
    <contour>
      <point x="104" y="-22"/>
      <point x="122" y="-22"/>
      <point x="135" y="-9"/>
      <point x="135" y="0" type="qcurve"/>
      <point x="135" y="781" type="line"/>
      <point x="135" y="790"/>
      <point x="122" y="803"/>
      <point x="104" y="803"/>
      <point x="91" y="790"/>
      <point x="91" y="781" type="qcurve"/>
      <point x="91" y="0" type="line"/>
      <point x="91" y="-9"/>
    </contour>
    <contour>
      <point x="102" y="808"/>
      <point x="124" y="808"/>
      <point x="140" y="792"/>
      <point x="140" y="781" type="qcurve"/>
      <point x="140" y="0" type="line"/>
      <point x="140" y="-11"/>
      <point x="124" y="-27"/>
      <point x="102" y="-27"/>
      <point x="86" y="-11"/>
      <point x="86" y="0" type="qcurve"/>
      <point x="86" y="781" type="line"/>
      <point x="86" y="792"/>
    </contour>
  </outline>
</glyph>
<glyph name="uni0964" format="2">
  <advance width="199"/>
  <unicode hex="0964"/>
  <outline>
    <contour>
      <point x="96" y="449"/>
      <point x="98" y="449"/>
      <point x="99" y="448" type="qcurve"/>
      <point x="134" y="413" type="line"/>
      <point x="135" y="412"/>
      <point x="135" y="411" type="qcurve"/>
      <point x="135" y="411"/>
      <point x="138" y="92" type="qcurve"/>
      <point x="138" y="91"/>
      <point x="137" y="90" type="qcurve"/>
      <point x="102" y="54" type="line"/>
      <point x="101" y="54"/>
      <point x="99" y="54"/>
      <point x="98" y="54" type="qcurve"/>
      <point x="63" y="90" type="line"/>
      <point x="62" y="91"/>
      <point x="62" y="92" type="qcurve"/>
      <point x="59" y="411" type="line"/>
      <point x="59" y="412"/>
      <point x="60" y="413" type="qcurve"/>
      <point x="95" y="448" type="line"/>
    </contour>
    <contour>
      <point x="97" y="443" type="line"/>
      <point x="64" y="410" type="line"/>
      <point x="67" y="93" type="line"/>
      <point x="100" y="60" type="line"/>
      <point x="133" y="93" type="line"/>
      <point x="130" y="410" type="line"/>
    </contour>
  </outline>
</glyph>
<glyph name="uni0986" format="2">
  <advance width="1024"/>
  <unicode hex="0986"/>
  <outline>
    <contour>
      <point x="907" y="719" type="line"/>
      <point x="853" y="719"/>
      <point x="637" y="741"/>
      <point x="583" y="741" type="qcurve"/>
      <point x="554" y="742"/>
      <point x="519" y="742" type="qcurve"/>
      <point x="486" y="742"/>
      <point x="351" y="740"/>
      <point x="318" y="740" type="qcurve"/>
      <point x="227" y="740"/>
      <point x="163" y="745" type="qcurve"/>
      <point x="162" y="745"/>
      <point x="161" y="746" type="qcurve"/>
      <point x="126" y="781" type="line"/>
      <point x="125" y="782"/>
      <point x="125" y="784"/>
      <point x="126" y="785" type="qcurve"/>
      <point x="161" y="820" type="line"/>
      <point x="162" y="821"/>
      <point x="163" y="821" type="qcurve"/>
      <point x="228" y="816"/>
      <point x="318" y="816" type="qcurve"/>
      <point x="351" y="816"/>
      <point x="486" y="818"/>
      <point x="519" y="818" type="qcurve"/>
      <point x="554" y="818"/>
      <point x="583" y="817" type="qcurve"/>
      <point x="637" y="817"/>
      <point x="853" y="795"/>
      <point x="907" y="795" type="qcurve"/>
      <point x="945" y="795" type="line"/>
      <point x="977" y="801" type="line"/>
      <point x="978" y="801"/>
      <point x="979" y="800" type="qcurve"/>
      <point x="1014" y="765" type="line"/>
      <point x="1015" y="764"/>
      <point x="1015" y="762"/>
      <point x="1014" y="761" type="qcurve"/>
      <point x="979" y="726" type="line"/>
      <point x="978" y="725"/>
      <point x="977" y="725" type="qcurve"/>
      <point x="945" y="719" type="line"/>
    </contour>
    <contour>
      <point x="318" y="745" type="qcurve"/>
      <point x="351" y="745"/>
      <point x="486" y="747"/>
      <point x="519" y="747" type="qcurve"/>
      <point x="554" y="747"/>
      <point x="583" y="746" type="qcurve"/>
      <point x="637" y="746"/>
      <point x="853" y="724"/>
      <point x="907" y="724" type="qcurve"/>
      <point x="945" y="724" type="line"/>
      <point x="976" y="730" type="line"/>
      <point x="1009" y="763" type="line"/>
      <point x="976" y="796" type="line"/>
      <point x="945" y="790" type="line"/>
      <point x="907" y="790" type="line"/>
      <point x="853" y="790"/>
      <point x="637" y="812"/>
      <point x="583" y="812" type="qcurve"/>
      <point x="554" y="813"/>
      <point x="519" y="813" type="qcurve"/>
      <point x="486" y="813"/>
      <point x="351" y="811"/>
      <point x="318" y="811" type="qcurve"/>
      <point x="228" y="811"/>
      <point x="164" y="816" type="qcurve"/>
      <point x="131" y="783" type="line"/>
      <point x="164" y="750" type="line"/>
      <point x="228" y="745"/>
    </contour>
    <contour>
      <point x="998" y="234" type="qcurve"/>
      <point x="998" y="223"/>
      <point x="1000" y="177"/>
      <point x="1000" y="166" type="qcurve"/>
      <point x="1000" y="110"/>
      <point x="985" y="95" type="qcurve"/>
      <point x="950" y="60" type="line"/>
      <point x="944" y="54"/>
      <point x="936" y="54" type="qcurve"/>
      <point x="913" y="54"/>
      <point x="904" y="63" type="qcurve"/>
      <point x="869" y="98" type="line"/>
      <point x="867" y="100"/>
      <point x="863" y="106" type="qcurve"/>
      <point x="847" y="122" type="line"/>
      <point x="846" y="123"/>
      <point x="846" y="124" type="qcurve"/>
      <point x="842" y="220" type="line"/>
      <point x="858" y="308" type="line"/>
      <point x="858" y="309"/>
      <point x="858" y="309" type="qcurve"/>
      <point x="881" y="401"/>
      <point x="887" y="421" type="qcurve"/>
      <point x="893" y="443"/>
      <point x="896" y="454" type="qcurve"/>
      <point x="889" y="479"/>
      <point x="851" y="605"/>
      <point x="842" y="639" type="qcurve"/>
      <point x="842" y="640"/>
      <point x="842" y="640" type="qcurve"/>
      <point x="842" y="672" type="line"/>
      <point x="842" y="690"/>
      <point x="832" y="723" type="qcurve"/>
      <point x="827" y="716"/>
      <point x="821" y="710" type="qcurve"/>
      <point x="778" y="627" type="line"/>
      <point x="734" y="475" type="line"/>
      <point x="714" y="372" type="line"/>
      <point x="714" y="371"/>
      <point x="714" y="371" type="qcurve"/>
      <point x="699" y="318"/>
      <point x="693" y="278" type="qcurve"/>
      <point x="712" y="257"/>
      <point x="730" y="177"/>
      <point x="730" y="144" type="qcurve"/>
      <point x="730" y="140"/>
      <point x="720" y="128" type="qcurve"/>
      <point x="710" y="114"/>
      <point x="699" y="103" type="qcurve"/>
      <point x="664" y="68" type="line"/>
      <point x="658" y="62"/>
      <point x="656" y="62" type="qcurve"/>
      <point x="655" y="62"/>
      <point x="654" y="63" type="qcurve"/>
      <point x="619" y="98" type="line"/>
      <point x="618" y="99"/>
      <point x="618" y="99" type="qcurve"/>
      <point x="608" y="129"/>
      <point x="608" y="168" type="qcurve"/>
      <point x="608" y="192"/>
      <point x="614" y="255" type="qcurve"/>
      <point x="613" y="255"/>
      <point x="609" y="254"/>
      <point x="607" y="254"/>
      <point x="606" y="255" type="qcurve"/>
      <point x="571" y="290" type="line"/>
      <point x="570" y="291"/>
      <point x="570" y="293"/>
      <point x="571" y="294" type="qcurve"/>
      <point x="606" y="329" type="line"/>
      <point x="608" y="330"/>
      <point x="614" y="330" type="qcurve"/>
      <point x="616" y="330"/>
      <point x="623" y="330"/>
      <point x="624" y="330" type="qcurve"/>
      <point x="626" y="330"/>
      <point x="627" y="330" type="qcurve"/>
      <point x="632" y="349"/>
      <point x="638" y="373" type="qcurve"/>
      <point x="658" y="476" type="line"/>
      <point x="658" y="477"/>
      <point x="658" y="477" type="qcurve"/>
      <point x="702" y="629" type="line"/>
      <point x="746" y="713" type="line"/>
      <point x="747" y="713"/>
      <point x="747" y="714" type="qcurve"/>
      <point x="755" y="722"/>
      <point x="766" y="738" type="qcurve"/>
      <point x="776" y="753"/>
      <point x="782" y="759" type="qcurve"/>
      <point x="817" y="794" type="line"/>
      <point x="829" y="806"/>
      <point x="844" y="806" type="qcurve"/>
      <point x="849" y="806"/>
      <point x="853" y="801" type="qcurve"/>
      <point x="888" y="766" type="line"/>
      <point x="900" y="755"/>
      <point x="918" y="689"/>
      <point x="918" y="672" type="qcurve"/>
      <point x="918" y="640" type="line"/>
      <point x="921" y="629"/>
      <point x="924" y="616" type="qcurve"/>
      <point x="928" y="625"/>
      <point x="934" y="633" type="qcurve"/>
      <point x="934" y="636"/>
      <point x="934" y="639" type="qcurve"/>
      <point x="934" y="658"/>
      <point x="951" y="688" type="qcurve"/>
      <point x="966" y="716"/>
      <point x="966" y="731" type="qcurve"/>
      <point x="966" y="732"/>
      <point x="966" y="733"/>
      <point x="966" y="734" type="qcurve"/>
      <point x="966" y="765"/>
      <point x="986" y="785" type="qcurve"/>
      <point x="1022" y="820" type="line"/>
      <point x="1024" y="822"/>
      <point x="1042" y="837" type="qcurve"/>
      <point x="1043" y="838"/>
      <point x="1045" y="838"/>
      <point x="1046" y="837" type="qcurve"/>
      <point x="1081" y="802" type="line"/>
      <point x="1082" y="801"/>
      <point x="1082" y="799"/>
      <point x="1081" y="798" type="qcurve"/>
      <point x="1049" y="766" type="line"/>
      <point x="1042" y="752"/>
      <point x="1042" y="734" type="qcurve"/>
      <point x="1042" y="733"/>
      <point x="1042" y="732"/>
      <point x="1042" y="731" type="qcurve"/>
      <point x="1042" y="714"/>
      <point x="1009" y="656"/>
      <point x="1009" y="639" type="qcurve"/>
      <point x="1009" y="638"/>
      <point x="1010" y="633"/>
      <point x="1010" y="632" type="qcurve"/>
      <point x="1010" y="631"/>
      <point x="1009" y="631" type="qcurve"/>
      <point x="990" y="604"/>
      <point x="990" y="561" type="qcurve"/>
      <point x="990" y="559"/>
      <point x="990" y="556" type="qcurve"/>
      <point x="990" y="544"/>
      <point x="979" y="494"/>
      <point x="978" y="488" type="qcurve"/>
      <point x="976" y="473"/>
      <point x="972" y="454" type="qcurve"/>
      <point x="999" y="352"/>
      <point x="999" y="275" type="qcurve"/>
      <point x="999" y="257"/>
      <point x="998" y="240" type="qcurve"/>
      <point x="998" y="237"/>
    </contour>
    <contour>
      <point x="624" y="325" type="qcurve"/>
      <point x="622" y="325"/>
      <point x="615" y="325"/>
      <point x="614" y="325" type="qcurve"/>
      <point x="611" y="325"/>
      <point x="609" y="325" type="qcurve"/>
      <point x="576" y="292" type="line"/>
      <point x="609" y="259" type="line"/>
      <point x="611" y="260"/>
      <point x="614" y="260" type="qcurve"/>
      <point x="620" y="260"/>
      <point x="620" y="257" type="qcurve"/>
      <point x="620" y="257"/>
      <point x="618" y="244" type="qcurve"/>
      <point x="613" y="193"/>
      <point x="613" y="168" type="qcurve"/>
      <point x="613" y="130"/>
      <point x="623" y="101" type="qcurve"/>
      <point x="656" y="68" type="line"/>
      <point x="658" y="69"/>
      <point x="660" y="71" type="qcurve"/>
      <point x="696" y="107" type="line"/>
      <point x="720" y="132"/>
      <point x="725" y="144" type="qcurve"/>
      <point x="725" y="176"/>
      <point x="707" y="256"/>
      <point x="689" y="276" type="qcurve"/>
      <point x="688" y="276"/>
      <point x="688" y="277" type="qcurve"/>
      <point x="688" y="278"/>
      <point x="688" y="278" type="qcurve"/>
      <point x="694" y="318"/>
      <point x="709" y="373" type="qcurve"/>
      <point x="729" y="476" type="line"/>
      <point x="729" y="477"/>
      <point x="729" y="477" type="qcurve"/>
      <point x="773" y="629" type="line"/>
      <point x="817" y="713" type="line"/>
      <point x="817" y="713"/>
      <point x="818" y="714" type="qcurve"/>
      <point x="825" y="721"/>
      <point x="831" y="730" type="qcurve"/>
      <point x="832" y="731"/>
      <point x="833" y="731" type="qcurve"/>
      <point x="835" y="731"/>
      <point x="836" y="729" type="qcurve"/>
      <point x="847" y="693"/>
      <point x="847" y="672" type="qcurve"/>
      <point x="847" y="640" type="line"/>
      <point x="856" y="606"/>
      <point x="894" y="480"/>
      <point x="901" y="455" type="qcurve"/>
      <point x="901" y="455"/>
      <point x="901" y="454" type="qcurve"/>
      <point x="898" y="442"/>
      <point x="892" y="419" type="qcurve"/>
      <point x="868" y="333"/>
      <point x="863" y="307" type="qcurve"/>
      <point x="847" y="220" type="line"/>
      <point x="851" y="125" type="line"/>
      <point x="867" y="110" type="line"/>
      <point x="867" y="109"/>
      <point x="867" y="108" type="qcurve"/>
      <point x="871" y="104"/>
      <point x="873" y="102" type="qcurve"/>
      <point x="908" y="66" type="line"/>
      <point x="915" y="59"/>
      <point x="936" y="59" type="qcurve"/>
      <point x="942" y="59"/>
      <point x="946" y="63" type="qcurve"/>
      <point x="982" y="99" type="line"/>
      <point x="995" y="112"/>
      <point x="995" y="166" type="qcurve"/>
      <point x="995" y="177"/>
      <point x="993" y="223"/>
      <point x="993" y="234" type="qcurve"/>
      <point x="993" y="238"/>
      <point x="993" y="240" type="qcurve"/>
      <point x="994" y="258"/>
      <point x="994" y="275" type="qcurve"/>
      <point x="994" y="351"/>
      <point x="967" y="454" type="qcurve"/>
      <point x="966" y="454"/>
      <point x="966" y="455"/>
      <point x="966" y="455" type="qcurve"/>
      <point x="971" y="473"/>
      <point x="973" y="488" type="qcurve"/>
      <point x="974" y="495"/>
      <point x="985" y="545"/>
      <point x="985" y="556" type="qcurve"/>
      <point x="985" y="559"/>
      <point x="985" y="561" type="qcurve"/>
      <point x="985" y="605"/>
      <point x="1005" y="633" type="qcurve"/>
      <point x="1004" y="636"/>
      <point x="1004" y="639" type="qcurve"/>
      <point x="1004" y="658"/>
      <point x="1021" y="688" type="qcurve"/>
      <point x="1037" y="716"/>
      <point x="1037" y="731" type="qcurve"/>
      <point x="1037" y="732"/>
      <point x="1037" y="733"/>
      <point x="1037" y="734" type="qcurve"/>
      <point x="1037" y="754"/>
      <point x="1045" y="769" type="qcurve"/>
      <point x="1045" y="769"/>
      <point x="1045" y="770" type="qcurve"/>
      <point x="1076" y="800" type="line"/>
      <point x="1044" y="832" type="line"/>
      <point x="1029" y="820"/>
      <point x="1025" y="817" type="qcurve"/>
      <point x="990" y="781" type="line"/>
      <point x="971" y="763"/>
      <point x="971" y="734" type="qcurve"/>
      <point x="971" y="733"/>
      <point x="971" y="732"/>
      <point x="971" y="731" type="qcurve"/>
      <point x="971" y="714"/>
      <point x="939" y="656"/>
      <point x="939" y="639" type="qcurve"/>
      <point x="939" y="638"/>
      <point x="939" y="633"/>
      <point x="939" y="632" type="qcurve"/>
      <point x="939" y="631"/>
      <point x="939" y="631" type="qcurve"/>
      <point x="931" y="620"/>
      <point x="926" y="607" type="qcurve"/>
      <point x="926" y="605"/>
      <point x="922" y="605"/>
      <point x="921" y="607" type="qcurve"/>
      <point x="917" y="624"/>
      <point x="913" y="639" type="qcurve"/>
      <point x="913" y="640"/>
      <point x="913" y="640" type="qcurve"/>
      <point x="913" y="672" type="line"/>
      <point x="913" y="687"/>
      <point x="895" y="753"/>
      <point x="885" y="762" type="qcurve"/>
      <point x="850" y="798" type="line"/>
      <point x="847" y="801"/>
      <point x="844" y="801" type="qcurve"/>
      <point x="831" y="801"/>
      <point x="821" y="790" type="qcurve"/>
      <point x="785" y="755" type="line"/>
      <point x="780" y="750"/>
      <point x="770" y="735" type="qcurve"/>
      <point x="759" y="719"/>
      <point x="751" y="711" type="qcurve"/>
      <point x="707" y="627" type="line"/>
      <point x="663" y="475" type="line"/>
      <point x="643" y="372" type="line"/>
      <point x="643" y="371"/>
      <point x="643" y="371" type="qcurve"/>
      <point x="636" y="347"/>
      <point x="632" y="326" type="qcurve"/>
      <point x="631" y="325"/>
      <point x="629" y="325" type="qcurve"/>
      <point x="628" y="325"/>
      <point x="625" y="325"/>
    </contour>
    <contour>
      <point x="926" y="281" type="qcurve"/>
      <point x="929" y="281"/>
      <point x="929" y="275" type="qcurve"/>
      <point x="929" y="257"/>
      <point x="927" y="240" type="qcurve"/>
      <point x="927" y="237"/>
      <point x="927" y="234" type="qcurve"/>
      <point x="927" y="223"/>
      <point x="929" y="177"/>
      <point x="929" y="166" type="qcurve"/>
      <point x="929" y="143"/>
      <point x="927" y="128" type="qcurve"/>
      <point x="927" y="125"/>
      <point x="924" y="125" type="qcurve"/>
      <point x="917" y="125"/>
      <point x="917" y="129" type="qcurve"/>
      <point x="913" y="220" type="line"/>
      <point x="924" y="279" type="line"/>
      <point x="924" y="281"/>
    </contour>
    <contour>
      <point x="924" y="166" type="qcurve"/>
      <point x="924" y="177"/>
      <point x="922" y="223"/>
      <point x="922" y="234" type="qcurve"/>
      <point x="922" y="237"/>
      <point x="923" y="246" type="qcurve"/>
      <point x="918" y="220" type="line"/>
      <point x="922" y="131" type="line"/>
      <point x="924" y="145"/>
    </contour>
    <contour>
      <point x="348" y="134" type="qcurve"/>
      <point x="363" y="134"/>
      <point x="421" y="130"/>
      <point x="436" y="130" type="qcurve"/>
      <point x="437" y="130"/>
      <point x="443" y="132" type="qcurve"/>
      <point x="473" y="139"/>
      <point x="485" y="147" type="qcurve"/>
      <point x="521" y="194"/>
      <point x="570" y="334"/>
      <point x="570" y="376" type="qcurve"/>
      <point x="570" y="431"/>
      <point x="514" y="607"/>
      <point x="471" y="662" type="qcurve"/>
      <point x="444" y="682"/>
      <point x="416" y="682" type="qcurve"/>
      <point x="371" y="682"/>
      <point x="340" y="670" type="qcurve"/>
      <point x="373" y="637" type="line"/>
      <point x="394" y="617"/>
      <point x="394" y="576" type="qcurve"/>
      <point x="394" y="558"/>
      <point x="378" y="542" type="qcurve"/>
      <point x="343" y="507" type="line"/>
      <point x="326" y="490"/>
      <point x="308" y="490" type="qcurve"/>
      <point x="297" y="490"/>
      <point x="289" y="498" type="qcurve"/>
      <point x="254" y="533" type="line"/>
      <point x="238" y="549"/>
      <point x="238" y="597" type="qcurve"/>
      <point x="238" y="598"/>
      <point x="238" y="599"/>
      <point x="238" y="600" type="qcurve"/>
      <point x="238" y="621"/>
      <point x="242" y="638" type="qcurve"/>
      <point x="212" y="650"/>
      <point x="191" y="666" type="qcurve"/>
      <point x="-1" y="734" type="line"/>
      <point x="-1" y="734"/>
      <point x="-2" y="735" type="qcurve"/>
      <point x="-37" y="770" type="line"/>
      <point x="-38" y="771"/>
      <point x="-38" y="773"/>
      <point x="-37" y="774" type="qcurve"/>
      <point x="-2" y="809" type="line"/>
      <point x="-1" y="810"/>
      <point x="0" y="810" type="qcurve"/>
      <point x="0" y="810"/>
      <point x="1" y="810" type="qcurve"/>
      <point x="193" y="742" type="line"/>
      <point x="193" y="742"/>
      <point x="194" y="741" type="qcurve"/>
      <point x="198" y="738"/>
      <point x="208" y="731"/>
      <point x="218" y="725"/>
      <point x="226" y="721"/>
      <point x="239" y="716"/>
      <point x="245" y="713"/>
      <point x="259" y="708"/>
      <point x="264" y="707"/>
      <point x="280" y="701"/>
      <point x="282" y="701" type="qcurve"/>
      <point x="304" y="723" type="line"/>
      <point x="339" y="758"/>
      <point x="416" y="758" type="qcurve"/>
      <point x="456" y="758"/>
      <point x="493" y="721" type="qcurve"/>
      <point x="528" y="685" type="line"/>
      <point x="579" y="635"/>
      <point x="646" y="439"/>
      <point x="646" y="376" type="qcurve"/>
      <point x="646" y="327"/>
      <point x="585" y="168"/>
      <point x="541" y="124" type="qcurve"/>
      <point x="506" y="89" type="line"/>
      <point x="471" y="54"/>
      <point x="436" y="54" type="qcurve"/>
      <point x="421" y="54"/>
      <point x="363" y="58"/>
      <point x="348" y="58" type="qcurve"/>
      <point x="220" y="58"/>
      <point x="156" y="122" type="qcurve"/>
      <point x="121" y="158" type="line"/>
      <point x="101" y="178"/>
      <point x="72" y="228"/>
      <point x="53" y="296"/>
      <point x="43" y="340"/>
      <point x="37" y="382" type="qcurve"/>
      <point x="29" y="426"/>
      <point x="20" y="473"/>
      <point x="-2" y="537"/>
      <point x="-17" y="559" type="qcurve"/>
      <point x="-18" y="559"/>
      <point x="-18" y="560" type="qcurve"/>
      <point x="-18" y="561"/>
      <point x="-17" y="562" type="qcurve"/>
      <point x="18" y="597" type="line"/>
      <point x="19" y="598"/>
      <point x="21" y="598"/>
      <point x="22" y="597" type="qcurve"/>
      <point x="57" y="562" type="line"/>
      <point x="57" y="561" type="line"/>
      <point x="73" y="540"/>
      <point x="95" y="474"/>
      <point x="105" y="427"/>
      <point x="112" y="383" type="qcurve"/>
      <point x="120" y="334"/>
      <point x="131" y="281"/>
      <point x="159" y="205"/>
      <point x="179" y="180" type="qcurve"/>
      <point x="240" y="134"/>
    </contour>
    <contour>
      <point x="348" y="63" type="qcurve"/>
      <point x="363" y="63"/>
      <point x="421" y="59"/>
      <point x="436" y="59" type="qcurve"/>
      <point x="469" y="59"/>
      <point x="502" y="92" type="qcurve"/>
      <point x="538" y="127" type="line"/>
      <point x="580" y="170"/>
      <point x="641" y="329"/>
      <point x="641" y="376" type="qcurve"/>
      <point x="641" y="438"/>
      <point x="574" y="632"/>
      <point x="525" y="682" type="qcurve"/>
      <point x="489" y="717" type="line"/>
      <point x="454" y="753"/>
      <point x="416" y="753" type="qcurve"/>
      <point x="341" y="753"/>
      <point x="307" y="719" type="qcurve"/>
      <point x="284" y="696" type="line"/>
      <point x="284" y="696"/>
      <point x="283" y="696" type="qcurve"/>
      <point x="282" y="696"/>
      <point x="282" y="696" type="qcurve"/>
      <point x="279" y="697"/>
      <point x="261" y="702"/>
      <point x="255" y="704"/>
      <point x="239" y="710"/>
      <point x="232" y="713"/>
      <point x="218" y="719"/>
      <point x="208" y="725"/>
      <point x="196" y="733"/>
      <point x="191" y="737" type="qcurve"/>
      <point x="1" y="804" type="line"/>
      <point x="-32" y="772" type="line"/>
      <point x="1" y="739" type="line"/>
      <point x="193" y="671" type="line"/>
      <point x="193" y="671"/>
      <point x="194" y="671" type="qcurve"/>
      <point x="215" y="654"/>
      <point x="246" y="642" type="qcurve"/>
      <point x="248" y="642"/>
      <point x="248" y="640" type="qcurve"/>
      <point x="248" y="640"/>
      <point x="248" y="639" type="qcurve"/>
      <point x="243" y="622"/>
      <point x="243" y="600" type="qcurve"/>
      <point x="243" y="551"/>
      <point x="257" y="537" type="qcurve"/>
      <point x="292" y="501" type="line"/>
      <point x="299" y="495"/>
      <point x="308" y="495" type="qcurve"/>
      <point x="324" y="495"/>
      <point x="339" y="510" type="qcurve"/>
      <point x="374" y="546" type="line"/>
      <point x="389" y="560"/>
      <point x="389" y="576" type="qcurve"/>
      <point x="389" y="614"/>
      <point x="370" y="634" type="qcurve"/>
      <point x="334" y="669" type="line"/>
      <point x="334" y="670"/>
      <point x="334" y="671" type="qcurve"/>
      <point x="334" y="672"/>
      <point x="335" y="673" type="qcurve"/>
      <point x="367" y="687"/>
      <point x="416" y="687" type="qcurve"/>
      <point x="446" y="687"/>
      <point x="475" y="666" type="qcurve"/>
      <point x="475" y="666"/>
      <point x="475" y="665" type="qcurve"/>
      <point x="519" y="610"/>
      <point x="575" y="432"/>
      <point x="575" y="376" type="qcurve"/>
      <point x="575" y="333"/>
      <point x="525" y="192"/>
      <point x="488" y="144" type="qcurve"/>
      <point x="475" y="134"/>
      <point x="444" y="127" type="qcurve"/>
      <point x="442" y="126"/>
      <point x="440" y="126" type="qcurve"/>
      <point x="437" y="125"/>
      <point x="436" y="125" type="qcurve"/>
      <point x="421" y="125"/>
      <point x="363" y="129"/>
      <point x="348" y="129" type="qcurve"/>
      <point x="238" y="129"/>
      <point x="175" y="176" type="qcurve"/>
      <point x="175" y="177"/>
      <point x="175" y="177" type="qcurve"/>
      <point x="155" y="203"/>
      <point x="127" y="279"/>
      <point x="116" y="332"/>
      <point x="107" y="382" type="qcurve"/>
      <point x="100" y="426"/>
      <point x="90" y="473"/>
      <point x="68" y="537"/>
      <point x="53" y="558" type="qcurve"/>
      <point x="20" y="592" type="line"/>
      <point x="-12" y="560" type="line"/>
      <point x="3" y="538"/>
      <point x="25" y="473"/>
      <point x="34" y="427"/>
      <point x="42" y="383" type="qcurve"/>
      <point x="51" y="328"/>
      <point x="64" y="268"/>
      <point x="99" y="187"/>
      <point x="124" y="161" type="qcurve"/>
      <point x="160" y="126" type="line"/>
      <point x="222" y="63"/>
    </contour>
    <contour>
      <point x="312" y="619" type="qcurve"/>
      <point x="315" y="619"/>
      <point x="316" y="616" type="qcurve"/>
      <point x="323" y="600"/>
      <point x="323" y="576" type="qcurve"/>
      <point x="323" y="564"/>
      <point x="320" y="563" type="qcurve"/>
      <point x="315" y="561"/>
      <point x="314" y="561" type="qcurve"/>
      <point x="312" y="561"/>
      <point x="311" y="563" type="qcurve"/>
      <point x="309" y="577"/>
      <point x="309" y="600" type="qcurve"/>
      <point x="309" y="609"/>
      <point x="310" y="616" type="qcurve"/>
      <point x="310" y="619"/>
    </contour>
    <contour>
      <point x="314" y="608" type="qcurve"/>
      <point x="314" y="604"/>
      <point x="314" y="600" type="qcurve"/>
      <point x="314" y="579"/>
      <point x="316" y="567" type="qcurve"/>
      <point x="316" y="567"/>
      <point x="317" y="567" type="qcurve"/>
      <point x="318" y="570"/>
      <point x="318" y="575" type="qcurve"/>
      <point x="318" y="576"/>
      <point x="318" y="576" type="qcurve"/>
      <point x="318" y="594"/>
    </contour>
  </outline>
</glyph>
<glyph name="uni0997" format="2">
  <advance width="492"/>
  <unicode hex="0997"/>
  <outline>
    <contour>
      <point x="380" y="556" type="qcurve"/>
      <point x="380" y="537"/>
      <point x="377" y="469"/>
      <point x="377" y="451" type="qcurve"/>
      <point x="377" y="429"/>
      <point x="379" y="344"/>
      <point x="379" y="323" type="qcurve"/>
      <point x="379" y="219"/>
      <point x="354" y="153" type="qcurve"/>
      <point x="352" y="148"/>
      <point x="344" y="122"/>
      <point x="336" y="105"/>
      <point x="330" y="99" type="qcurve"/>
      <point x="294" y="64" type="line"/>
      <point x="283" y="52"/>
      <point x="262" y="52" type="qcurve"/>
      <point x="261" y="52"/>
      <point x="261" y="52" type="qcurve"/>
      <point x="256" y="55"/>
      <point x="252" y="59" type="qcurve"/>
      <point x="217" y="94" type="line"/>
      <point x="202" y="108"/>
      <point x="202" y="146" type="qcurve"/>
      <point x="202" y="159"/>
      <point x="204" y="180" type="qcurve"/>
      <point x="202" y="202"/>
      <point x="202" y="224" type="qcurve"/>
      <point x="202" y="317"/>
      <point x="234" y="441" type="qcurve"/>
      <point x="202" y="409" type="line"/>
      <point x="178" y="385"/>
      <point x="124" y="376" type="qcurve"/>
      <point x="119" y="375"/>
      <point x="114" y="375" type="qcurve"/>
      <point x="83" y="375"/>
      <point x="55" y="404" type="qcurve"/>
      <point x="20" y="439" type="line"/>
      <point x="-13" y="472"/>
      <point x="-22" y="516" type="qcurve"/>
      <point x="-22" y="517"/>
      <point x="-21" y="518" type="qcurve"/>
      <point x="14" y="553" type="line"/>
      <point x="15" y="554"/>
      <point x="17" y="554"/>
      <point x="18" y="553" type="qcurve"/>
      <point x="53" y="518" type="line"/>
      <point x="54" y="517"/>
      <point x="54" y="516" type="qcurve"/>
      <point x="59" y="489"/>
      <point x="77" y="463" type="qcurve"/>
      <point x="82" y="460"/>
      <point x="99" y="454"/>
      <point x="114" y="451"/>
      <point x="114" y="451" type="qcurve"/>
      <point x="119" y="451"/>
      <point x="124" y="452" type="qcurve"/>
      <point x="155" y="457"/>
      <point x="176" y="468" type="qcurve"/>
      <point x="180" y="476"/>
      <point x="180" y="486" type="qcurve"/>
      <point x="177" y="507"/>
      <point x="164" y="526" type="qcurve"/>
      <point x="160" y="529"/>
      <point x="97" y="575"/>
      <point x="83" y="589" type="qcurve"/>
      <point x="48" y="624" type="line"/>
      <point x="12" y="660"/>
      <point x="12" y="704" type="qcurve"/>
      <point x="12" y="706"/>
      <point x="12" y="708" type="qcurve"/>
      <point x="12" y="709"/>
      <point x="12" y="711" type="qcurve"/>
      <point x="12" y="744"/>
      <point x="39" y="771" type="qcurve"/>
      <point x="74" y="806" type="line"/>
      <point x="102" y="834"/>
      <point x="138" y="836" type="qcurve"/>
      <point x="175" y="838"/>
      <point x="188" y="838" type="qcurve"/>
      <point x="248" y="838"/>
      <point x="286" y="800" type="qcurve"/>
      <point x="321" y="765" type="line"/>
      <point x="334" y="752"/>
      <point x="344" y="734" type="qcurve"/>
      <point x="350" y="741"/>
      <point x="355" y="746" type="qcurve"/>
      <point x="391" y="782" type="line"/>
      <point x="409" y="801"/>
      <point x="433" y="806" type="qcurve"/>
      <point x="437" y="807"/>
      <point x="462" y="818"/>
      <point x="468" y="818" type="qcurve"/>
      <point x="474" y="818" type="line"/>
      <point x="491" y="824" type="line"/>
      <point x="492" y="824"/>
      <point x="492" y="824" type="qcurve"/>
      <point x="493" y="824"/>
      <point x="494" y="823" type="qcurve"/>
      <point x="529" y="788" type="line"/>
      <point x="530" y="787"/>
      <point x="530" y="785"/>
      <point x="529" y="784" type="qcurve"/>
      <point x="494" y="749" type="line"/>
      <point x="493" y="748"/>
      <point x="493" y="748" type="qcurve"/>
      <point x="475" y="742" type="line"/>
      <point x="474" y="742"/>
      <point x="474" y="742" type="qcurve"/>
      <point x="468" y="742" type="line"/>
      <point x="463" y="742"/>
      <point x="438" y="731"/>
      <point x="435" y="730" type="qcurve"/>
      <point x="423" y="728"/>
      <point x="412" y="722" type="qcurve"/>
      <point x="407" y="714"/>
      <point x="389" y="683" type="qcurve"/>
      <point x="380" y="668"/>
      <point x="373" y="650" type="qcurve"/>
      <point x="380" y="609"/>
    </contour>
    <contour>
      <point x="374" y="323" type="qcurve"/>
      <point x="374" y="344"/>
      <point x="372" y="429"/>
      <point x="372" y="451" type="qcurve"/>
      <point x="372" y="469"/>
      <point x="375" y="537"/>
      <point x="375" y="556" type="qcurve"/>
      <point x="375" y="609"/>
      <point x="368" y="650" type="qcurve"/>
      <point x="368" y="651" type="line"/>
      <point x="368" y="651"/>
      <point x="368" y="652" type="qcurve"/>
      <point x="373" y="663"/>
      <point x="390" y="694" type="qcurve"/>
      <point x="402" y="715"/>
      <point x="409" y="725" type="qcurve"/>
      <point x="409" y="725"/>
      <point x="409" y="726" type="qcurve"/>
      <point x="421" y="732"/>
      <point x="433" y="735" type="qcurve"/>
      <point x="437" y="736"/>
      <point x="462" y="747"/>
      <point x="468" y="747" type="qcurve"/>
      <point x="474" y="747" type="line"/>
      <point x="491" y="753" type="line"/>
      <point x="524" y="786" type="line"/>
      <point x="491" y="818" type="line"/>
      <point x="475" y="813" type="line"/>
      <point x="474" y="813"/>
      <point x="474" y="813" type="qcurve"/>
      <point x="468" y="813" type="line"/>
      <point x="463" y="813"/>
      <point x="438" y="802"/>
      <point x="435" y="801" type="qcurve"/>
      <point x="412" y="796"/>
      <point x="394" y="778" type="qcurve"/>
      <point x="359" y="743" type="line"/>
      <point x="352" y="736"/>
      <point x="346" y="728" type="qcurve"/>
      <point x="345" y="727"/>
      <point x="344" y="727" type="qcurve"/>
      <point x="343" y="727"/>
      <point x="342" y="728" type="qcurve"/>
      <point x="331" y="748"/>
      <point x="317" y="761" type="qcurve"/>
      <point x="282" y="797" type="line"/>
      <point x="246" y="833"/>
      <point x="188" y="833" type="qcurve"/>
      <point x="175" y="833"/>
      <point x="138" y="831" type="qcurve"/>
      <point x="104" y="829"/>
      <point x="78" y="803" type="qcurve"/>
      <point x="42" y="767" type="line"/>
      <point x="17" y="742"/>
      <point x="17" y="711" type="qcurve"/>
      <point x="17" y="709"/>
      <point x="17" y="708" type="qcurve"/>
      <point x="17" y="706"/>
      <point x="17" y="704" type="qcurve"/>
      <point x="17" y="662"/>
      <point x="52" y="628" type="qcurve"/>
      <point x="87" y="592" type="line"/>
      <point x="101" y="579"/>
      <point x="163" y="533"/>
      <point x="167" y="530" type="qcurve"/>
      <point x="168" y="530"/>
      <point x="168" y="529" type="qcurve"/>
      <point x="182" y="509"/>
      <point x="185" y="486" type="qcurve"/>
      <point x="185" y="475"/>
      <point x="181" y="465" type="qcurve"/>
      <point x="180" y="464"/>
      <point x="180" y="464" type="qcurve"/>
      <point x="157" y="452"/>
      <point x="124" y="447" type="qcurve"/>
      <point x="119" y="446"/>
      <point x="114" y="446" type="qcurve"/>
      <point x="94" y="446"/>
      <point x="74" y="459" type="qcurve"/>
      <point x="74" y="459"/>
      <point x="73" y="460" type="qcurve"/>
      <point x="55" y="486"/>
      <point x="49" y="515" type="qcurve"/>
      <point x="16" y="548" type="line"/>
      <point x="-17" y="515" type="line"/>
      <point x="-8" y="474"/>
      <point x="23" y="443" type="qcurve"/>
      <point x="58" y="407" type="line"/>
      <point x="85" y="380"/>
      <point x="114" y="380" type="qcurve"/>
      <point x="119" y="380"/>
      <point x="124" y="381" type="qcurve"/>
      <point x="175" y="389"/>
      <point x="199" y="413" type="qcurve"/>
      <point x="234" y="448" type="line"/>
      <point x="238" y="452"/>
      <point x="239" y="452" type="qcurve"/>
      <point x="241" y="452"/>
      <point x="241" y="449" type="qcurve"/>
      <point x="207" y="319"/>
      <point x="207" y="224" type="qcurve"/>
      <point x="207" y="202"/>
      <point x="209" y="180" type="qcurve"/>
      <point x="209" y="180"/>
      <point x="209" y="180" type="qcurve"/>
      <point x="207" y="159"/>
      <point x="207" y="146" type="qcurve"/>
      <point x="207" y="110"/>
      <point x="220" y="97" type="qcurve"/>
      <point x="256" y="62" type="line"/>
      <point x="259" y="59"/>
      <point x="263" y="57" type="qcurve"/>
      <point x="281" y="57"/>
      <point x="291" y="67" type="qcurve"/>
      <point x="326" y="103" type="line"/>
      <point x="331" y="108"/>
      <point x="339" y="124"/>
      <point x="347" y="150"/>
      <point x="349" y="155" type="qcurve"/>
      <point x="374" y="220"/>
    </contour>
    <contour>
      <point x="276" y="137" type="qcurve"/>
      <point x="273" y="137"/>
      <point x="273" y="146" type="qcurve"/>
      <point x="273" y="159"/>
      <point x="275" y="180" type="qcurve"/>
      <point x="273" y="202"/>
      <point x="273" y="224" type="qcurve"/>
      <point x="273" y="313"/>
      <point x="301" y="428" type="qcurve"/>
      <point x="302" y="430"/>
      <point x="304" y="430" type="qcurve"/>
      <point x="306" y="430"/>
      <point x="306" y="428" type="qcurve"/>
      <point x="307" y="417"/>
      <point x="308" y="343"/>
      <point x="308" y="323" type="qcurve"/>
      <point x="308" y="219"/>
      <point x="283" y="153" type="qcurve"/>
      <point x="281" y="148"/>
      <point x="278" y="139" type="qcurve"/>
      <point x="277" y="137"/>
    </contour>
    <contour>
      <point x="303" y="323" type="qcurve"/>
      <point x="303" y="337"/>
      <point x="302" y="408" type="qcurve"/>
      <point x="278" y="306"/>
      <point x="278" y="224" type="qcurve"/>
      <point x="278" y="202"/>
      <point x="280" y="180" type="qcurve"/>
      <point x="280" y="180"/>
      <point x="280" y="180" type="qcurve"/>
      <point x="279" y="167"/>
      <point x="278" y="155" type="qcurve"/>
      <point x="303" y="220"/>
    </contour>
    <contour>
      <point x="302" y="651" type="qcurve"/>
      <point x="302" y="650"/>
      <point x="302" y="650" type="qcurve"/>
      <point x="288" y="620"/>
      <point x="267" y="541" type="qcurve"/>
      <point x="259" y="514"/>
      <point x="254" y="496" type="qcurve"/>
      <point x="253" y="494"/>
      <point x="249" y="494"/>
      <point x="249" y="496" type="qcurve"/>
      <point x="243" y="521"/>
      <point x="220" y="544" type="qcurve"/>
      <point x="185" y="579" type="line"/>
      <point x="171" y="592"/>
      <point x="110" y="637"/>
      <point x="104" y="641" type="qcurve"/>
      <point x="104" y="642"/>
      <point x="103" y="642" type="qcurve"/>
      <point x="83" y="670"/>
      <point x="83" y="704" type="qcurve"/>
      <point x="83" y="706"/>
      <point x="83" y="708" type="qcurve"/>
      <point x="83" y="709"/>
      <point x="83" y="711" type="qcurve"/>
      <point x="83" y="732"/>
      <point x="94" y="751" type="qcurve"/>
      <point x="94" y="751"/>
      <point x="95" y="752" type="qcurve"/>
      <point x="116" y="764"/>
      <point x="138" y="765" type="qcurve"/>
      <point x="175" y="767"/>
      <point x="188" y="767" type="qcurve"/>
      <point x="234" y="767"/>
      <point x="266" y="746" type="qcurve"/>
      <point x="267" y="745"/>
      <point x="267" y="745" type="qcurve"/>
      <point x="291" y="709"/>
    </contour>
    <contour>
      <point x="88" y="711" type="qcurve"/>
      <point x="88" y="710"/>
      <point x="88" y="705"/>
      <point x="88" y="704" type="qcurve"/>
      <point x="88" y="672"/>
      <point x="107" y="645" type="qcurve"/>
      <point x="113" y="641"/>
      <point x="175" y="596"/>
      <point x="188" y="582" type="qcurve"/>
      <point x="224" y="547" type="line"/>
      <point x="244" y="527"/>
      <point x="251" y="505" type="qcurve"/>
      <point x="252" y="507"/>
      <point x="263" y="544"/>
      <point x="265" y="554" type="qcurve"/>
      <point x="283" y="620"/>
      <point x="297" y="651" type="qcurve"/>
      <point x="287" y="707"/>
      <point x="263" y="742" type="qcurve"/>
      <point x="232" y="762"/>
      <point x="188" y="762" type="qcurve"/>
      <point x="175" y="762"/>
      <point x="138" y="760" type="qcurve"/>
      <point x="117" y="759"/>
      <point x="98" y="748" type="qcurve"/>
      <point x="88" y="730"/>
    </contour>
  </outline>
</glyph>
<glyph name="uni0998" format="2">
  <advance width="576"/>
  <unicode hex="0998"/>
  <outline>
    <contour>
      <point x="400" y="720" type="qcurve"/>
      <point x="400" y="720"/>
      <point x="400" y="721" type="qcurve"/>
      <point x="403" y="722"/>
      <point x="405" y="722" type="qcurve"/>
      <point x="407" y="722"/>
      <point x="407" y="720" type="qcurve"/>
      <point x="409" y="710"/>
      <point x="414" y="704" type="qcurve"/>
      <point x="444" y="673"/>
      <point x="444" y="615" type="qcurve"/>
      <point x="444" y="598"/>
      <point x="441" y="578" type="qcurve"/>
      <point x="431" y="493"/>
      <point x="423" y="282" type="qcurve"/>
      <point x="423" y="268"/>
      <point x="414" y="207"/>
      <point x="414" y="176"/>
      <point x="417" y="163" type="qcurve"/>
      <point x="419" y="156"/>
      <point x="420" y="126" type="qcurve"/>
      <point x="420" y="124"/>
      <point x="418" y="123" type="qcurve"/>
      <point x="398" y="121"/>
      <point x="384" y="121" type="qcurve"/>
      <point x="339" y="121"/>
      <point x="271" y="124"/>
      <point x="178" y="136"/>
      <point x="100" y="164"/>
      <point x="71" y="185" type="qcurve"/>
      <point x="70" y="185"/>
      <point x="70" y="186" type="qcurve"/>
      <point x="39" y="229"/>
      <point x="39" y="290" type="qcurve"/>
      <point x="39" y="328"/>
      <point x="63" y="361" type="qcurve"/>
      <point x="74" y="369"/>
      <point x="86" y="376" type="qcurve"/>
      <point x="86" y="376"/>
      <point x="87" y="376" type="qcurve"/>
      <point x="88" y="376"/>
      <point x="89" y="375" type="qcurve"/>
      <point x="93" y="371" type="line"/>
      <point x="121" y="343"/>
      <point x="170" y="343" type="qcurve"/>
      <point x="181" y="343"/>
      <point x="264" y="358"/>
      <point x="270" y="364" type="qcurve"/>
      <point x="305" y="400" type="line"/>
      <point x="306" y="400"/>
      <point x="306" y="400"/>
      <point x="306" y="401" type="qcurve"/>
      <point x="270" y="436" type="line"/>
      <point x="270" y="437"/>
      <point x="269" y="437" type="qcurve"/>
      <point x="217" y="467"/>
      <point x="178" y="467" type="qcurve"/>
      <point x="175" y="467"/>
      <point x="172" y="467" type="qcurve"/>
      <point x="135" y="465"/>
      <point x="98" y="447" type="qcurve"/>
      <point x="98" y="447"/>
      <point x="97" y="447" type="qcurve"/>
      <point x="95" y="447"/>
      <point x="95" y="448" type="qcurve"/>
      <point x="88" y="462"/>
      <point x="81" y="481" type="qcurve"/>
      <point x="64" y="527"/>
      <point x="64" y="566" type="qcurve"/>
      <point x="64" y="618"/>
      <point x="94" y="658" type="qcurve"/>
      <point x="94" y="659"/>
      <point x="94" y="659" type="qcurve"/>
      <point x="142" y="695"/>
      <point x="279" y="728"/>
      <point x="340" y="728" type="qcurve"/>
      <point x="386" y="728"/>
    </contour>
    <contour>
      <point x="340" y="723" type="qcurve"/>
      <point x="280" y="723"/>
      <point x="144" y="690"/>
      <point x="98" y="655" type="qcurve"/>
      <point x="69" y="616"/>
      <point x="69" y="566" type="qcurve"/>
      <point x="69" y="528"/>
      <point x="86" y="483" type="qcurve"/>
      <point x="92" y="466"/>
      <point x="98" y="453" type="qcurve"/>
      <point x="135" y="470"/>
      <point x="172" y="472" type="qcurve"/>
      <point x="175" y="472"/>
      <point x="178" y="472" type="qcurve"/>
      <point x="219" y="472"/>
      <point x="271" y="442" type="qcurve"/>
      <point x="273" y="441"/>
      <point x="274" y="440" type="qcurve"/>
      <point x="309" y="404" type="line"/>
      <point x="311" y="402"/>
      <point x="311" y="398"/>
      <point x="309" y="396" type="qcurve"/>
      <point x="274" y="361" type="line"/>
      <point x="265" y="352"/>
      <point x="183" y="338"/>
      <point x="170" y="338" type="qcurve"/>
      <point x="119" y="338"/>
      <point x="90" y="368" type="qcurve"/>
      <point x="87" y="371" type="line"/>
      <point x="76" y="365"/>
      <point x="67" y="358" type="qcurve"/>
      <point x="44" y="326"/>
      <point x="44" y="290" type="qcurve"/>
      <point x="44" y="230"/>
      <point x="74" y="189" type="qcurve"/>
      <point x="111" y="161"/>
      <point x="232" y="132"/>
      <point x="322" y="126"/>
      <point x="384" y="126" type="qcurve"/>
      <point x="396" y="126"/>
      <point x="415" y="128" type="qcurve"/>
      <point x="414" y="154"/>
      <point x="412" y="161" type="qcurve"/>
      <point x="409" y="175"/>
      <point x="409" y="192" type="qcurve"/>
      <point x="409" y="208"/>
      <point x="418" y="269"/>
      <point x="418" y="282" type="qcurve"/>
      <point x="426" y="494"/>
      <point x="436" y="578" type="qcurve"/>
      <point x="439" y="598"/>
      <point x="439" y="615" type="qcurve"/>
      <point x="439" y="671"/>
      <point x="411" y="700" type="qcurve"/>
      <point x="405" y="706"/>
      <point x="403" y="716" type="qcurve"/>
      <point x="400" y="715"/>
      <point x="399" y="715" type="qcurve"/>
      <point x="398" y="715"/>
      <point x="398" y="716" type="qcurve"/>
      <point x="387" y="723"/>
    </contour>
    <contour>
      <point x="450" y="816" type="qcurve"/>
      <point x="452" y="816"/>
      <point x="453" y="815" type="qcurve"/>
      <point x="462" y="805" type="line"/>
      <point x="475" y="812"/>
      <point x="493" y="812" type="qcurve"/>
      <point x="501" y="812"/>
      <point x="518" y="813"/>
      <point x="538" y="815"/>
      <point x="544" y="816" type="qcurve"/>
      <point x="547" y="816"/>
      <point x="571" y="819"/>
      <point x="578" y="819" type="qcurve"/>
      <point x="579" y="819"/>
      <point x="580" y="818" type="qcurve"/>
      <point x="615" y="783" type="line"/>
      <point x="616" y="782"/>
      <point x="616" y="780"/>
      <point x="615" y="779" type="qcurve"/>
      <point x="580" y="744" type="line"/>
      <point x="579" y="743"/>
      <point x="578" y="743" type="qcurve"/>
      <point x="572" y="743"/>
      <point x="547" y="740"/>
      <point x="544" y="740" type="qcurve"/>
      <point x="538" y="740"/>
      <point x="518" y="738"/>
      <point x="501" y="736"/>
      <point x="485" y="736"/>
      <point x="478" y="735" type="qcurve"/>
      <point x="477" y="731"/>
      <point x="477" y="727" type="qcurve"/>
      <point x="477" y="712"/>
      <point x="485" y="704" type="qcurve"/>
      <point x="514" y="673"/>
      <point x="514" y="615" type="qcurve"/>
      <point x="514" y="598"/>
      <point x="512" y="578" type="qcurve"/>
      <point x="501" y="493"/>
      <point x="494" y="282" type="qcurve"/>
      <point x="493" y="268"/>
      <point x="484" y="207"/>
      <point x="484" y="176"/>
      <point x="488" y="163" type="qcurve"/>
      <point x="490" y="154"/>
      <point x="491" y="116"/>
      <point x="494" y="107" type="qcurve"/>
      <point x="494" y="106"/>
      <point x="494" y="104" type="qcurve"/>
      <point x="494" y="101"/>
      <point x="492" y="99" type="qcurve"/>
      <point x="456" y="64" type="line"/>
      <point x="443" y="50"/>
      <point x="384" y="50" type="qcurve"/>
      <point x="334" y="50"/>
      <point x="261" y="54"/>
      <point x="160" y="69"/>
      <point x="78" y="104"/>
      <point x="51" y="131" type="qcurve"/>
      <point x="16" y="167" type="line"/>
      <point x="-32" y="214"/>
      <point x="-32" y="290" type="qcurve"/>
      <point x="-32" y="340"/>
      <point x="8" y="380" type="qcurve"/>
      <point x="9" y="380"/>
      <point x="36" y="408"/>
      <point x="44" y="415" type="qcurve"/>
      <point x="26" y="438"/>
      <point x="10" y="481" type="qcurve"/>
      <point x="-7" y="527"/>
      <point x="-7" y="566" type="qcurve"/>
      <point x="-7" y="631"/>
      <point x="39" y="677" type="qcurve"/>
      <point x="75" y="712" type="line"/>
      <point x="90" y="728"/>
      <point x="110" y="740" type="qcurve"/>
      <point x="1" y="743" type="line"/>
      <point x="0" y="743"/>
      <point x="-1" y="744" type="qcurve"/>
      <point x="-36" y="779" type="line"/>
      <point x="-37" y="780"/>
      <point x="-37" y="782"/>
      <point x="-36" y="783" type="qcurve"/>
      <point x="-1" y="818" type="line"/>
      <point x="0" y="819"/>
      <point x="1" y="819" type="qcurve"/>
      <point x="200" y="814" type="line"/>
      <point x="296" y="815" type="line"/>
      <point x="311" y="816"/>
      <point x="323" y="816" type="qcurve"/>
      <point x="343" y="816"/>
      <point x="369" y="813" type="qcurve"/>
      <point x="387" y="811"/>
      <point x="398" y="811" type="qcurve"/>
      <point x="418" y="811"/>
      <point x="448" y="816" type="qcurve"/>
      <point x="449" y="816"/>
    </contour>
    <contour>
      <point x="398" y="806" type="qcurve"/>
      <point x="384" y="806"/>
      <point x="340" y="811"/>
      <point x="323" y="811" type="qcurve"/>
      <point x="311" y="811"/>
      <point x="296" y="810" type="qcurve"/>
      <point x="200" y="809" type="line"/>
      <point x="2" y="814" type="line"/>
      <point x="-31" y="781" type="line"/>
      <point x="2" y="748" type="line"/>
      <point x="118" y="745" type="line"/>
      <point x="121" y="745"/>
      <point x="121" y="743" type="qcurve"/>
      <point x="121" y="741"/>
      <point x="120" y="741" type="qcurve"/>
      <point x="96" y="726"/>
      <point x="78" y="709" type="qcurve"/>
      <point x="43" y="673" type="line"/>
      <point x="-2" y="629"/>
      <point x="-2" y="566" type="qcurve"/>
      <point x="-2" y="528"/>
      <point x="15" y="483" type="qcurve"/>
      <point x="31" y="439"/>
      <point x="49" y="417" type="qcurve"/>
      <point x="50" y="416"/>
      <point x="50" y="414"/>
      <point x="48" y="412"/>
      <point x="12" y="376" type="qcurve"/>
      <point x="-27" y="338"/>
      <point x="-27" y="290" type="qcurve"/>
      <point x="-27" y="216"/>
      <point x="19" y="170" type="qcurve"/>
      <point x="55" y="135" type="line"/>
      <point x="81" y="108"/>
      <point x="161" y="74"/>
      <point x="261" y="59"/>
      <point x="335" y="55"/>
      <point x="384" y="55" type="qcurve"/>
      <point x="397" y="55"/>
      <point x="447" y="62"/>
      <point x="453" y="67" type="qcurve"/>
      <point x="488" y="103" type="line"/>
      <point x="489" y="104"/>
      <point x="489" y="104" type="qcurve"/>
      <point x="489" y="105"/>
      <point x="489" y="105" type="qcurve"/>
      <point x="486" y="115"/>
      <point x="485" y="152"/>
      <point x="483" y="161" type="qcurve"/>
      <point x="479" y="175"/>
      <point x="479" y="192" type="qcurve"/>
      <point x="479" y="208"/>
      <point x="488" y="269"/>
      <point x="489" y="282" type="qcurve"/>
      <point x="496" y="494"/>
      <point x="507" y="578" type="qcurve"/>
      <point x="509" y="598"/>
      <point x="509" y="615" type="qcurve"/>
      <point x="509" y="671"/>
      <point x="482" y="700" type="qcurve"/>
      <point x="472" y="710"/>
      <point x="472" y="727" type="qcurve"/>
      <point x="472" y="739"/>
      <point x="475" y="739" type="qcurve"/>
      <point x="483" y="741"/>
      <point x="493" y="741" type="qcurve"/>
      <point x="501" y="741"/>
      <point x="518" y="743"/>
      <point x="538" y="745"/>
      <point x="544" y="745" type="qcurve"/>
      <point x="547" y="745"/>
      <point x="570" y="748"/>
      <point x="577" y="748" type="qcurve"/>
      <point x="610" y="781" type="line"/>
      <point x="577" y="814" type="line"/>
      <point x="571" y="814"/>
      <point x="547" y="811"/>
      <point x="544" y="811" type="qcurve"/>
      <point x="538" y="810"/>
      <point x="518" y="808"/>
      <point x="501" y="807"/>
      <point x="493" y="807" type="qcurve"/>
      <point x="475" y="807"/>
      <point x="463" y="800" type="qcurve"/>
      <point x="463" y="800"/>
      <point x="462" y="800" type="qcurve"/>
      <point x="461" y="800"/>
      <point x="460" y="800" type="qcurve"/>
      <point x="450" y="811" type="line"/>
      <point x="449" y="811"/>
      <point x="448" y="811" type="qcurve"/>
      <point x="419" y="806"/>
    </contour>
  </outline>
</glyph>
<glyph name="uni099A" format="2">
  <advance width="560"/>
  <unicode hex="099A"/>
  <outline>
    <contour>
      <point x="542" y="836" type="qcurve"/>
      <point x="549" y="836"/>
      <point x="553" y="832" type="qcurve"/>
      <point x="589" y="796" type="line"/>
      <point x="593" y="792"/>
      <point x="597" y="782" type="qcurve"/>
      <point x="597" y="781"/>
      <point x="597" y="781" type="qcurve"/>
      <point x="597" y="780"/>
      <point x="596" y="779" type="qcurve"/>
      <point x="561" y="744" type="line"/>
      <point x="560" y="743"/>
      <point x="558" y="743"/>
      <point x="557" y="744" type="qcurve"/>
      <point x="541" y="760" type="line"/>
      <point x="539" y="760"/>
      <point x="536" y="759" type="qcurve"/>
      <point x="525" y="756"/>
      <point x="502" y="754"/>
      <point x="472" y="754"/>
      <point x="463" y="753" type="qcurve"/>
      <point x="289" y="743" type="line"/>
      <point x="288" y="743"/>
      <point x="287" y="744" type="qcurve"/>
      <point x="252" y="779" type="line"/>
      <point x="251" y="780"/>
      <point x="251" y="782"/>
      <point x="252" y="783" type="qcurve"/>
      <point x="287" y="818" type="line"/>
      <point x="288" y="819"/>
      <point x="289" y="819" type="qcurve"/>
      <point x="463" y="829" type="line"/>
      <point x="472" y="830"/>
      <point x="501" y="830"/>
      <point x="524" y="832"/>
      <point x="534" y="835" type="qcurve"/>
      <point x="539" y="836"/>
    </contour>
    <contour>
      <point x="542" y="831" type="qcurve"/>
      <point x="539" y="831"/>
      <point x="536" y="830" type="qcurve"/>
      <point x="525" y="827"/>
      <point x="502" y="825"/>
      <point x="472" y="825"/>
      <point x="463" y="824" type="qcurve"/>
      <point x="290" y="814" type="line"/>
      <point x="257" y="781" type="line"/>
      <point x="290" y="748" type="line"/>
      <point x="463" y="758" type="line"/>
      <point x="472" y="759"/>
      <point x="501" y="759"/>
      <point x="524" y="761"/>
      <point x="534" y="764" type="qcurve"/>
      <point x="538" y="765"/>
      <point x="542" y="765" type="qcurve"/>
      <point x="543" y="765"/>
      <point x="544" y="765" type="qcurve"/>
      <point x="559" y="749" type="line"/>
      <point x="591" y="782" type="line"/>
      <point x="588" y="790"/>
      <point x="585" y="793" type="qcurve"/>
      <point x="550" y="828" type="line"/>
      <point x="547" y="831"/>
    </contour>
    <contour>
      <point x="289" y="783" type="qcurve"/>
      <point x="289" y="781"/>
      <point x="275" y="762" type="qcurve"/>
      <point x="279" y="675" type="line"/>
      <point x="273" y="569" type="line"/>
      <point x="263" y="491" type="line"/>
      <point x="263" y="490" type="line"/>
      <point x="261" y="484"/>
      <point x="256" y="446" type="qcurve"/>
      <point x="260" y="446"/>
      <point x="264" y="446" type="qcurve"/>
      <point x="329" y="446"/>
      <point x="364" y="411" type="qcurve"/>
      <point x="400" y="375"/>
      <point x="400" y="375" type="qcurve"/>
      <point x="450" y="323"/>
      <point x="463" y="207" type="qcurve"/>
      <point x="464" y="198"/>
      <point x="464" y="190" type="qcurve"/>
      <point x="464" y="144"/>
      <point x="435" y="114" type="qcurve"/>
      <point x="399" y="79" type="line"/>
      <point x="365" y="44"/>
      <point x="302" y="44" type="qcurve"/>
      <point x="293" y="44"/>
      <point x="283" y="45" type="qcurve"/>
      <point x="262" y="47"/>
      <point x="248" y="60" type="qcurve"/>
      <point x="213" y="96" type="line"/>
      <point x="203" y="106"/>
      <point x="191" y="144"/>
      <point x="188" y="171"/>
      <point x="187" y="197" type="qcurve"/>
      <point x="184" y="248"/>
      <point x="177" y="266" type="qcurve"/>
      <point x="166" y="295"/>
      <point x="166" y="333" type="qcurve"/>
      <point x="166" y="360"/>
      <point x="173" y="402" type="qcurve"/>
      <point x="168" y="407" type="line"/>
      <point x="167" y="408"/>
      <point x="167" y="410"/>
      <point x="169" y="411"/>
      <point x="174" y="417"/>
      <point x="175" y="418" type="qcurve"/>
      <point x="180" y="445"/>
      <point x="181" y="458" type="qcurve"/>
      <point x="184" y="481"/>
      <point x="187" y="492" type="qcurve"/>
      <point x="197" y="569" type="line"/>
      <point x="203" y="675" type="line"/>
      <point x="200" y="736" type="line"/>
      <point x="180" y="731"/>
      <point x="153" y="731" type="qcurve"/>
      <point x="129" y="731"/>
      <point x="40" y="742"/>
      <point x="23" y="743" type="qcurve"/>
      <point x="21" y="743"/>
      <point x="19" y="743" type="qcurve"/>
      <point x="18" y="743"/>
      <point x="12" y="743"/>
      <point x="11" y="743" type="qcurve"/>
      <point x="10" y="743"/>
      <point x="9" y="744" type="qcurve"/>
      <point x="-26" y="779" type="line"/>
      <point x="-27" y="780"/>
      <point x="-27" y="782"/>
      <point x="-26" y="783" type="qcurve"/>
      <point x="9" y="818" type="line"/>
      <point x="10" y="819"/>
      <point x="19" y="819" type="qcurve"/>
      <point x="21" y="819"/>
      <point x="23" y="819" type="qcurve"/>
      <point x="40" y="818"/>
      <point x="129" y="806"/>
      <point x="153" y="806" type="qcurve"/>
      <point x="171" y="806"/>
      <point x="187" y="809" type="qcurve"/>
      <point x="193" y="810"/>
      <point x="236" y="823"/>
      <point x="247" y="823" type="qcurve"/>
      <point x="248" y="823"/>
      <point x="251" y="823"/>
      <point x="251" y="823" type="qcurve"/>
      <point x="252" y="823"/>
      <point x="253" y="822" type="qcurve"/>
      <point x="289" y="787" type="line"/>
      <point x="289" y="786"/>
      <point x="289" y="785" type="qcurve"/>
      <point x="289" y="784"/>
      <point x="289" y="783"/>
    </contour>
    <contour>
      <point x="12" y="748" type="line"/>
      <point x="13" y="748"/>
      <point x="18" y="748"/>
      <point x="19" y="748" type="qcurve"/>
      <point x="21" y="748"/>
      <point x="23" y="748" type="qcurve"/>
      <point x="40" y="747"/>
      <point x="129" y="736"/>
      <point x="153" y="736" type="qcurve"/>
      <point x="181" y="736"/>
      <point x="202" y="742" type="qcurve"/>
      <point x="202" y="742"/>
      <point x="203" y="742" type="qcurve"/>
      <point x="205" y="742"/>
      <point x="205" y="739" type="qcurve"/>
      <point x="208" y="675" type="line"/>
      <point x="202" y="569" type="line"/>
      <point x="192" y="491" type="line"/>
      <point x="192" y="490" type="line"/>
      <point x="189" y="480"/>
      <point x="186" y="458" type="qcurve"/>
      <point x="185" y="444"/>
      <point x="180" y="417" type="qcurve"/>
      <point x="180" y="416"/>
      <point x="179" y="415" type="qcurve"/>
      <point x="173" y="409" type="line"/>
      <point x="177" y="405" type="line"/>
      <point x="178" y="404"/>
      <point x="178" y="403" type="qcurve"/>
      <point x="171" y="360"/>
      <point x="171" y="333" type="qcurve"/>
      <point x="171" y="296"/>
      <point x="182" y="268" type="qcurve"/>
      <point x="189" y="249"/>
      <point x="192" y="197" type="qcurve"/>
      <point x="193" y="172"/>
      <point x="196" y="144"/>
      <point x="207" y="109"/>
      <point x="217" y="99" type="qcurve"/>
      <point x="252" y="64" type="line"/>
      <point x="264" y="52"/>
      <point x="283" y="50" type="qcurve"/>
      <point x="293" y="49"/>
      <point x="302" y="49" type="qcurve"/>
      <point x="362" y="49"/>
      <point x="396" y="83" type="qcurve"/>
      <point x="431" y="118" type="line"/>
      <point x="459" y="146"/>
      <point x="459" y="190" type="qcurve"/>
      <point x="459" y="198"/>
      <point x="458" y="207" type="qcurve"/>
      <point x="445" y="321"/>
      <point x="397" y="371" type="qcurve"/>
      <point x="396" y="372"/>
      <point x="360" y="408" type="qcurve"/>
      <point x="327" y="441"/>
      <point x="264" y="441" type="qcurve"/>
      <point x="262" y="441"/>
      <point x="254" y="441"/>
      <point x="253" y="441" type="qcurve"/>
      <point x="250" y="441"/>
      <point x="250" y="443" type="qcurve"/>
      <point x="250" y="443"/>
      <point x="250" y="444" type="qcurve"/>
      <point x="257" y="488"/>
      <point x="258" y="492" type="qcurve"/>
      <point x="268" y="569" type="line"/>
      <point x="274" y="675" type="line"/>
      <point x="270" y="763" type="line"/>
      <point x="270" y="764"/>
      <point x="270" y="764" type="qcurve"/>
      <point x="273" y="769"/>
      <point x="284" y="784" type="qcurve"/>
      <point x="250" y="818" type="line"/>
      <point x="249" y="818"/>
      <point x="247" y="818" type="qcurve"/>
      <point x="237" y="818"/>
      <point x="194" y="805"/>
      <point x="187" y="804" type="qcurve"/>
      <point x="171" y="801"/>
      <point x="153" y="801" type="qcurve"/>
      <point x="129" y="801"/>
      <point x="40" y="813"/>
      <point x="23" y="814" type="qcurve"/>
      <point x="21" y="814"/>
      <point x="19" y="814" type="qcurve"/>
      <point x="18" y="814"/>
      <point x="13" y="814"/>
      <point x="12" y="814" type="qcurve"/>
      <point x="-21" y="781" type="line"/>
    </contour>
    <contour>
      <point x="237" y="333" type="qcurve"/>
      <point x="237" y="350"/>
      <point x="239" y="372" type="qcurve"/>
      <point x="239" y="374"/>
      <point x="242" y="374" type="qcurve"/>
      <point x="242" y="374"/>
      <point x="243" y="374" type="qcurve"/>
      <point x="253" y="375"/>
      <point x="264" y="375" type="qcurve"/>
      <point x="312" y="375"/>
      <point x="345" y="355" type="qcurve"/>
      <point x="346" y="354"/>
      <point x="346" y="354" type="qcurve"/>
      <point x="381" y="303"/>
      <point x="392" y="207" type="qcurve"/>
      <point x="393" y="198"/>
      <point x="393" y="190" type="qcurve"/>
      <point x="393" y="159"/>
      <point x="379" y="135" type="qcurve"/>
      <point x="379" y="134"/>
      <point x="379" y="134" type="qcurve"/>
      <point x="347" y="115"/>
      <point x="302" y="115" type="qcurve"/>
      <point x="282" y="115"/>
      <point x="271" y="118" type="qcurve"/>
      <point x="269" y="118"/>
      <point x="269" y="120" type="qcurve"/>
      <point x="261" y="142"/>
      <point x="258" y="197" type="qcurve"/>
      <point x="255" y="248"/>
      <point x="248" y="266" type="qcurve"/>
      <point x="237" y="295"/>
    </contour>
    <contour>
      <point x="242" y="333" type="qcurve"/>
      <point x="242" y="296"/>
      <point x="253" y="268" type="qcurve"/>
      <point x="260" y="249"/>
      <point x="263" y="197" type="qcurve"/>
      <point x="266" y="144"/>
      <point x="273" y="123" type="qcurve"/>
      <point x="284" y="120"/>
      <point x="302" y="120" type="qcurve"/>
      <point x="345" y="120"/>
      <point x="375" y="138" type="qcurve"/>
      <point x="388" y="160"/>
      <point x="388" y="190" type="qcurve"/>
      <point x="388" y="198"/>
      <point x="387" y="207" type="qcurve"/>
      <point x="377" y="300"/>
      <point x="342" y="351" type="qcurve"/>
      <point x="310" y="370"/>
      <point x="264" y="370" type="qcurve"/>
      <point x="254" y="370"/>
      <point x="244" y="369" type="qcurve"/>
      <point x="242" y="349"/>
    </contour>
  </outline>
</glyph>
<glyph name="uni09A2" format="2">
  <advance width="512"/>
  <unicode hex="09A2"/>
  <outline>
    <contour>
      <point x="224" y="777"/>
      <point x="224" y="779"/>
      <point x="225" y="780" type="qcurve"/>
      <point x="260" y="815" type="line"/>
      <point x="261" y="816"/>
      <point x="262" y="816" type="qcurve"/>
      <point x="418" y="812" type="line"/>
      <point x="496" y="816" type="line"/>
      <point x="513" y="820" type="line"/>
      <point x="513" y="820"/>
      <point x="514" y="820" type="qcurve"/>
      <point x="515" y="820"/>
      <point x="516" y="819" type="qcurve"/>
      <point x="551" y="784" type="line"/>
      <point x="552" y="783"/>
      <point x="552" y="781"/>
      <point x="551" y="780" type="qcurve"/>
      <point x="516" y="745" type="line"/>
      <point x="515" y="744"/>
      <point x="515" y="744" type="qcurve"/>
      <point x="497" y="740" type="line"/>
      <point x="496" y="740"/>
      <point x="496" y="740" type="qcurve"/>
      <point x="418" y="736" type="line"/>
      <point x="262" y="740" type="line"/>
      <point x="261" y="740"/>
      <point x="260" y="741" type="qcurve"/>
      <point x="225" y="776" type="line"/>
    </contour>
    <contour>
      <point x="418" y="807" type="line"/>
      <point x="263" y="811" type="line"/>
      <point x="230" y="778" type="line"/>
      <point x="263" y="745" type="line"/>
      <point x="418" y="741" type="line"/>
      <point x="496" y="745" type="line"/>
      <point x="513" y="749" type="line"/>
      <point x="546" y="782" type="line"/>
      <point x="513" y="815" type="line"/>
      <point x="497" y="811" type="line"/>
      <point x="496" y="811"/>
      <point x="496" y="811" type="qcurve"/>
    </contour>
    <contour>
      <point x="0" y="744" type="line"/>
      <point x="-1" y="744"/>
      <point x="-2" y="745" type="qcurve"/>
      <point x="-37" y="780" type="line"/>
      <point x="-38" y="781"/>
      <point x="-38" y="783"/>
      <point x="-37" y="784" type="qcurve"/>
      <point x="-2" y="819" type="line"/>
      <point x="-1" y="820"/>
      <point x="0" y="820" type="qcurve"/>
      <point x="8" y="820" type="line"/>
      <point x="62" y="814"/>
      <point x="129" y="814" type="qcurve"/>
      <point x="142" y="814"/>
      <point x="158" y="814" type="qcurve"/>
      <point x="187" y="823"/>
      <point x="205" y="823" type="qcurve"/>
      <point x="222" y="823"/>
      <point x="229" y="815" type="qcurve"/>
      <point x="265" y="780" type="line"/>
      <point x="271" y="773"/>
      <point x="271" y="761" type="qcurve"/>
      <point x="271" y="743"/>
      <point x="249" y="691" type="qcurve"/>
      <point x="227" y="638"/>
      <point x="226" y="618" type="qcurve"/>
      <point x="226" y="617" type="line"/>
      <point x="219" y="591"/>
      <point x="212" y="492"/>
      <point x="208" y="470" type="qcurve"/>
      <point x="194" y="398"/>
      <point x="194" y="318" type="qcurve"/>
      <point x="194" y="194"/>
      <point x="225" y="140" type="qcurve"/>
      <point x="242" y="132"/>
      <point x="262" y="132" type="qcurve"/>
      <point x="298" y="132"/>
      <point x="326" y="149" type="qcurve"/>
      <point x="351" y="188"/>
      <point x="354" y="246" type="qcurve"/>
      <point x="332" y="224" type="line"/>
      <point x="326" y="218"/>
      <point x="317" y="218" type="qcurve"/>
      <point x="314" y="218"/>
      <point x="312" y="218" type="qcurve"/>
      <point x="288" y="218"/>
      <point x="279" y="228" type="qcurve"/>
      <point x="243" y="263" type="line"/>
      <point x="236" y="270"/>
      <point x="236" y="282" type="qcurve"/>
      <point x="236" y="330"/>
      <point x="256" y="350" type="qcurve"/>
      <point x="292" y="385" type="line"/>
      <point x="300" y="394"/>
      <point x="312" y="394" type="qcurve"/>
      <point x="339" y="394"/>
      <point x="361" y="371" type="qcurve"/>
      <point x="397" y="336" type="line"/>
      <point x="430" y="303"/>
      <point x="430" y="258" type="qcurve"/>
      <point x="430" y="171"/>
      <point x="384" y="126" type="qcurve"/>
      <point x="349" y="90" type="line"/>
      <point x="315" y="56"/>
      <point x="262" y="56" type="qcurve"/>
      <point x="227" y="56"/>
      <point x="203" y="80" type="qcurve"/>
      <point x="167" y="116" type="line"/>
      <point x="118" y="165"/>
      <point x="118" y="318" type="qcurve"/>
      <point x="118" y="399"/>
      <point x="132" y="470" type="qcurve"/>
      <point x="137" y="493"/>
      <point x="143" y="592"/>
      <point x="150" y="618" type="qcurve"/>
      <point x="152" y="639"/>
      <point x="190" y="733"/>
      <point x="194" y="746" type="qcurve"/>
      <point x="179" y="744"/>
      <point x="159" y="738" type="qcurve"/>
      <point x="158" y="738"/>
      <point x="158" y="738" type="qcurve"/>
      <point x="143" y="738"/>
      <point x="129" y="738" type="qcurve"/>
      <point x="61" y="738"/>
      <point x="8" y="744" type="qcurve"/>
    </contour>
    <contour>
      <point x="312" y="223" type="qcurve"/>
      <point x="313" y="223"/>
      <point x="316" y="223"/>
      <point x="317" y="223" type="qcurve"/>
      <point x="324" y="223"/>
      <point x="329" y="228" type="qcurve"/>
      <point x="355" y="254" type="line"/>
      <point x="356" y="255"/>
      <point x="357" y="255" type="qcurve"/>
      <point x="359" y="255"/>
      <point x="359" y="252" type="qcurve"/>
      <point x="358" y="188"/>
      <point x="330" y="146" type="qcurve"/>
      <point x="329" y="145"/>
      <point x="329" y="145" type="qcurve"/>
      <point x="300" y="127"/>
      <point x="262" y="127" type="qcurve"/>
      <point x="240" y="127"/>
      <point x="222" y="136" type="qcurve"/>
      <point x="222" y="136"/>
      <point x="221" y="137" type="qcurve"/>
      <point x="189" y="192"/>
      <point x="189" y="318" type="qcurve"/>
      <point x="189" y="399"/>
      <point x="203" y="470" type="qcurve"/>
      <point x="207" y="493"/>
      <point x="214" y="592"/>
      <point x="221" y="618" type="qcurve"/>
      <point x="222" y="640"/>
      <point x="245" y="693" type="qcurve"/>
      <point x="266" y="744"/>
      <point x="266" y="761" type="qcurve"/>
      <point x="266" y="771"/>
      <point x="261" y="776" type="qcurve"/>
      <point x="226" y="812" type="line"/>
      <point x="219" y="818"/>
      <point x="205" y="818" type="qcurve"/>
      <point x="188" y="818"/>
      <point x="159" y="809" type="qcurve"/>
      <point x="158" y="809"/>
      <point x="158" y="809" type="qcurve"/>
      <point x="143" y="809"/>
      <point x="129" y="809" type="qcurve"/>
      <point x="61" y="809"/>
      <point x="8" y="815" type="qcurve"/>
      <point x="1" y="815" type="line"/>
      <point x="-32" y="782" type="line"/>
      <point x="1" y="749" type="line"/>
      <point x="8" y="749" type="line"/>
      <point x="62" y="743"/>
      <point x="129" y="743" type="qcurve"/>
      <point x="142" y="743"/>
      <point x="158" y="743" type="qcurve"/>
      <point x="181" y="750"/>
      <point x="196" y="752" type="qcurve"/>
      <point x="197" y="752"/>
      <point x="197" y="752" type="qcurve"/>
      <point x="199" y="752"/>
      <point x="199" y="749" type="qcurve"/>
      <point x="196" y="733"/>
      <point x="156" y="638"/>
      <point x="155" y="618" type="qcurve"/>
      <point x="155" y="617" type="line"/>
      <point x="148" y="591"/>
      <point x="141" y="492"/>
      <point x="137" y="470" type="qcurve"/>
      <point x="123" y="398"/>
      <point x="123" y="318" type="qcurve"/>
      <point x="123" y="167"/>
      <point x="171" y="119" type="qcurve"/>
      <point x="206" y="84" type="line"/>
      <point x="229" y="61"/>
      <point x="262" y="61" type="qcurve"/>
      <point x="312" y="61"/>
      <point x="345" y="94" type="qcurve"/>
      <point x="380" y="129" type="line"/>
      <point x="425" y="174"/>
      <point x="425" y="258" type="qcurve"/>
      <point x="425" y="301"/>
      <point x="393" y="332" type="qcurve"/>
      <point x="358" y="368" type="line"/>
      <point x="337" y="389"/>
      <point x="312" y="389" type="qcurve"/>
      <point x="302" y="389"/>
      <point x="295" y="382" type="qcurve"/>
      <point x="260" y="346" type="line"/>
      <point x="241" y="328"/>
      <point x="241" y="282" type="qcurve"/>
      <point x="241" y="272"/>
      <point x="247" y="267" type="qcurve"/>
      <point x="282" y="231" type="line"/>
      <point x="290" y="223"/>
    </contour>
    <contour>
      <point x="312" y="289" type="qcurve"/>
      <point x="307" y="289"/>
      <point x="307" y="291" type="qcurve"/>
      <point x="307" y="291"/>
      <point x="307" y="292" type="qcurve"/>
      <point x="308" y="308"/>
      <point x="312" y="321" type="qcurve"/>
      <point x="313" y="323"/>
      <point x="315" y="323" type="qcurve"/>
      <point x="326" y="323"/>
      <point x="337" y="318" type="qcurve"/>
      <point x="339" y="317"/>
      <point x="339" y="315" type="qcurve"/>
      <point x="339" y="314"/>
      <point x="338" y="314" type="qcurve"/>
      <point x="314" y="290" type="line"/>
      <point x="313" y="289"/>
    </contour>
    <contour>
      <point x="332" y="315" type="line"/>
      <point x="324" y="317"/>
      <point x="316" y="318" type="qcurve"/>
      <point x="314" y="307"/>
      <point x="313" y="295" type="qcurve"/>
    </contour>
  </outline>
</glyph>
<glyph name="uni09A3" format="2">
  <advance width="554"/>
  <unicode hex="09A3"/>
  <outline>
    <contour>
      <point x="297" y="239" type="qcurve"/>
      <point x="297" y="250"/>
      <point x="296" y="291"/>
      <point x="296" y="301" type="qcurve"/>
      <point x="296" y="308"/>
      <point x="296" y="314" type="qcurve"/>
      <point x="299" y="508"/>
      <point x="342" y="630" type="qcurve"/>
      <point x="330" y="716"/>
      <point x="308" y="756" type="qcurve"/>
      <point x="298" y="760"/>
      <point x="288" y="760" type="qcurve"/>
      <point x="268" y="760"/>
      <point x="248" y="747" type="qcurve"/>
      <point x="228" y="720"/>
      <point x="214" y="689" type="qcurve"/>
      <point x="236" y="650"/>
      <point x="236" y="612" type="qcurve"/>
      <point x="236" y="601"/>
      <point x="213" y="531"/>
      <point x="204" y="522" type="qcurve"/>
      <point x="168" y="486" type="line"/>
      <point x="166" y="484"/>
      <point x="163" y="484" type="qcurve"/>
      <point x="161" y="484"/>
      <point x="159" y="485" type="qcurve"/>
      <point x="124" y="521" type="line"/>
      <point x="123" y="521"/>
      <point x="119" y="530" type="qcurve"/>
      <point x="108" y="552"/>
      <point x="108" y="567" type="qcurve"/>
      <point x="108" y="571"/>
      <point x="108" y="576" type="qcurve"/>
      <point x="117" y="638"/>
      <point x="138" y="689" type="qcurve"/>
      <point x="134" y="696"/>
      <point x="128" y="704" type="qcurve"/>
      <point x="78" y="740"/>
      <point x="6" y="740" type="qcurve"/>
      <point x="0" y="740" type="line"/>
      <point x="-1" y="740"/>
      <point x="-2" y="741" type="qcurve"/>
      <point x="-37" y="776" type="line"/>
      <point x="-38" y="777"/>
      <point x="-38" y="779"/>
      <point x="-37" y="780" type="qcurve"/>
      <point x="-2" y="815" type="line"/>
      <point x="-1" y="816"/>
      <point x="0" y="816" type="qcurve"/>
      <point x="0" y="816"/>
      <point x="6" y="816" type="qcurve"/>
      <point x="97" y="816"/>
      <point x="151" y="762" type="qcurve"/>
      <point x="169" y="744" type="line"/>
      <point x="180" y="761"/>
      <point x="190" y="771" type="qcurve"/>
      <point x="226" y="806" type="line"/>
      <point x="248" y="828"/>
      <point x="273" y="834" type="qcurve"/>
      <point x="281" y="835"/>
      <point x="288" y="835" type="qcurve"/>
      <point x="312" y="835"/>
      <point x="330" y="817" type="qcurve"/>
      <point x="366" y="782" type="line"/>
      <point x="382" y="765"/>
      <point x="394" y="734" type="qcurve"/>
      <point x="432" y="783"/>
      <point x="437" y="788" type="qcurve"/>
      <point x="472" y="823" type="line"/>
      <point x="473" y="824"/>
      <point x="474" y="824" type="qcurve"/>
      <point x="556" y="819" type="line"/>
      <point x="557" y="819"/>
      <point x="558" y="818" type="qcurve"/>
      <point x="593" y="783" type="line"/>
      <point x="594" y="782"/>
      <point x="594" y="780"/>
      <point x="593" y="779" type="qcurve"/>
      <point x="558" y="744" type="line"/>
      <point x="557" y="743"/>
      <point x="556" y="743" type="qcurve"/>
      <point x="482" y="748" type="line"/>
      <point x="455" y="713"/>
      <point x="452" y="707" type="qcurve"/>
      <point x="432" y="671"/>
      <point x="418" y="629" type="qcurve"/>
      <point x="440" y="467"/>
      <point x="440" y="308" type="qcurve"/>
      <point x="440" y="217"/>
      <point x="430" y="160" type="qcurve"/>
      <point x="429" y="154"/>
      <point x="425" y="117"/>
      <point x="419" y="96"/>
      <point x="412" y="89" type="qcurve"/>
      <point x="377" y="54" type="line"/>
      <point x="371" y="48"/>
      <point x="363" y="48" type="qcurve"/>
      <point x="349" y="48"/>
      <point x="339" y="57" type="qcurve"/>
      <point x="304" y="93" type="line"/>
      <point x="290" y="107"/>
      <point x="290" y="141" type="qcurve"/>
      <point x="290" y="156"/>
      <point x="292" y="170" type="qcurve"/>
      <point x="297" y="198"/>
    </contour>
    <contour>
      <point x="301" y="301" type="qcurve"/>
      <point x="301" y="291"/>
      <point x="302" y="250"/>
      <point x="302" y="239" type="qcurve"/>
      <point x="302" y="198"/>
      <point x="297" y="170" type="qcurve"/>
      <point x="295" y="155"/>
      <point x="295" y="141" type="qcurve"/>
      <point x="295" y="109"/>
      <point x="308" y="96" type="qcurve"/>
      <point x="343" y="61" type="line"/>
      <point x="351" y="53"/>
      <point x="363" y="53" type="qcurve"/>
      <point x="369" y="53"/>
      <point x="373" y="57" type="qcurve"/>
      <point x="408" y="93" type="line"/>
      <point x="414" y="98"/>
      <point x="420" y="119"/>
      <point x="424" y="155"/>
      <point x="425" y="160" type="qcurve"/>
      <point x="435" y="218"/>
      <point x="435" y="308" type="qcurve"/>
      <point x="435" y="467"/>
      <point x="413" y="629" type="qcurve"/>
      <point x="413" y="629"/>
      <point x="413" y="630" type="qcurve"/>
      <point x="427" y="672"/>
      <point x="447" y="709" type="qcurve"/>
      <point x="451" y="716"/>
      <point x="479" y="752" type="qcurve"/>
      <point x="480" y="753"/>
      <point x="481" y="753" type="qcurve"/>
      <point x="555" y="748" type="line"/>
      <point x="588" y="781" type="line"/>
      <point x="555" y="814" type="line"/>
      <point x="475" y="819" type="line"/>
      <point x="441" y="784" type="line"/>
      <point x="413" y="750"/>
      <point x="395" y="727" type="qcurve"/>
      <point x="395" y="726"/>
      <point x="393" y="726" type="qcurve"/>
      <point x="392" y="726"/>
      <point x="391" y="728" type="qcurve"/>
      <point x="379" y="761"/>
      <point x="362" y="778" type="qcurve"/>
      <point x="327" y="813" type="line"/>
      <point x="310" y="830"/>
      <point x="288" y="830" type="qcurve"/>
      <point x="281" y="830"/>
      <point x="275" y="829" type="qcurve"/>
      <point x="250" y="824"/>
      <point x="229" y="802" type="qcurve"/>
      <point x="194" y="767" type="line"/>
      <point x="183" y="757"/>
      <point x="171" y="739" type="qcurve"/>
      <point x="170" y="738"/>
      <point x="169" y="738" type="qcurve"/>
      <point x="168" y="738"/>
      <point x="167" y="738" type="qcurve"/>
      <point x="148" y="758" type="line"/>
      <point x="95" y="811"/>
      <point x="6" y="811" type="qcurve"/>
      <point x="1" y="811" type="line"/>
      <point x="-32" y="778" type="line"/>
      <point x="1" y="745" type="line"/>
      <point x="6" y="745" type="line"/>
      <point x="80" y="745"/>
      <point x="132" y="708" type="qcurve"/>
      <point x="132" y="707"/>
      <point x="132" y="707" type="qcurve"/>
      <point x="138" y="699"/>
      <point x="143" y="690" type="qcurve"/>
      <point x="143" y="689"/>
      <point x="143" y="688"/>
      <point x="143" y="688" type="qcurve"/>
      <point x="122" y="638"/>
      <point x="113" y="576" type="qcurve"/>
      <point x="113" y="571"/>
      <point x="113" y="567" type="qcurve"/>
      <point x="113" y="553"/>
      <point x="123" y="532" type="qcurve"/>
      <point x="127" y="524"/>
      <point x="128" y="524" type="qcurve"/>
      <point x="163" y="489" type="line"/>
      <point x="164" y="489"/>
      <point x="165" y="490" type="qcurve"/>
      <point x="200" y="525" type="line"/>
      <point x="208" y="533"/>
      <point x="231" y="603"/>
      <point x="231" y="612" type="qcurve"/>
      <point x="231" y="650"/>
      <point x="210" y="688" type="qcurve"/>
      <point x="209" y="688"/>
      <point x="209" y="689"/>
      <point x="209" y="690" type="qcurve"/>
      <point x="224" y="723"/>
      <point x="244" y="750" type="qcurve"/>
      <point x="244" y="750"/>
      <point x="244" y="751" type="qcurve"/>
      <point x="266" y="765"/>
      <point x="288" y="765" type="qcurve"/>
      <point x="300" y="765"/>
      <point x="311" y="760" type="qcurve"/>
      <point x="311" y="760"/>
      <point x="312" y="759" type="qcurve"/>
      <point x="335" y="719"/>
      <point x="347" y="630" type="qcurve"/>
      <point x="347" y="629"/>
      <point x="347" y="629" type="qcurve"/>
      <point x="304" y="508"/>
      <point x="301" y="314" type="qcurve"/>
      <point x="301" y="308"/>
    </contour>
  </outline>
</glyph>
<glyph name="uni09A6" format="2">
  <advance width="472"/>
  <unicode hex="09A6"/>
  <outline>
    <contour>
      <point x="234" y="781"/>
      <point x="234" y="783"/>
      <point x="235" y="784" type="qcurve"/>
      <point x="270" y="819" type="line"/>
      <point x="271" y="820"/>
      <point x="272" y="820" type="qcurve"/>
      <point x="272" y="820"/>
      <point x="478" y="822" type="qcurve"/>
      <point x="479" y="822"/>
      <point x="480" y="821" type="qcurve"/>
      <point x="515" y="786" type="line"/>
      <point x="516" y="785"/>
      <point x="516" y="783"/>
      <point x="515" y="782" type="qcurve"/>
      <point x="480" y="747" type="line"/>
      <point x="479" y="746"/>
      <point x="478" y="746" type="qcurve"/>
      <point x="272" y="744" type="line"/>
      <point x="271" y="744"/>
      <point x="270" y="745" type="qcurve"/>
      <point x="235" y="780" type="line"/>
    </contour>
    <contour>
      <point x="240" y="782" type="line"/>
      <point x="273" y="749" type="line"/>
      <point x="477" y="751" type="line"/>
      <point x="510" y="784" type="line"/>
      <point x="477" y="817" type="line"/>
      <point x="273" y="815" type="line"/>
    </contour>
    <contour>
      <point x="4" y="822" type="line"/>
      <point x="22" y="822"/>
      <point x="94" y="818"/>
      <point x="112" y="818" type="qcurve"/>
      <point x="113" y="818"/>
      <point x="115" y="818" type="qcurve"/>
      <point x="169" y="818"/>
      <point x="245" y="834" type="qcurve"/>
      <point x="246" y="834"/>
      <point x="246" y="834" type="qcurve"/>
      <point x="248" y="834"/>
      <point x="249" y="833" type="qcurve"/>
      <point x="284" y="798" type="line"/>
      <point x="285" y="796"/>
      <point x="285" y="795" type="qcurve"/>
      <point x="285" y="784"/>
      <point x="215" y="656" type="qcurve"/>
      <point x="142" y="522"/>
      <point x="113" y="463" type="qcurve"/>
      <point x="139" y="486"/>
      <point x="249" y="539"/>
      <point x="333" y="571"/>
      <point x="338" y="571" type="qcurve"/>
      <point x="338" y="571"/>
      <point x="336" y="570" type="qcurve"/>
      <point x="337" y="570"/>
      <point x="338" y="569" type="qcurve"/>
      <point x="373" y="534" type="line"/>
      <point x="374" y="533"/>
      <point x="374" y="531"/>
      <point x="373" y="530" type="qcurve"/>
      <point x="338" y="495" type="line"/>
      <point x="337" y="495"/>
      <point x="337" y="494" type="qcurve"/>
      <point x="323" y="469"/>
      <point x="293" y="379"/>
      <point x="268" y="283"/>
      <point x="249" y="198"/>
      <point x="236" y="135"/>
      <point x="236" y="134" type="qcurve"/>
      <point x="236" y="122"/>
      <point x="238" y="111" type="qcurve"/>
      <point x="259" y="91" type="line"/>
      <point x="260" y="89"/>
      <point x="260" y="88" type="qcurve"/>
      <point x="260" y="87"/>
      <point x="259" y="86" type="qcurve"/>
      <point x="224" y="51" type="line"/>
      <point x="223" y="50"/>
      <point x="222" y="50" type="qcurve"/>
      <point x="222" y="50"/>
      <point x="221" y="50" type="qcurve"/>
      <point x="220" y="50"/>
      <point x="218" y="50" type="qcurve"/>
      <point x="212" y="50"/>
      <point x="207" y="55" type="qcurve"/>
      <point x="172" y="90" type="line"/>
      <point x="160" y="102"/>
      <point x="160" y="134" type="qcurve"/>
      <point x="160" y="169"/>
      <point x="218" y="402"/>
      <point x="249" y="472" type="qcurve"/>
      <point x="177" y="440"/>
      <point x="119" y="390" type="qcurve"/>
      <point x="108" y="377"/>
      <point x="102" y="365" type="qcurve"/>
      <point x="100" y="362"/>
      <point x="95" y="357" type="qcurve"/>
      <point x="60" y="322" type="line"/>
      <point x="48" y="310"/>
      <point x="40" y="310" type="qcurve"/>
      <point x="37" y="310"/>
      <point x="34" y="312" type="qcurve"/>
      <point x="-1" y="348" type="line"/>
      <point x="-4" y="351"/>
      <point x="-4" y="354" type="qcurve"/>
      <point x="-4" y="379"/>
      <point x="59" y="513"/>
      <point x="184" y="739"/>
      <point x="188" y="748" type="qcurve"/>
      <point x="149" y="742"/>
      <point x="115" y="742" type="qcurve"/>
      <point x="114" y="742"/>
      <point x="112" y="742"/>
      <point x="112" y="742" type="qcurve"/>
      <point x="94" y="742"/>
      <point x="22" y="746"/>
      <point x="4" y="746" type="qcurve"/>
      <point x="-4" y="746" type="line"/>
      <point x="-5" y="746"/>
      <point x="-6" y="747" type="qcurve"/>
      <point x="-41" y="782" type="line"/>
      <point x="-42" y="783"/>
      <point x="-42" y="785"/>
      <point x="-41" y="786" type="qcurve"/>
      <point x="-6" y="821" type="line"/>
      <point x="-5" y="822"/>
      <point x="-4" y="822" type="qcurve"/>
    </contour>
    <contour>
      <point x="4" y="751" type="line"/>
      <point x="22" y="751"/>
      <point x="94" y="747"/>
      <point x="112" y="747" type="qcurve"/>
      <point x="112" y="747"/>
      <point x="114" y="747"/>
      <point x="115" y="747" type="qcurve"/>
      <point x="151" y="747"/>
      <point x="192" y="753" type="qcurve"/>
      <point x="193" y="753"/>
      <point x="193" y="753" type="qcurve"/>
      <point x="195" y="753"/>
      <point x="195" y="751" type="qcurve"/>
      <point x="195" y="750"/>
      <point x="195" y="750" type="qcurve"/>
      <point x="188" y="736"/>
      <point x="68" y="516"/>
      <point x="1" y="378"/>
      <point x="1" y="354" type="qcurve"/>
      <point x="2" y="352"/>
      <point x="3" y="351" type="qcurve"/>
      <point x="38" y="316" type="line"/>
      <point x="39" y="315"/>
      <point x="40" y="315" type="qcurve"/>
      <point x="46" y="315"/>
      <point x="56" y="325" type="qcurve"/>
      <point x="92" y="360" type="line"/>
      <point x="96" y="364"/>
      <point x="97" y="367" type="qcurve"/>
      <point x="103" y="380"/>
      <point x="115" y="394" type="qcurve"/>
      <point x="177" y="447"/>
      <point x="253" y="479" type="qcurve"/>
      <point x="254" y="479"/>
      <point x="254" y="479" type="qcurve"/>
      <point x="257" y="479"/>
      <point x="257" y="476" type="qcurve"/>
      <point x="257" y="476"/>
      <point x="257" y="475" type="qcurve"/>
      <point x="225" y="408"/>
      <point x="165" y="169"/>
      <point x="165" y="134" type="qcurve"/>
      <point x="165" y="104"/>
      <point x="175" y="94" type="qcurve"/>
      <point x="211" y="58" type="line"/>
      <point x="214" y="55"/>
      <point x="218" y="55" type="qcurve"/>
      <point x="219" y="55"/>
      <point x="220" y="55" type="qcurve"/>
      <point x="221" y="55"/>
      <point x="221" y="55" type="qcurve"/>
      <point x="254" y="88" type="line"/>
      <point x="234" y="108" type="line"/>
      <point x="234" y="108"/>
      <point x="234" y="109" type="qcurve"/>
      <point x="231" y="121"/>
      <point x="231" y="134" type="qcurve"/>
      <point x="231" y="174"/>
      <point x="299" y="437"/>
      <point x="333" y="498" type="qcurve"/>
      <point x="334" y="499"/>
      <point x="335" y="499" type="qcurve"/>
      <point x="368" y="532" type="line"/>
      <point x="335" y="565" type="line"/>
      <point x="291" y="564"/>
      <point x="154" y="495"/>
      <point x="107" y="450" type="qcurve"/>
      <point x="106" y="450"/>
      <point x="105" y="450" type="qcurve"/>
      <point x="102" y="450"/>
      <point x="102" y="452" type="qcurve"/>
      <point x="102" y="453"/>
      <point x="103" y="453" type="qcurve"/>
      <point x="132" y="515"/>
      <point x="211" y="659" type="qcurve"/>
      <point x="280" y="785"/>
      <point x="280" y="794" type="qcurve"/>
      <point x="246" y="829" type="line"/>
      <point x="169" y="813"/>
      <point x="115" y="813" type="qcurve"/>
      <point x="113" y="813"/>
      <point x="112" y="813" type="qcurve"/>
      <point x="94" y="813"/>
      <point x="22" y="817"/>
      <point x="4" y="817" type="qcurve"/>
      <point x="-3" y="817" type="line"/>
      <point x="-36" y="784" type="line"/>
      <point x="-3" y="751" type="line"/>
    </contour>
  </outline>
</glyph>
<glyph name="uni09A7" format="2">
  <advance width="471"/>
  <unicode hex="09A7"/>
  <outline>
    <contour>
      <point x="85" y="832" type="line"/>
      <point x="83" y="832"/>
      <point x="83" y="835" type="qcurve"/>
      <point x="83" y="836"/>
      <point x="83" y="836" type="qcurve"/>
      <point x="90" y="849"/>
      <point x="101" y="861" type="qcurve"/>
      <point x="101" y="861"/>
      <point x="101" y="862" type="qcurve"/>
      <point x="113" y="872"/>
      <point x="129" y="885" type="qcurve"/>
      <point x="130" y="885"/>
      <point x="131" y="885" type="qcurve"/>
      <point x="134" y="885"/>
      <point x="213" y="890" type="qcurve"/>
      <point x="215" y="890"/>
      <point x="215" y="888" type="qcurve"/>
      <point x="215" y="886"/>
      <point x="214" y="886" type="qcurve"/>
      <point x="164" y="847"/>
      <point x="86" y="832" type="qcurve"/>
    </contour>
    <contour>
      <point x="90" y="838" type="qcurve"/>
      <point x="158" y="852"/>
      <point x="204" y="885" type="qcurve"/>
      <point x="145" y="880"/>
      <point x="132" y="880" type="qcurve"/>
      <point x="116" y="868"/>
      <point x="104" y="858" type="qcurve"/>
      <point x="96" y="848"/>
    </contour>
    <contour>
      <point x="69" y="730" type="qcurve"/>
      <point x="69" y="729"/>
      <point x="69" y="726"/>
      <point x="69" y="725" type="qcurve"/>
      <point x="69" y="721"/>
      <point x="69" y="717" type="qcurve"/>
      <point x="82" y="712"/>
      <point x="95" y="712" type="qcurve"/>
      <point x="96" y="712"/>
      <point x="96" y="712" type="qcurve"/>
      <point x="110" y="704"/>
      <point x="127" y="704" type="qcurve"/>
      <point x="150" y="704"/>
      <point x="216" y="731"/>
      <point x="258" y="756"/>
      <point x="291" y="777" type="qcurve"/>
      <point x="335" y="806"/>
      <point x="343" y="806" type="qcurve"/>
      <point x="346" y="806"/>
      <point x="348" y="804" type="qcurve"/>
      <point x="376" y="776" type="line"/>
      <point x="377" y="776"/>
      <point x="413" y="812" type="qcurve"/>
      <point x="419" y="819"/>
      <point x="423" y="819" type="qcurve"/>
      <point x="424" y="819"/>
      <point x="426" y="818" type="qcurve"/>
      <point x="473" y="826" type="line"/>
      <point x="474" y="826"/>
      <point x="475" y="825" type="qcurve"/>
      <point x="510" y="790" type="line"/>
      <point x="511" y="789"/>
      <point x="511" y="787"/>
      <point x="510" y="786" type="qcurve"/>
      <point x="475" y="751" type="line"/>
      <point x="474" y="750"/>
      <point x="473" y="750" type="qcurve"/>
      <point x="428" y="743" type="line"/>
      <point x="425" y="738"/>
      <point x="425" y="737" type="qcurve"/>
      <point x="381" y="645"/>
      <point x="355" y="563" type="qcurve"/>
      <point x="316" y="444"/>
      <point x="297" y="256" type="qcurve"/>
      <point x="322" y="210"/>
      <point x="333" y="163" type="qcurve"/>
      <point x="339" y="136"/>
      <point x="339" y="122" type="qcurve"/>
      <point x="339" y="111"/>
      <point x="335" y="107" type="qcurve"/>
      <point x="300" y="72" type="line"/>
      <point x="297" y="69"/>
      <point x="294" y="69" type="qcurve"/>
      <point x="287" y="69"/>
      <point x="276" y="81" type="qcurve"/>
      <point x="240" y="116" type="line"/>
      <point x="234" y="123"/>
      <point x="219" y="141"/>
      <point x="211" y="153"/>
      <point x="211" y="154" type="qcurve"/>
      <point x="215" y="183"/>
      <point x="222" y="255" type="qcurve"/>
      <point x="202" y="290"/>
      <point x="178" y="319" type="qcurve"/>
      <point x="115" y="372"/>
      <point x="44" y="372" type="qcurve"/>
      <point x="40" y="372"/>
      <point x="37" y="372" type="qcurve"/>
      <point x="25" y="372" type="line"/>
      <point x="23" y="372"/>
      <point x="19" y="372"/>
      <point x="18" y="372" type="qcurve"/>
      <point x="18" y="372"/>
      <point x="17" y="372" type="qcurve"/>
      <point x="16" y="372"/>
      <point x="15" y="373" type="qcurve"/>
      <point x="-20" y="408" type="line"/>
      <point x="-21" y="409"/>
      <point x="-21" y="410" type="qcurve"/>
      <point x="-21" y="438"/>
      <point x="18" y="477" type="qcurve"/>
      <point x="54" y="513" type="line"/>
      <point x="81" y="540"/>
      <point x="160" y="599" type="qcurve"/>
      <point x="234" y="655"/>
      <point x="265" y="684" type="qcurve"/>
      <point x="176" y="628"/>
      <point x="127" y="628" type="qcurve"/>
      <point x="109" y="628"/>
      <point x="94" y="636" type="qcurve"/>
      <point x="62" y="638"/>
      <point x="42" y="657" type="qcurve"/>
      <point x="7" y="693" type="line"/>
      <point x="-7" y="707"/>
      <point x="-7" y="725" type="qcurve"/>
      <point x="-7" y="727"/>
      <point x="-7" y="730" type="qcurve"/>
      <point x="-7" y="745"/>
      <point x="-6" y="760" type="qcurve"/>
      <point x="-36" y="790" type="line"/>
      <point x="-37" y="791"/>
      <point x="-37" y="793"/>
      <point x="-36" y="794" type="qcurve"/>
      <point x="-1" y="829" type="line"/>
      <point x="0" y="830"/>
      <point x="1" y="830" type="qcurve"/>
      <point x="7" y="830" type="line"/>
      <point x="8" y="830"/>
      <point x="9" y="830"/>
      <point x="9" y="830" type="qcurve"/>
      <point x="21" y="854"/>
      <point x="46" y="879" type="qcurve"/>
      <point x="81" y="914" type="line"/>
      <point x="99" y="932"/>
      <point x="129" y="955" type="qcurve"/>
      <point x="130" y="956"/>
      <point x="131" y="956" type="qcurve"/>
      <point x="149" y="956"/>
      <point x="223" y="962"/>
      <point x="241" y="962" type="qcurve"/>
      <point x="249" y="963"/>
      <point x="256" y="963" type="qcurve"/>
      <point x="257" y="963"/>
      <point x="258" y="963"/>
      <point x="258" y="963" type="qcurve"/>
      <point x="268" y="963"/>
      <point x="270" y="960" type="qcurve"/>
      <point x="306" y="925" type="line"/>
      <point x="307" y="923"/>
      <point x="307" y="922" type="qcurve"/>
      <point x="307" y="921"/>
      <point x="307" y="921" type="qcurve"/>
      <point x="294" y="892"/>
      <point x="270" y="868" type="qcurve"/>
      <point x="235" y="833" type="line"/>
      <point x="177" y="775"/>
      <point x="70" y="759" type="qcurve"/>
      <point x="69" y="745"/>
    </contour>
    <contour>
      <point x="18" y="377" type="line"/>
      <point x="19" y="377"/>
      <point x="23" y="377"/>
      <point x="25" y="377" type="qcurve"/>
      <point x="37" y="377" type="line"/>
      <point x="40" y="377"/>
      <point x="44" y="377" type="qcurve"/>
      <point x="117" y="377"/>
      <point x="181" y="323" type="qcurve"/>
      <point x="207" y="293"/>
      <point x="226" y="257" type="qcurve"/>
      <point x="227" y="256"/>
      <point x="227" y="255" type="qcurve"/>
      <point x="227" y="255"/>
      <point x="226" y="244" type="qcurve"/>
      <point x="220" y="184"/>
      <point x="216" y="155" type="qcurve"/>
      <point x="231" y="132"/>
      <point x="244" y="120" type="qcurve"/>
      <point x="279" y="84" type="line"/>
      <point x="289" y="74"/>
      <point x="294" y="74" type="qcurve"/>
      <point x="295" y="74"/>
      <point x="296" y="75" type="qcurve"/>
      <point x="331" y="111" type="line"/>
      <point x="334" y="113"/>
      <point x="334" y="122" type="qcurve"/>
      <point x="334" y="135"/>
      <point x="328" y="161" type="qcurve"/>
      <point x="317" y="209"/>
      <point x="293" y="254" type="qcurve"/>
      <point x="292" y="255"/>
      <point x="292" y="255" type="qcurve"/>
      <point x="292" y="256"/>
      <point x="292" y="256" type="qcurve"/>
      <point x="311" y="445"/>
      <point x="350" y="565" type="qcurve"/>
      <point x="377" y="647"/>
      <point x="420" y="739" type="qcurve"/>
      <point x="421" y="741"/>
      <point x="425" y="746" type="qcurve"/>
      <point x="425" y="747"/>
      <point x="426" y="747" type="qcurve"/>
      <point x="472" y="755" type="line"/>
      <point x="505" y="788" type="line"/>
      <point x="472" y="821" type="line"/>
      <point x="425" y="813" type="line"/>
      <point x="424" y="813"/>
      <point x="423" y="814" type="qcurve"/>
      <point x="421" y="814"/>
      <point x="416" y="809" type="qcurve"/>
      <point x="381" y="773" type="line"/>
      <point x="377" y="770"/>
      <point x="375" y="770"/>
      <point x="375" y="770" type="qcurve"/>
      <point x="344" y="801" type="line"/>
      <point x="344" y="801"/>
      <point x="343" y="801" type="qcurve"/>
      <point x="337" y="801"/>
      <point x="293" y="773" type="qcurve"/>
      <point x="260" y="751"/>
      <point x="219" y="727"/>
      <point x="152" y="699"/>
      <point x="127" y="699" type="qcurve"/>
      <point x="109" y="699"/>
      <point x="94" y="707" type="qcurve"/>
      <point x="80" y="708"/>
      <point x="66" y="713" type="qcurve"/>
      <point x="64" y="714"/>
      <point x="64" y="725" type="qcurve"/>
      <point x="64" y="727"/>
      <point x="64" y="730" type="qcurve"/>
      <point x="64" y="746"/>
      <point x="65" y="761" type="qcurve"/>
      <point x="65" y="763"/>
      <point x="67" y="764" type="qcurve"/>
      <point x="174" y="779"/>
      <point x="232" y="836" type="qcurve"/>
      <point x="267" y="872" type="line"/>
      <point x="289" y="894"/>
      <point x="302" y="922" type="qcurve"/>
      <point x="267" y="956" type="line"/>
      <point x="266" y="958"/>
      <point x="256" y="958" type="qcurve"/>
      <point x="250" y="958"/>
      <point x="242" y="957" type="qcurve"/>
      <point x="241" y="957"/>
      <point x="241" y="957" type="qcurve"/>
      <point x="223" y="957"/>
      <point x="150" y="951"/>
      <point x="132" y="951" type="qcurve"/>
      <point x="102" y="928"/>
      <point x="85" y="911" type="qcurve"/>
      <point x="49" y="875" type="line"/>
      <point x="25" y="851"/>
      <point x="13" y="826" type="qcurve"/>
      <point x="12" y="825"/>
      <point x="7" y="825" type="qcurve"/>
      <point x="2" y="825" type="line"/>
      <point x="-31" y="792" type="line"/>
      <point x="-2" y="763" type="line"/>
      <point x="-1" y="762"/>
      <point x="-1" y="761" type="qcurve"/>
      <point x="-2" y="745"/>
      <point x="-2" y="730" type="qcurve"/>
      <point x="-2" y="729"/>
      <point x="-2" y="726"/>
      <point x="-2" y="725" type="qcurve"/>
      <point x="-2" y="709"/>
      <point x="10" y="696" type="qcurve"/>
      <point x="45" y="661" type="line"/>
      <point x="64" y="642"/>
      <point x="95" y="641" type="qcurve"/>
      <point x="96" y="641"/>
      <point x="96" y="641" type="qcurve"/>
      <point x="110" y="633"/>
      <point x="127" y="633" type="qcurve"/>
      <point x="177" y="633"/>
      <point x="277" y="697" type="qcurve"/>
      <point x="277" y="698"/>
      <point x="278" y="698" type="qcurve"/>
      <point x="280" y="698"/>
      <point x="280" y="695" type="qcurve"/>
      <point x="280" y="694"/>
      <point x="280" y="694" type="qcurve"/>
      <point x="275" y="687"/>
      <point x="269" y="681" type="qcurve"/>
      <point x="237" y="651"/>
      <point x="163" y="595" type="qcurve"/>
      <point x="84" y="536"/>
      <point x="57" y="509" type="qcurve"/>
      <point x="22" y="474" type="line"/>
      <point x="-15" y="437"/>
      <point x="-16" y="411" type="qcurve"/>
    </contour>
    <contour>
      <point x="316" y="662" type="qcurve"/>
      <point x="318" y="662"/>
      <point x="318" y="659" type="qcurve"/>
      <point x="318" y="659"/>
      <point x="318" y="658" type="qcurve"/>
      <point x="295" y="605"/>
      <point x="284" y="563" type="qcurve"/>
      <point x="252" y="475"/>
      <point x="235" y="340" type="qcurve"/>
      <point x="235" y="337"/>
      <point x="233" y="337" type="qcurve"/>
      <point x="232" y="337"/>
      <point x="231" y="338" type="qcurve"/>
      <point x="196" y="374" type="line"/>
      <point x="135" y="434"/>
      <point x="64" y="442" type="qcurve"/>
      <point x="62" y="442"/>
      <point x="62" y="444" type="qcurve"/>
      <point x="62" y="445"/>
      <point x="62" y="446" type="qcurve"/>
      <point x="67" y="453"/>
      <point x="73" y="460" type="qcurve"/>
      <point x="73" y="460"/>
      <point x="74" y="461" type="qcurve"/>
      <point x="98" y="482"/>
      <point x="160" y="529" type="qcurve"/>
      <point x="249" y="596"/>
      <point x="285" y="632" type="qcurve"/>
      <point x="314" y="661" type="line"/>
      <point x="315" y="662"/>
    </contour>
    <contour>
      <point x="308" y="648" type="qcurve"/>
      <point x="288" y="628" type="line"/>
      <point x="253" y="593"/>
      <point x="163" y="525" type="qcurve"/>
      <point x="102" y="478"/>
      <point x="77" y="457" type="qcurve"/>
      <point x="73" y="451"/>
      <point x="69" y="446" type="qcurve"/>
      <point x="139" y="437"/>
      <point x="199" y="377" type="qcurve"/>
      <point x="231" y="345" type="line"/>
      <point x="247" y="477"/>
      <point x="279" y="565" type="qcurve"/>
      <point x="289" y="602"/>
    </contour>
  </outline>
</glyph>
<glyph name="uni09AD" format="2">
  <advance width="781"/>
  <unicode hex="09AD"/>
  <outline>
    <contour>
      <point x="426" y="748" type="qcurve"/>
      <point x="425" y="748"/>
      <point x="424" y="749" type="qcurve"/>
      <point x="389" y="784" type="line"/>
      <point x="388" y="785"/>
      <point x="388" y="787"/>
      <point x="389" y="788" type="qcurve"/>
      <point x="424" y="823" type="line"/>
      <point x="425" y="824"/>
      <point x="425" y="824" type="qcurve"/>
      <point x="438" y="828"/>
      <point x="498" y="829"/>
      <point x="512" y="836" type="qcurve"/>
      <point x="512" y="836"/>
      <point x="513" y="836" type="qcurve"/>
      <point x="744" y="830" type="line"/>
      <point x="744" y="830"/>
      <point x="745" y="830" type="qcurve"/>
      <point x="784" y="815" type="line"/>
      <point x="784" y="814"/>
      <point x="785" y="814" type="qcurve"/>
      <point x="820" y="779" type="line"/>
      <point x="821" y="778"/>
      <point x="821" y="776"/>
      <point x="820" y="775" type="qcurve"/>
      <point x="785" y="740" type="line"/>
      <point x="784" y="739"/>
      <point x="783" y="739" type="qcurve"/>
      <point x="783" y="739"/>
      <point x="782" y="739" type="qcurve"/>
      <point x="744" y="754" type="line"/>
      <point x="514" y="760" type="line"/>
      <point x="499" y="754"/>
      <point x="440" y="753"/>
      <point x="427" y="748" type="qcurve"/>
      <point x="426" y="748"/>
    </contour>
    <contour>
      <point x="513" y="765" type="qcurve"/>
      <point x="744" y="759" type="line"/>
      <point x="744" y="759"/>
      <point x="745" y="759" type="qcurve"/>
      <point x="782" y="745" type="line"/>
      <point x="815" y="777" type="line"/>
      <point x="782" y="810" type="line"/>
      <point x="744" y="825" type="line"/>
      <point x="514" y="831" type="line"/>
      <point x="499" y="824"/>
      <point x="440" y="823"/>
      <point x="427" y="819" type="qcurve"/>
      <point x="394" y="786" type="line"/>
      <point x="427" y="753" type="line"/>
      <point x="439" y="757"/>
      <point x="498" y="759"/>
      <point x="512" y="765" type="qcurve"/>
      <point x="512" y="765"/>
    </contour>
    <contour>
      <point x="594" y="504" type="qcurve"/>
      <point x="583" y="497"/>
      <point x="519" y="454"/>
      <point x="479" y="428"/>
      <point x="422" y="405"/>
      <point x="400" y="405" type="qcurve"/>
      <point x="378" y="405"/>
      <point x="362" y="415" type="qcurve"/>
      <point x="300" y="415"/>
      <point x="164" y="446"/>
      <point x="127" y="483" type="qcurve"/>
      <point x="92" y="519" type="line"/>
      <point x="61" y="549"/>
      <point x="61" y="591" type="qcurve"/>
      <point x="61" y="608"/>
      <point x="74" y="639"/>
      <point x="86" y="654"/>
      <point x="101" y="671" type="qcurve"/>
      <point x="106" y="677"/>
      <point x="112" y="682" type="qcurve"/>
      <point x="147" y="718" type="line"/>
      <point x="157" y="728"/>
      <point x="168" y="736" type="qcurve"/>
      <point x="156" y="737"/>
      <point x="80" y="745"/>
      <point x="59" y="745" type="qcurve"/>
      <point x="30" y="745"/>
      <point x="7" y="739" type="qcurve"/>
      <point x="6" y="739"/>
      <point x="6" y="739" type="qcurve"/>
      <point x="0" y="739" type="line"/>
      <point x="-1" y="739"/>
      <point x="-2" y="740" type="qcurve"/>
      <point x="-37" y="775" type="line"/>
      <point x="-38" y="776"/>
      <point x="-38" y="778"/>
      <point x="-37" y="779" type="qcurve"/>
      <point x="-2" y="814" type="line"/>
      <point x="-1" y="815"/>
      <point x="0" y="815" type="qcurve"/>
      <point x="6" y="815" type="line"/>
      <point x="30" y="821"/>
      <point x="59" y="821" type="qcurve"/>
      <point x="81" y="821"/>
      <point x="167" y="812"/>
      <point x="188" y="812" type="qcurve"/>
      <point x="193" y="812"/>
      <point x="211" y="812"/>
      <point x="216" y="812" type="qcurve"/>
      <point x="229" y="812"/>
      <point x="313" y="805" type="qcurve"/>
      <point x="338" y="810"/>
      <point x="358" y="810" type="qcurve"/>
      <point x="397" y="810"/>
      <point x="418" y="790" type="qcurve"/>
      <point x="453" y="755" type="line"/>
      <point x="457" y="750"/>
      <point x="460" y="745" type="qcurve"/>
      <point x="461" y="745"/>
      <point x="461" y="744" type="qcurve"/>
      <point x="461" y="733"/>
      <point x="452" y="725" type="qcurve"/>
      <point x="417" y="689" type="line"/>
      <point x="395" y="667"/>
      <point x="345" y="667" type="qcurve"/>
      <point x="344" y="667"/>
      <point x="340" y="667"/>
      <point x="338" y="667" type="qcurve"/>
      <point x="306" y="667"/>
      <point x="296" y="677" type="qcurve"/>
      <point x="261" y="712" type="line"/>
      <point x="260" y="713"/>
      <point x="259" y="714" type="qcurve"/>
      <point x="209" y="695"/>
      <point x="168" y="660" type="qcurve"/>
      <point x="151" y="640"/>
      <point x="137" y="613"/>
      <point x="137" y="591" type="qcurve"/>
      <point x="137" y="563"/>
      <point x="151" y="541" type="qcurve"/>
      <point x="191" y="514"/>
      <point x="311" y="491"/>
      <point x="363" y="491" type="qcurve"/>
      <point x="364" y="491"/>
      <point x="364" y="490" type="qcurve"/>
      <point x="379" y="480"/>
      <point x="400" y="480" type="qcurve"/>
      <point x="422" y="480"/>
      <point x="483" y="507"/>
      <point x="523" y="533"/>
      <point x="556" y="556" type="qcurve"/>
      <point x="614" y="596"/>
      <point x="629" y="596" type="qcurve"/>
      <point x="634" y="596"/>
      <point x="637" y="593" type="qcurve"/>
      <point x="673" y="557" type="line"/>
      <point x="677" y="553"/>
      <point x="677" y="546" type="qcurve"/>
      <point x="673" y="524"/>
      <point x="657" y="429"/>
      <point x="647" y="379"/>
      <point x="625" y="305"/>
      <point x="611" y="275" type="qcurve"/>
      <point x="585" y="200"/>
      <point x="532" y="147" type="qcurve"/>
      <point x="497" y="112" type="line"/>
      <point x="440" y="55"/>
      <point x="372" y="49" type="qcurve"/>
      <point x="356" y="48"/>
      <point x="341" y="48" type="qcurve"/>
      <point x="285" y="48"/>
      <point x="206" y="83"/>
      <point x="173" y="116" type="qcurve"/>
      <point x="138" y="151" type="line"/>
      <point x="119" y="171"/>
      <point x="83" y="216" type="qcurve"/>
      <point x="42" y="266"/>
      <point x="17" y="292" type="qcurve"/>
      <point x="8" y="301" type="line"/>
      <point x="7" y="302"/>
      <point x="7" y="302" type="qcurve"/>
      <point x="-20" y="407" type="line"/>
      <point x="-20" y="408"/>
      <point x="-20" y="408" type="qcurve"/>
      <point x="-20" y="409"/>
      <point x="-19" y="410" type="qcurve"/>
      <point x="16" y="445" type="line"/>
      <point x="17" y="446"/>
      <point x="19" y="446"/>
      <point x="20" y="445" type="qcurve"/>
      <point x="55" y="410" type="line"/>
      <point x="56" y="409"/>
      <point x="56" y="409" type="qcurve"/>
      <point x="83" y="304" type="line"/>
      <point x="87" y="300" type="line"/>
      <point x="114" y="273"/>
      <point x="157" y="219" type="qcurve"/>
      <point x="182" y="188"/>
      <point x="194" y="174" type="qcurve"/>
      <point x="254" y="124"/>
      <point x="341" y="124" type="qcurve"/>
      <point x="356" y="124"/>
      <point x="372" y="125" type="qcurve"/>
      <point x="427" y="129"/>
      <point x="475" y="170" type="qcurve"/>
      <point x="515" y="217"/>
      <point x="535" y="277" type="qcurve"/>
      <point x="542" y="290"/>
      <point x="553" y="320"/>
      <point x="561" y="342"/>
      <point x="570" y="378"/>
      <point x="575" y="395"/>
      <point x="583" y="439"/>
      <point x="585" y="449"/>
      <point x="593" y="501"/>
    </contour>
    <contour>
      <point x="188" y="807" type="qcurve"/>
      <point x="167" y="807"/>
      <point x="80" y="816"/>
      <point x="59" y="816" type="qcurve"/>
      <point x="30" y="816"/>
      <point x="7" y="810" type="qcurve"/>
      <point x="6" y="810"/>
      <point x="6" y="810" type="qcurve"/>
      <point x="1" y="810" type="line"/>
      <point x="-32" y="777" type="line"/>
      <point x="1" y="744" type="line"/>
      <point x="6" y="744" type="line"/>
      <point x="30" y="750"/>
      <point x="59" y="750" type="qcurve"/>
      <point x="80" y="750"/>
      <point x="159" y="742"/>
      <point x="174" y="741" type="qcurve"/>
      <point x="177" y="741"/>
      <point x="177" y="739" type="qcurve"/>
      <point x="177" y="737"/>
      <point x="176" y="737" type="qcurve"/>
      <point x="163" y="726"/>
      <point x="151" y="714" type="qcurve"/>
      <point x="115" y="679" type="line"/>
      <point x="110" y="673"/>
      <point x="102" y="665" type="qcurve"/>
      <point x="88" y="649"/>
      <point x="76" y="634"/>
      <point x="66" y="607"/>
      <point x="66" y="591" type="qcurve"/>
      <point x="66" y="551"/>
      <point x="95" y="522" type="qcurve"/>
      <point x="131" y="487" type="line"/>
      <point x="167" y="451"/>
      <point x="302" y="420"/>
      <point x="363" y="420" type="qcurve"/>
      <point x="364" y="420"/>
      <point x="364" y="420" type="qcurve"/>
      <point x="379" y="410"/>
      <point x="400" y="410" type="qcurve"/>
      <point x="428" y="410"/>
      <point x="493" y="441"/>
      <point x="589" y="507"/>
      <point x="596" y="512" type="qcurve"/>
      <point x="596" y="512"/>
      <point x="597" y="512" type="qcurve"/>
      <point x="600" y="512"/>
      <point x="600" y="510" type="qcurve"/>
      <point x="600" y="509"/>
      <point x="600" y="509" type="qcurve"/>
      <point x="598" y="502"/>
      <point x="589" y="447"/>
      <point x="586" y="429"/>
      <point x="577" y="384"/>
      <point x="571" y="359"/>
      <point x="560" y="322"/>
      <point x="547" y="291"/>
      <point x="540" y="275" type="qcurve"/>
      <point x="520" y="215"/>
      <point x="479" y="166" type="qcurve"/>
      <point x="429" y="125"/>
      <point x="372" y="120" type="qcurve"/>
      <point x="356" y="119"/>
      <point x="341" y="119" type="qcurve"/>
      <point x="252" y="119"/>
      <point x="191" y="171" type="qcurve"/>
      <point x="190" y="171"/>
      <point x="190" y="171" type="qcurve"/>
      <point x="179" y="184"/>
      <point x="107" y="272"/>
      <point x="83" y="297" type="qcurve"/>
      <point x="79" y="301" type="line"/>
      <point x="78" y="302"/>
      <point x="78" y="302" type="qcurve"/>
      <point x="51" y="407" type="line"/>
      <point x="18" y="440" type="line"/>
      <point x="-15" y="407" type="line"/>
      <point x="12" y="304" type="line"/>
      <point x="21" y="295" type="line"/>
      <point x="46" y="269"/>
      <point x="87" y="219" type="qcurve"/>
      <point x="122" y="174"/>
      <point x="141" y="155" type="qcurve"/>
      <point x="177" y="120" type="line"/>
      <point x="209" y="87"/>
      <point x="286" y="53"/>
      <point x="341" y="53" type="qcurve"/>
      <point x="356" y="53"/>
      <point x="372" y="54" type="qcurve"/>
      <point x="438" y="60"/>
      <point x="494" y="116" type="qcurve"/>
      <point x="529" y="151" type="line"/>
      <point x="581" y="203"/>
      <point x="606" y="277" type="qcurve"/>
      <point x="620" y="307"/>
      <point x="642" y="380"/>
      <point x="652" y="430"/>
      <point x="668" y="524"/>
      <point x="672" y="546" type="qcurve"/>
      <point x="671" y="552"/>
      <point x="669" y="554" type="qcurve"/>
      <point x="634" y="589" type="line"/>
      <point x="632" y="591"/>
      <point x="629" y="591" type="qcurve"/>
      <point x="616" y="591"/>
      <point x="559" y="552" type="qcurve"/>
      <point x="525" y="528"/>
      <point x="486" y="503"/>
      <point x="423" y="475"/>
      <point x="400" y="475" type="qcurve"/>
      <point x="378" y="475"/>
      <point x="362" y="486" type="qcurve"/>
      <point x="309" y="486"/>
      <point x="188" y="509"/>
      <point x="148" y="537" type="qcurve"/>
      <point x="147" y="537"/>
      <point x="147" y="538" type="qcurve"/>
      <point x="132" y="562"/>
      <point x="132" y="591" type="qcurve"/>
      <point x="132" y="614"/>
      <point x="147" y="643"/>
      <point x="165" y="663" type="qcurve"/>
      <point x="208" y="700"/>
      <point x="259" y="719" type="qcurve"/>
      <point x="260" y="720"/>
      <point x="260" y="720" type="qcurve"/>
      <point x="260" y="720"/>
      <point x="264" y="716" type="qcurve"/>
      <point x="300" y="680" type="line"/>
      <point x="308" y="672"/>
      <point x="338" y="672" type="qcurve"/>
      <point x="340" y="672"/>
      <point x="344" y="672"/>
      <point x="345" y="672" type="qcurve"/>
      <point x="362" y="672"/>
      <point x="403" y="683"/>
      <point x="413" y="693" type="qcurve"/>
      <point x="449" y="728" type="line"/>
      <point x="456" y="735"/>
      <point x="456" y="743" type="qcurve"/>
      <point x="453" y="748"/>
      <point x="449" y="751" type="qcurve"/>
      <point x="414" y="786" type="line"/>
      <point x="395" y="805"/>
      <point x="358" y="805" type="qcurve"/>
      <point x="338" y="805"/>
      <point x="313" y="800" type="qcurve"/>
      <point x="313" y="800"/>
      <point x="313" y="800" type="qcurve"/>
      <point x="229" y="807"/>
      <point x="216" y="807" type="qcurve"/>
      <point x="211" y="807"/>
      <point x="193" y="807"/>
    </contour>
  </outline>
</glyph>
<glyph name="uni09B2" format="2">
  <advance width="630"/>
  <unicode hex="09B2"/>
  <outline>
    <contour>
      <point x="82" y="296" type="qcurve"/>
      <point x="82" y="290"/>
      <point x="86" y="255"/>
      <point x="86" y="249" type="qcurve"/>
      <point x="86" y="244"/>
      <point x="86" y="241" type="qcurve"/>
      <point x="84" y="232"/>
      <point x="84" y="224" type="qcurve"/>
      <point x="84" y="214"/>
      <point x="88" y="204" type="qcurve"/>
      <point x="91" y="202"/>
      <point x="94" y="200" type="qcurve"/>
      <point x="100" y="244" type="line"/>
      <point x="100" y="245"/>
      <point x="101" y="246" type="qcurve"/>
      <point x="136" y="281" type="line"/>
      <point x="137" y="282"/>
      <point x="139" y="282"/>
      <point x="140" y="281" type="qcurve"/>
      <point x="175" y="246" type="line"/>
      <point x="176" y="245"/>
      <point x="176" y="244" type="qcurve"/>
      <point x="176" y="244"/>
      <point x="166" y="174" type="qcurve"/>
      <point x="166" y="173"/>
      <point x="165" y="173" type="qcurve"/>
      <point x="164" y="171"/>
      <point x="157" y="155"/>
      <point x="154" y="153" type="qcurve"/>
      <point x="119" y="117" type="line"/>
      <point x="116" y="114"/>
      <point x="112" y="114" type="qcurve"/>
      <point x="111" y="114"/>
      <point x="111" y="114" type="qcurve"/>
      <point x="73" y="136"/>
      <point x="61" y="147" type="qcurve"/>
      <point x="26" y="183" type="line"/>
      <point x="8" y="201"/>
      <point x="8" y="224" type="qcurve"/>
      <point x="8" y="233"/>
      <point x="10" y="243" type="qcurve"/>
      <point x="11" y="245"/>
      <point x="11" y="249" type="qcurve"/>
      <point x="11" y="255"/>
      <point x="6" y="289"/>
      <point x="6" y="296" type="qcurve"/>
      <point x="5" y="302"/>
      <point x="5" y="308" type="qcurve"/>
      <point x="5" y="347"/>
      <point x="33" y="375" type="qcurve"/>
      <point x="68" y="410" type="line"/>
      <point x="97" y="439"/>
      <point x="139" y="439" type="qcurve"/>
      <point x="147" y="439"/>
      <point x="154" y="438" type="qcurve"/>
      <point x="161" y="438"/>
      <point x="167" y="438" type="qcurve"/>
      <point x="224" y="438"/>
      <point x="271" y="391" type="qcurve"/>
      <point x="303" y="423" type="line"/>
      <point x="315" y="435"/>
      <point x="328" y="445" type="qcurve"/>
      <point x="338" y="453"/>
      <point x="350" y="459" type="qcurve"/>
      <point x="352" y="504"/>
      <point x="368" y="574"/>
      <point x="404" y="631"/>
      <point x="430" y="663"/>
      <point x="457" y="690" type="qcurve"/>
      <point x="521" y="753"/>
      <point x="548" y="803" type="qcurve"/>
      <point x="549" y="804"/>
      <point x="549" y="804" type="qcurve"/>
      <point x="584" y="839" type="line"/>
      <point x="585" y="840"/>
      <point x="586" y="840" type="qcurve"/>
      <point x="587" y="840"/>
      <point x="587" y="840" type="qcurve"/>
      <point x="633" y="816" type="line"/>
      <point x="633" y="815"/>
      <point x="634" y="815" type="qcurve"/>
      <point x="669" y="780" type="line"/>
      <point x="670" y="779"/>
      <point x="670" y="777"/>
      <point x="669" y="776" type="qcurve"/>
      <point x="634" y="741" type="line"/>
      <point x="633" y="740"/>
      <point x="632" y="740" type="qcurve"/>
      <point x="631" y="740"/>
      <point x="631" y="740" type="qcurve"/>
      <point x="596" y="758" type="line"/>
      <point x="575" y="730"/>
      <point x="532" y="686" type="qcurve"/>
      <point x="504" y="659"/>
      <point x="478" y="627"/>
      <point x="442" y="570"/>
      <point x="427" y="499"/>
      <point x="426" y="453" type="qcurve"/>
      <point x="434" y="447"/>
      <point x="441" y="440" type="qcurve"/>
      <point x="477" y="404" type="line"/>
      <point x="512" y="369"/>
      <point x="560" y="242"/>
      <point x="560" y="202" type="qcurve"/>
      <point x="560" y="187"/>
      <point x="552" y="141"/>
      <point x="543" y="132" type="qcurve"/>
      <point x="507" y="96" type="line"/>
      <point x="503" y="92"/>
      <point x="498" y="92" type="qcurve"/>
      <point x="484" y="92"/>
      <point x="470" y="106" type="qcurve"/>
      <point x="435" y="141" type="line"/>
      <point x="408" y="168"/>
      <point x="366" y="311"/>
      <point x="356" y="385" type="qcurve"/>
      <point x="340" y="378"/>
      <point x="326" y="366" type="qcurve"/>
      <point x="319" y="358"/>
      <point x="313" y="349" type="qcurve"/>
      <point x="353" y="304"/>
      <point x="366" y="245" type="qcurve"/>
      <point x="378" y="188"/>
      <point x="378" y="168" type="qcurve"/>
      <point x="378" y="160"/>
      <point x="370" y="124"/>
      <point x="364" y="118" type="qcurve"/>
      <point x="329" y="82" type="line"/>
      <point x="327" y="80"/>
      <point x="324" y="80" type="qcurve"/>
      <point x="323" y="80"/>
      <point x="323" y="80" type="qcurve"/>
      <point x="306" y="89"/>
      <point x="291" y="104" type="qcurve"/>
      <point x="256" y="139" type="line"/>
      <point x="208" y="187"/>
      <point x="208" y="264" type="qcurve"/>
      <point x="208" y="264"/>
      <point x="208" y="264" type="qcurve"/>
      <point x="210" y="305"/>
      <point x="233" y="344" type="qcurve"/>
      <point x="202" y="363"/>
      <point x="167" y="363" type="qcurve"/>
      <point x="165" y="363"/>
      <point x="156" y="362"/>
      <point x="154" y="362" type="qcurve"/>
      <point x="146" y="363"/>
      <point x="139" y="363" type="qcurve"/>
      <point x="114" y="363"/>
      <point x="92" y="351" type="qcurve"/>
      <point x="81" y="331"/>
      <point x="81" y="308" type="qcurve"/>
      <point x="81" y="306"/>
      <point x="82" y="298"/>
    </contour>
    <contour>
      <point x="11" y="296" type="qcurve"/>
      <point x="11" y="290"/>
      <point x="16" y="255"/>
      <point x="16" y="249" type="qcurve"/>
      <point x="16" y="244"/>
      <point x="15" y="241" type="qcurve"/>
      <point x="13" y="232"/>
      <point x="13" y="224" type="qcurve"/>
      <point x="13" y="203"/>
      <point x="30" y="186" type="qcurve"/>
      <point x="65" y="151" type="line"/>
      <point x="76" y="140"/>
      <point x="113" y="119" type="qcurve"/>
      <point x="114" y="119"/>
      <point x="115" y="121" type="qcurve"/>
      <point x="151" y="156" type="line"/>
      <point x="153" y="158"/>
      <point x="160" y="173"/>
      <point x="161" y="175" type="qcurve"/>
      <point x="171" y="243" type="line"/>
      <point x="138" y="276" type="line"/>
      <point x="105" y="243" type="line"/>
      <point x="98" y="196" type="line"/>
      <point x="98" y="194"/>
      <point x="96" y="194" type="qcurve"/>
      <point x="95" y="194"/>
      <point x="95" y="194" type="qcurve"/>
      <point x="89" y="198"/>
      <point x="84" y="200" type="qcurve"/>
      <point x="84" y="201"/>
      <point x="83" y="201" type="qcurve"/>
      <point x="79" y="212"/>
      <point x="79" y="224" type="qcurve"/>
      <point x="79" y="233"/>
      <point x="81" y="243" type="qcurve"/>
      <point x="81" y="245"/>
      <point x="81" y="249" type="qcurve"/>
      <point x="81" y="255"/>
      <point x="77" y="289"/>
      <point x="77" y="296" type="qcurve"/>
      <point x="76" y="302"/>
      <point x="76" y="308" type="qcurve"/>
      <point x="76" y="333"/>
      <point x="88" y="354" type="qcurve"/>
      <point x="88" y="355"/>
      <point x="89" y="355" type="qcurve"/>
      <point x="112" y="368"/>
      <point x="139" y="368" type="qcurve"/>
      <point x="147" y="368"/>
      <point x="154" y="367" type="qcurve"/>
      <point x="160" y="368"/>
      <point x="167" y="368" type="qcurve"/>
      <point x="204" y="368"/>
      <point x="238" y="347" type="qcurve"/>
      <point x="239" y="346"/>
      <point x="239" y="345" type="qcurve"/>
      <point x="239" y="344"/>
      <point x="239" y="344" type="qcurve"/>
      <point x="215" y="305"/>
      <point x="213" y="264" type="qcurve"/>
      <point x="213" y="189"/>
      <point x="260" y="142" type="qcurve"/>
      <point x="295" y="107" type="line"/>
      <point x="308" y="94"/>
      <point x="324" y="85" type="qcurve"/>
      <point x="325" y="85"/>
      <point x="325" y="86" type="qcurve"/>
      <point x="361" y="121" type="line"/>
      <point x="365" y="125"/>
      <point x="373" y="161"/>
      <point x="373" y="168" type="qcurve"/>
      <point x="373" y="188"/>
      <point x="361" y="243" type="qcurve"/>
      <point x="348" y="303"/>
      <point x="308" y="347" type="qcurve"/>
      <point x="307" y="348"/>
      <point x="307" y="349" type="qcurve"/>
      <point x="307" y="350"/>
      <point x="308" y="350" type="qcurve"/>
      <point x="314" y="360"/>
      <point x="322" y="369" type="qcurve"/>
      <point x="322" y="370" type="line"/>
      <point x="339" y="383"/>
      <point x="357" y="391" type="qcurve"/>
      <point x="357" y="391"/>
      <point x="358" y="391" type="qcurve"/>
      <point x="360" y="391"/>
      <point x="360" y="389" type="qcurve"/>
      <point x="370" y="316"/>
      <point x="412" y="171"/>
      <point x="439" y="144" type="qcurve"/>
      <point x="474" y="109" type="line"/>
      <point x="486" y="97"/>
      <point x="498" y="97" type="qcurve"/>
      <point x="501" y="97"/>
      <point x="504" y="100" type="qcurve"/>
      <point x="539" y="135" type="line"/>
      <point x="547" y="143"/>
      <point x="555" y="189"/>
      <point x="555" y="202" type="qcurve"/>
      <point x="555" y="240"/>
      <point x="507" y="367"/>
      <point x="473" y="401" type="qcurve"/>
      <point x="438" y="436" type="line"/>
      <point x="430" y="444"/>
      <point x="422" y="450" type="qcurve"/>
      <point x="421" y="450"/>
      <point x="421" y="452" type="qcurve"/>
      <point x="422" y="499"/>
      <point x="438" y="572"/>
      <point x="473" y="630"/>
      <point x="501" y="662"/>
      <point x="528" y="690" type="qcurve"/>
      <point x="572" y="734"/>
      <point x="594" y="763" type="qcurve"/>
      <point x="594" y="764"/>
      <point x="596" y="764" type="qcurve"/>
      <point x="596" y="764"/>
      <point x="597" y="764" type="qcurve"/>
      <point x="632" y="746" type="line"/>
      <point x="664" y="778" type="line"/>
      <point x="631" y="811" type="line"/>
      <point x="586" y="834" type="line"/>
      <point x="553" y="800" type="line"/>
      <point x="525" y="750"/>
      <point x="461" y="686" type="qcurve"/>
      <point x="434" y="659"/>
      <point x="407" y="628"/>
      <point x="372" y="572"/>
      <point x="356" y="502"/>
      <point x="355" y="457" type="qcurve"/>
      <point x="355" y="455"/>
      <point x="354" y="455" type="qcurve"/>
      <point x="341" y="449"/>
      <point x="332" y="441" type="qcurve"/>
      <point x="318" y="431"/>
      <point x="307" y="419" type="qcurve"/>
      <point x="273" y="386" type="line"/>
      <point x="272" y="385"/>
      <point x="270" y="385"/>
      <point x="267" y="389" type="qcurve"/>
      <point x="222" y="433"/>
      <point x="167" y="433" type="qcurve"/>
      <point x="165" y="433"/>
      <point x="156" y="433"/>
      <point x="154" y="433" type="qcurve"/>
      <point x="146" y="434"/>
      <point x="139" y="434" type="qcurve"/>
      <point x="99" y="434"/>
      <point x="72" y="406" type="qcurve"/>
      <point x="36" y="371" type="line"/>
      <point x="10" y="345"/>
      <point x="10" y="308" type="qcurve"/>
      <point x="10" y="306"/>
      <point x="11" y="298"/>
    </contour>
    <contour>
      <point x="429" y="368" type="qcurve"/>
      <point x="429" y="370"/>
      <point x="432" y="370" type="qcurve"/>
      <point x="433" y="370"/>
      <point x="434" y="369" type="qcurve"/>
      <point x="458" y="330"/>
      <point x="489" y="232"/>
      <point x="489" y="202" type="qcurve"/>
      <point x="489" y="192"/>
      <point x="487" y="177" type="qcurve"/>
      <point x="487" y="174"/>
      <point x="485" y="174" type="qcurve"/>
      <point x="483" y="174"/>
      <point x="482" y="176" type="qcurve"/>
      <point x="449" y="242"/>
      <point x="429" y="367" type="qcurve"/>
      <point x="429" y="367"/>
    </contour>
    <contour>
      <point x="436" y="355" type="qcurve"/>
      <point x="455" y="247"/>
      <point x="483" y="186" type="qcurve"/>
      <point x="484" y="196"/>
      <point x="484" y="202" type="qcurve"/>
      <point x="484" y="229"/>
      <point x="458" y="318"/>
    </contour>
    <contour>
      <point x="279" y="264" type="qcurve"/>
      <point x="279" y="269"/>
      <point x="280" y="278" type="qcurve"/>
      <point x="280" y="280"/>
      <point x="283" y="280" type="qcurve"/>
      <point x="284" y="280"/>
      <point x="285" y="279" type="qcurve"/>
      <point x="291" y="262"/>
      <point x="297" y="235" type="qcurve"/>
      <point x="306" y="193"/>
      <point x="307" y="173" type="qcurve"/>
      <point x="307" y="170"/>
      <point x="305" y="170" type="qcurve"/>
      <point x="303" y="170"/>
      <point x="302" y="171" type="qcurve"/>
      <point x="279" y="213"/>
    </contour>
    <contour>
      <point x="284" y="266" type="qcurve"/>
      <point x="284" y="264" type="line"/>
      <point x="284" y="221"/>
      <point x="301" y="185" type="qcurve"/>
      <point x="300" y="201"/>
      <point x="292" y="234" type="qcurve"/>
      <point x="288" y="254"/>
    </contour>
    <contour>
      <point x="438" y="750" type="qcurve"/>
      <point x="409" y="750"/>
      <point x="293" y="758"/>
      <point x="264" y="758" type="qcurve"/>
      <point x="247" y="758"/>
      <point x="223" y="758" type="qcurve"/>
      <point x="209" y="758"/>
      <point x="153" y="758"/>
      <point x="140" y="758" type="qcurve"/>
      <point x="45" y="758"/>
      <point x="1" y="746" type="qcurve"/>
      <point x="0" y="746"/>
      <point x="0" y="746" type="qcurve"/>
      <point x="-1" y="746"/>
      <point x="-2" y="747" type="qcurve"/>
      <point x="-37" y="782" type="line"/>
      <point x="-38" y="783"/>
      <point x="-38" y="785"/>
      <point x="-37" y="786" type="qcurve"/>
      <point x="-2" y="821" type="line"/>
      <point x="-1" y="822"/>
      <point x="-1" y="822" type="qcurve"/>
      <point x="44" y="834"/>
      <point x="140" y="834" type="qcurve"/>
      <point x="153" y="834"/>
      <point x="209" y="833"/>
      <point x="223" y="833" type="qcurve"/>
      <point x="247" y="833"/>
      <point x="264" y="834" type="qcurve"/>
      <point x="293" y="834"/>
      <point x="409" y="826"/>
      <point x="438" y="826" type="qcurve"/>
      <point x="439" y="826"/>
      <point x="516" y="828" type="qcurve"/>
      <point x="517" y="828"/>
      <point x="518" y="827" type="qcurve"/>
      <point x="553" y="792" type="line"/>
      <point x="554" y="791"/>
      <point x="554" y="789"/>
      <point x="553" y="788" type="qcurve"/>
      <point x="518" y="753" type="line"/>
      <point x="517" y="752"/>
      <point x="516" y="752" type="qcurve"/>
      <point x="439" y="750"/>
    </contour>
    <contour>
      <point x="140" y="763" type="qcurve"/>
      <point x="153" y="763"/>
      <point x="209" y="763"/>
      <point x="223" y="763" type="qcurve"/>
      <point x="247" y="763"/>
      <point x="264" y="763" type="qcurve"/>
      <point x="293" y="763"/>
      <point x="409" y="755"/>
      <point x="438" y="755" type="qcurve"/>
      <point x="441" y="755"/>
      <point x="515" y="757" type="qcurve"/>
      <point x="548" y="790" type="line"/>
      <point x="515" y="823" type="line"/>
      <point x="441" y="821"/>
      <point x="438" y="821" type="qcurve"/>
      <point x="409" y="821"/>
      <point x="293" y="829"/>
      <point x="264" y="829" type="qcurve"/>
      <point x="247" y="828"/>
      <point x="223" y="828" type="qcurve"/>
      <point x="209" y="828"/>
      <point x="153" y="829"/>
      <point x="140" y="829" type="qcurve"/>
      <point x="45" y="829"/>
      <point x="1" y="817" type="qcurve"/>
      <point x="-32" y="784" type="line"/>
      <point x="1" y="751" type="line"/>
      <point x="45" y="763"/>
    </contour>
  </outline>
</glyph>
<glyph name="uni09B6" format="2">
  <advance width="596"/>
  <unicode hex="09B6"/>
  <outline>
    <contour>
      <point x="304" y="744" type="qcurve"/>
      <point x="303" y="744"/>
      <point x="297" y="745"/>
      <point x="296" y="745" type="qcurve"/>
      <point x="272" y="745"/>
      <point x="252" y="732" type="qcurve"/>
      <point x="244" y="720"/>
      <point x="237" y="706" type="qcurve"/>
      <point x="270" y="700"/>
      <point x="293" y="677" type="qcurve"/>
      <point x="329" y="642" type="line"/>
      <point x="362" y="609"/>
      <point x="362" y="558" type="qcurve"/>
      <point x="362" y="545"/>
      <point x="347" y="486"/>
      <point x="337" y="476" type="qcurve"/>
      <point x="301" y="441" type="line"/>
      <point x="297" y="436"/>
      <point x="292" y="436" type="qcurve"/>
      <point x="254" y="441"/>
      <point x="228" y="467" type="qcurve"/>
      <point x="201" y="494" type="line"/>
      <point x="198" y="487"/>
      <point x="193" y="482" type="qcurve"/>
      <point x="158" y="447" type="line"/>
      <point x="148" y="436"/>
      <point x="128" y="436" type="qcurve"/>
      <point x="127" y="436"/>
      <point x="127" y="436" type="qcurve"/>
      <point x="97" y="450"/>
      <point x="83" y="465" type="qcurve"/>
      <point x="47" y="500" type="line"/>
      <point x="31" y="516"/>
      <point x="31" y="535" type="qcurve"/>
      <point x="31" y="541"/>
      <point x="32" y="547" type="qcurve"/>
      <point x="46" y="606"/>
      <point x="75" y="635" type="qcurve"/>
      <point x="111" y="671" type="line"/>
      <point x="115" y="675"/>
      <point x="120" y="679" type="qcurve"/>
      <point x="115" y="688"/>
      <point x="108" y="696" type="qcurve"/>
      <point x="59" y="736"/>
      <point x="0" y="746" type="qcurve"/>
      <point x="-1" y="746"/>
      <point x="-2" y="747" type="qcurve"/>
      <point x="-37" y="782" type="line"/>
      <point x="-38" y="783"/>
      <point x="-38" y="785"/>
      <point x="-37" y="786" type="qcurve"/>
      <point x="-2" y="821" type="line"/>
      <point x="-1" y="822"/>
      <point x="0" y="822" type="qcurve"/>
      <point x="76" y="809"/>
      <point x="131" y="754" type="qcurve"/>
      <point x="135" y="750"/>
      <point x="149" y="735"/>
      <point x="161" y="723"/>
      <point x="167" y="718" type="qcurve"/>
      <point x="178" y="740"/>
      <point x="194" y="756" type="qcurve"/>
      <point x="229" y="791" type="line"/>
      <point x="259" y="820"/>
      <point x="296" y="820" type="qcurve"/>
      <point x="300" y="820"/>
      <point x="304" y="820" type="qcurve"/>
      <point x="319" y="823"/>
      <point x="335" y="823" type="qcurve"/>
      <point x="404" y="823"/>
      <point x="451" y="775" type="qcurve"/>
      <point x="487" y="740" type="line"/>
      <point x="490" y="736"/>
      <point x="493" y="733" type="qcurve"/>
      <point x="512" y="763"/>
      <point x="513" y="764" type="qcurve"/>
      <point x="548" y="799" type="line"/>
      <point x="549" y="799"/>
      <point x="549" y="800" type="qcurve"/>
      <point x="597" y="824" type="line"/>
      <point x="597" y="824"/>
      <point x="598" y="824" type="qcurve"/>
      <point x="599" y="824"/>
      <point x="600" y="823" type="qcurve"/>
      <point x="635" y="788" type="line"/>
      <point x="636" y="787"/>
      <point x="636" y="785"/>
      <point x="635" y="784" type="qcurve"/>
      <point x="600" y="749" type="line"/>
      <point x="599" y="749"/>
      <point x="599" y="748" type="qcurve"/>
      <point x="570" y="734" type="line"/>
      <point x="543" y="691"/>
      <point x="528" y="667" type="qcurve"/>
      <point x="533" y="648"/>
      <point x="533" y="628" type="qcurve"/>
      <point x="533" y="612"/>
      <point x="530" y="596" type="qcurve"/>
      <point x="527" y="569"/>
      <point x="515" y="453"/>
      <point x="507" y="392"/>
      <point x="492" y="301"/>
      <point x="470" y="224"/>
      <point x="454" y="187" type="qcurve"/>
      <point x="451" y="178"/>
      <point x="441" y="140"/>
      <point x="432" y="113"/>
      <point x="426" y="101" type="qcurve"/>
      <point x="422" y="94"/>
      <point x="418" y="90" type="qcurve"/>
      <point x="383" y="55" type="line"/>
      <point x="380" y="52"/>
      <point x="377" y="52" type="qcurve"/>
      <point x="374" y="52"/>
      <point x="373" y="54" type="qcurve"/>
      <point x="337" y="89" type="line"/>
      <point x="332" y="94"/>
      <point x="332" y="114" type="qcurve"/>
      <point x="332" y="115" type="line"/>
      <point x="345" y="175"/>
      <point x="362" y="298" type="qcurve"/>
      <point x="373" y="376"/>
      <point x="387" y="461"/>
      <point x="418" y="591"/>
      <point x="438" y="643" type="qcurve"/>
      <point x="440" y="648"/>
      <point x="452" y="668" type="qcurve"/>
      <point x="445" y="694"/>
      <point x="429" y="717" type="qcurve"/>
      <point x="387" y="747"/>
      <point x="335" y="747" type="qcurve"/>
      <point x="320" y="747"/>
    </contour>
    <contour>
      <point x="304" y="815" type="qcurve"/>
      <point x="303" y="815"/>
      <point x="297" y="815"/>
      <point x="296" y="815" type="qcurve"/>
      <point x="261" y="815"/>
      <point x="233" y="787" type="qcurve"/>
      <point x="198" y="752" type="line"/>
      <point x="181" y="736"/>
      <point x="170" y="712" type="qcurve"/>
      <point x="169" y="711"/>
      <point x="167" y="711" type="qcurve"/>
      <point x="166" y="711"/>
      <point x="166" y="712" type="qcurve"/>
      <point x="164" y="713"/>
      <point x="127" y="750" type="qcurve"/>
      <point x="74" y="803"/>
      <point x="1" y="817" type="qcurve"/>
      <point x="-32" y="784" type="line"/>
      <point x="1" y="751" type="line"/>
      <point x="62" y="740"/>
      <point x="112" y="700" type="qcurve"/>
      <point x="120" y="690"/>
      <point x="126" y="680" type="qcurve"/>
      <point x="126" y="679"/>
      <point x="126" y="679" type="qcurve"/>
      <point x="126" y="677"/>
      <point x="125" y="677" type="qcurve"/>
      <point x="119" y="672"/>
      <point x="114" y="667" type="qcurve"/>
      <point x="79" y="632" type="line"/>
      <point x="50" y="603"/>
      <point x="37" y="545" type="qcurve"/>
      <point x="36" y="540"/>
      <point x="36" y="535" type="qcurve"/>
      <point x="36" y="518"/>
      <point x="51" y="503" type="qcurve"/>
      <point x="86" y="468" type="line"/>
      <point x="99" y="455"/>
      <point x="129" y="441" type="qcurve"/>
      <point x="146" y="441"/>
      <point x="155" y="450" type="qcurve"/>
      <point x="190" y="486" type="line"/>
      <point x="195" y="491"/>
      <point x="198" y="499" type="qcurve"/>
      <point x="199" y="501"/>
      <point x="200" y="501" type="qcurve"/>
      <point x="201" y="501"/>
      <point x="202" y="500" type="qcurve"/>
      <point x="232" y="470" type="line"/>
      <point x="257" y="445"/>
      <point x="292" y="441" type="qcurve"/>
      <point x="295" y="441"/>
      <point x="298" y="444" type="qcurve"/>
      <point x="333" y="479" type="line"/>
      <point x="342" y="489"/>
      <point x="357" y="547"/>
      <point x="357" y="558" type="qcurve"/>
      <point x="357" y="607"/>
      <point x="325" y="638" type="qcurve"/>
      <point x="290" y="674" type="line"/>
      <point x="266" y="697"/>
      <point x="233" y="702" type="qcurve"/>
      <point x="231" y="702"/>
      <point x="231" y="704" type="qcurve"/>
      <point x="231" y="705"/>
      <point x="231" y="705" type="qcurve"/>
      <point x="239" y="721"/>
      <point x="248" y="735" type="qcurve"/>
      <point x="248" y="735"/>
      <point x="249" y="736" type="qcurve"/>
      <point x="270" y="750"/>
      <point x="296" y="750" type="qcurve"/>
      <point x="300" y="750"/>
      <point x="304" y="749" type="qcurve"/>
      <point x="319" y="752"/>
      <point x="335" y="752" type="qcurve"/>
      <point x="389" y="752"/>
      <point x="432" y="721" type="qcurve"/>
      <point x="432" y="721"/>
      <point x="432" y="720" type="qcurve"/>
      <point x="450" y="696"/>
      <point x="457" y="668" type="qcurve"/>
      <point x="457" y="667"/>
      <point x="457" y="667" type="qcurve"/>
      <point x="457" y="666"/>
      <point x="457" y="666" type="qcurve"/>
      <point x="445" y="646"/>
      <point x="443" y="641" type="qcurve"/>
      <point x="423" y="589"/>
      <point x="392" y="460"/>
      <point x="378" y="375"/>
      <point x="367" y="297" type="qcurve"/>
      <point x="350" y="174"/>
      <point x="337" y="114" type="qcurve"/>
      <point x="337" y="96"/>
      <point x="341" y="93" type="qcurve"/>
      <point x="376" y="57" type="line"/>
      <point x="376" y="57"/>
      <point x="377" y="57" type="qcurve"/>
      <point x="378" y="57"/>
      <point x="380" y="59" type="qcurve"/>
      <point x="415" y="94" type="line"/>
      <point x="418" y="97"/>
      <point x="421" y="103" type="qcurve"/>
      <point x="427" y="115"/>
      <point x="436" y="142"/>
      <point x="446" y="180"/>
      <point x="449" y="189" type="qcurve"/>
      <point x="465" y="226"/>
      <point x="487" y="302"/>
      <point x="502" y="393"/>
      <point x="510" y="454"/>
      <point x="522" y="570"/>
      <point x="525" y="596" type="qcurve"/>
      <point x="528" y="612"/>
      <point x="528" y="628" type="qcurve"/>
      <point x="528" y="648"/>
      <point x="523" y="667" type="qcurve"/>
      <point x="523" y="668"/>
      <point x="523" y="668" type="qcurve"/>
      <point x="538" y="693"/>
      <point x="566" y="737" type="qcurve"/>
      <point x="567" y="738"/>
      <point x="567" y="738" type="qcurve"/>
      <point x="597" y="753" type="line"/>
      <point x="630" y="786" type="line"/>
      <point x="598" y="818" type="line"/>
      <point x="551" y="795" type="line"/>
      <point x="517" y="760" type="line"/>
      <point x="507" y="746"/>
      <point x="495" y="727" type="qcurve"/>
      <point x="495" y="726"/>
      <point x="493" y="726" type="qcurve"/>
      <point x="492" y="726"/>
      <point x="491" y="727" type="qcurve"/>
      <point x="487" y="732"/>
      <point x="483" y="736" type="qcurve"/>
      <point x="448" y="771" type="line"/>
      <point x="402" y="818"/>
      <point x="335" y="818" type="qcurve"/>
      <point x="320" y="818"/>
    </contour>
    <contour>
      <point x="291" y="558" type="qcurve"/>
      <point x="291" y="542"/>
      <point x="282" y="511" type="qcurve"/>
      <point x="282" y="509"/>
      <point x="280" y="509" type="qcurve"/>
      <point x="280" y="509"/>
      <point x="279" y="509" type="qcurve"/>
      <point x="262" y="513"/>
      <point x="248" y="522" type="qcurve"/>
      <point x="248" y="522"/>
      <point x="247" y="523" type="qcurve"/>
      <point x="226" y="555"/>
      <point x="221" y="600" type="qcurve"/>
      <point x="220" y="605"/>
      <point x="216" y="628"/>
      <point x="215" y="634" type="qcurve"/>
      <point x="215" y="635"/>
      <point x="215" y="635" type="qcurve"/>
      <point x="215" y="637"/>
      <point x="218" y="637" type="qcurve"/>
      <point x="248" y="637"/>
      <point x="273" y="622" type="qcurve"/>
      <point x="274" y="622"/>
      <point x="274" y="621" type="qcurve"/>
      <point x="291" y="593"/>
    </contour>
    <contour>
      <point x="270" y="618" type="qcurve"/>
      <point x="248" y="632"/>
      <point x="220" y="632" type="qcurve"/>
      <point x="221" y="627"/>
      <point x="225" y="605"/>
      <point x="226" y="600" type="qcurve"/>
      <point x="231" y="557"/>
      <point x="251" y="526" type="qcurve"/>
      <point x="264" y="518"/>
      <point x="278" y="515" type="qcurve"/>
      <point x="280" y="520"/>
      <point x="282" y="532"/>
      <point x="284" y="543"/>
      <point x="285" y="552"/>
      <point x="286" y="558"/>
      <point x="286" y="558" type="qcurve"/>
      <point x="286" y="591"/>
    </contour>
    <contour>
      <point x="149" y="601" type="qcurve"/>
      <point x="149" y="581"/>
      <point x="143" y="561" type="qcurve"/>
      <point x="141" y="553"/>
      <point x="137" y="516"/>
      <point x="135" y="509" type="qcurve"/>
      <point x="135" y="507"/>
      <point x="128" y="507" type="qcurve"/>
      <point x="127" y="507"/>
      <point x="127" y="507" type="qcurve"/>
      <point x="115" y="513"/>
      <point x="106" y="518" type="qcurve"/>
      <point x="105" y="518"/>
      <point x="105" y="519" type="qcurve"/>
      <point x="102" y="527"/>
      <point x="102" y="535" type="qcurve"/>
      <point x="102" y="541"/>
      <point x="103" y="547" type="qcurve"/>
      <point x="113" y="589"/>
      <point x="130" y="615" type="qcurve"/>
      <point x="130" y="615"/>
      <point x="131" y="616" type="qcurve"/>
      <point x="137" y="620"/>
      <point x="144" y="623" type="qcurve"/>
      <point x="144" y="623"/>
      <point x="145" y="623" type="qcurve"/>
      <point x="147" y="623"/>
      <point x="147" y="621" type="qcurve"/>
      <point x="149" y="611"/>
    </contour>
    <contour>
      <point x="144" y="601" type="qcurve"/>
      <point x="144" y="609"/>
      <point x="143" y="617" type="qcurve"/>
      <point x="138" y="615"/>
      <point x="134" y="612" type="qcurve"/>
      <point x="117" y="586"/>
      <point x="108" y="545" type="qcurve"/>
      <point x="107" y="540"/>
      <point x="107" y="535" type="qcurve"/>
      <point x="107" y="528"/>
      <point x="109" y="522" type="qcurve"/>
      <point x="117" y="517"/>
      <point x="129" y="512" type="qcurve"/>
      <point x="130" y="512"/>
      <point x="131" y="512" type="qcurve"/>
      <point x="132" y="518"/>
      <point x="136" y="554"/>
      <point x="138" y="563" type="qcurve"/>
      <point x="144" y="582"/>
    </contour>
  </outline>
</glyph>
<glyph name="uni09C1" format="2">
  <unicode hex="09C1"/>
  <outline>
    <contour>
      <point x="-567" y="-6" type="qcurve"/>
      <point x="-567" y="17"/>
      <point x="-558" y="25" type="qcurve"/>
      <point x="-523" y="60" type="line"/>
      <point x="-516" y="68"/>
      <point x="-499" y="68" type="qcurve"/>
      <point x="-443" y="68"/>
      <point x="-346" y="29"/>
      <point x="-286" y="-7" type="qcurve"/>
      <point x="-276" y="0"/>
      <point x="-267" y="7" type="qcurve"/>
      <point x="-254" y="17"/>
      <point x="-200" y="52"/>
      <point x="-189" y="61" type="qcurve"/>
      <point x="-181" y="72"/>
      <point x="-177" y="85" type="qcurve"/>
      <point x="-177" y="85"/>
      <point x="-176" y="86" type="qcurve"/>
      <point x="-141" y="121" type="line"/>
      <point x="-140" y="122"/>
      <point x="-138" y="122"/>
      <point x="-137" y="121" type="qcurve"/>
      <point x="-102" y="86" type="line"/>
      <point x="-101" y="85"/>
      <point x="-101" y="84" type="qcurve"/>
      <point x="-101" y="84"/>
      <point x="-101" y="83" type="qcurve"/>
      <point x="-109" y="60"/>
      <point x="-130" y="40" type="qcurve"/>
      <point x="-165" y="4" type="line"/>
      <point x="-182" y="-12"/>
      <point x="-228" y="-42" type="qcurve"/>
      <point x="-191" y="-64"/>
      <point x="-162" y="-76" type="qcurve"/>
      <point x="-121" y="-82" type="line"/>
      <point x="-120" y="-82"/>
      <point x="-119" y="-83" type="qcurve"/>
      <point x="-84" y="-118" type="line"/>
      <point x="-83" y="-119"/>
      <point x="-83" y="-121"/>
      <point x="-84" y="-122" type="qcurve"/>
      <point x="-119" y="-157" type="line"/>
      <point x="-120" y="-158"/>
      <point x="-121" y="-158" type="qcurve"/>
      <point x="-121" y="-158"/>
      <point x="-163" y="-152" type="qcurve"/>
      <point x="-164" y="-152"/>
      <point x="-164" y="-152" type="qcurve"/>
      <point x="-198" y="-137"/>
      <point x="-286" y="-83" type="qcurve"/>
      <point x="-349" y="-122"/>
      <point x="-439" y="-122" type="qcurve"/>
      <point x="-481" y="-122"/>
      <point x="-509" y="-94" type="qcurve"/>
      <point x="-545" y="-58" type="line"/>
      <point x="-567" y="-36"/>
    </contour>
    <contour>
      <point x="-439" y="-117" type="qcurve"/>
      <point x="-350" y="-117"/>
      <point x="-288" y="-78" type="qcurve"/>
      <point x="-287" y="-78"/>
      <point x="-286" y="-78"/>
      <point x="-285" y="-78" type="qcurve"/>
      <point x="-196" y="-132"/>
      <point x="-162" y="-147" type="qcurve"/>
      <point x="-122" y="-153" type="line"/>
      <point x="-89" y="-120" type="line"/>
      <point x="-122" y="-87" type="line"/>
      <point x="-163" y="-81" type="line"/>
      <point x="-164" y="-81"/>
      <point x="-164" y="-81" type="qcurve"/>
      <point x="-194" y="-68"/>
      <point x="-234" y="-45" type="qcurve"/>
      <point x="-235" y="-44"/>
      <point x="-235" y="-41"/>
      <point x="-234" y="-40" type="qcurve"/>
      <point x="-185" y="-8"/>
      <point x="-169" y="8" type="qcurve"/>
      <point x="-133" y="43" type="line"/>
      <point x="-114" y="62"/>
      <point x="-107" y="83" type="qcurve"/>
      <point x="-139" y="116" type="line"/>
      <point x="-172" y="83" type="line"/>
      <point x="-177" y="70"/>
      <point x="-185" y="58" type="qcurve"/>
      <point x="-185" y="58"/>
      <point x="-186" y="57" type="qcurve"/>
      <point x="-197" y="48"/>
      <point x="-251" y="13"/>
      <point x="-263" y="3" type="qcurve"/>
      <point x="-274" y="-5"/>
      <point x="-285" y="-12" type="qcurve"/>
      <point x="-286" y="-12"/>
      <point x="-287" y="-12"/>
      <point x="-288" y="-12" type="qcurve"/>
      <point x="-348" y="24"/>
      <point x="-444" y="63"/>
      <point x="-499" y="63" type="qcurve"/>
      <point x="-513" y="63"/>
      <point x="-520" y="57" type="qcurve"/>
      <point x="-555" y="21" type="line"/>
      <point x="-562" y="14"/>
      <point x="-562" y="-6" type="qcurve"/>
      <point x="-562" y="-34"/>
      <point x="-541" y="-55" type="qcurve"/>
      <point x="-506" y="-90" type="line"/>
      <point x="-479" y="-117"/>
    </contour>
    <contour>
      <point x="-439" y="-51" type="qcurve"/>
      <point x="-465" y="-51"/>
      <point x="-488" y="-39" type="qcurve"/>
      <point x="-488" y="-39"/>
      <point x="-489" y="-38" type="qcurve"/>
      <point x="-496" y="-23"/>
      <point x="-496" y="-6" type="qcurve"/>
      <point x="-496" y="-5" type="line"/>
      <point x="-496" y="-3"/>
      <point x="-494" y="-3" type="qcurve"/>
      <point x="-429" y="-4"/>
      <point x="-359" y="-38" type="qcurve"/>
      <point x="-357" y="-38"/>
      <point x="-357" y="-40" type="qcurve"/>
      <point x="-357" y="-42"/>
      <point x="-359" y="-42" type="qcurve"/>
      <point x="-396" y="-51"/>
    </contour>
    <contour>
      <point x="-439" y="-46" type="qcurve"/>
      <point x="-401" y="-46"/>
      <point x="-368" y="-39" type="qcurve"/>
      <point x="-432" y="-10"/>
      <point x="-491" y="-8" type="qcurve"/>
      <point x="-491" y="-22"/>
      <point x="-485" y="-35" type="qcurve"/>
      <point x="-463" y="-46"/>
    </contour>
  </outline>
</glyph>
<glyph name="uni09C7" format="2">
  <advance width="418"/>
  <unicode hex="09C7"/>
  <outline>
    <contour>
      <point x="258" y="784"/>
      <point x="258" y="786"/>
      <point x="259" y="787" type="qcurve"/>
      <point x="294" y="822" type="line"/>
      <point x="295" y="823"/>
      <point x="296" y="823" type="qcurve"/>
      <point x="420" y="819" type="line"/>
      <point x="421" y="819"/>
      <point x="422" y="818" type="qcurve"/>
      <point x="457" y="783" type="line"/>
      <point x="458" y="782"/>
      <point x="458" y="780"/>
      <point x="457" y="779" type="qcurve"/>
      <point x="422" y="744" type="line"/>
      <point x="421" y="743"/>
      <point x="420" y="743" type="qcurve"/>
      <point x="296" y="747" type="line"/>
      <point x="295" y="747"/>
      <point x="294" y="748" type="qcurve"/>
      <point x="259" y="783" type="line"/>
    </contour>
    <contour>
      <point x="264" y="785" type="line"/>
      <point x="297" y="752" type="line"/>
      <point x="419" y="748" type="line"/>
      <point x="452" y="781" type="line"/>
      <point x="419" y="814" type="line"/>
      <point x="297" y="818" type="line"/>
    </contour>
    <contour>
      <point x="194" y="105" type="qcurve"/>
      <point x="194" y="97"/>
      <point x="189" y="93" type="qcurve"/>
      <point x="154" y="58" type="line"/>
      <point x="148" y="51"/>
      <point x="130" y="51" type="qcurve"/>
      <point x="129" y="51"/>
      <point x="128" y="51"/>
      <point x="128" y="51" type="qcurve"/>
      <point x="91" y="51"/>
      <point x="68" y="74" type="qcurve"/>
      <point x="33" y="109" type="line"/>
      <point x="15" y="127"/>
      <point x="-4" y="194"/>
      <point x="-7" y="241"/>
      <point x="-9" y="283" type="qcurve"/>
      <point x="-9" y="288"/>
      <point x="-11" y="329"/>
      <point x="-11" y="341" type="qcurve"/>
      <point x="-11" y="467"/>
      <point x="78" y="626" type="qcurve"/>
      <point x="79" y="626"/>
      <point x="79" y="626" type="qcurve"/>
      <point x="112" y="678"/>
      <point x="172" y="747" type="qcurve"/>
      <point x="0" y="747" type="line"/>
      <point x="-1" y="747"/>
      <point x="-2" y="748" type="qcurve"/>
      <point x="-37" y="783" type="line"/>
      <point x="-38" y="784"/>
      <point x="-38" y="786"/>
      <point x="-37" y="787" type="qcurve"/>
      <point x="-2" y="822" type="line"/>
      <point x="-1" y="823"/>
      <point x="0" y="823" type="qcurve"/>
      <point x="244" y="823" type="line"/>
      <point x="245" y="823"/>
      <point x="246" y="822" type="qcurve"/>
      <point x="281" y="787" type="line"/>
      <point x="282" y="786"/>
      <point x="282" y="784"/>
      <point x="281" y="783" type="qcurve"/>
      <point x="279" y="781"/>
      <point x="250" y="748"/>
      <point x="243" y="740"/>
      <point x="217" y="711"/>
      <point x="207" y="699"/>
      <point x="187" y="673"/>
      <point x="175" y="656"/>
      <point x="160" y="634"/>
      <point x="154" y="624" type="qcurve"/>
      <point x="65" y="475"/>
      <point x="65" y="341" type="qcurve"/>
      <point x="65" y="329"/>
      <point x="67" y="288"/>
      <point x="67" y="283" type="qcurve"/>
      <point x="69" y="210"/>
      <point x="77" y="177" type="qcurve"/>
      <point x="90" y="190" type="line"/>
      <point x="91" y="191"/>
      <point x="92" y="191" type="qcurve"/>
      <point x="92" y="191"/>
      <point x="93" y="191" type="qcurve"/>
      <point x="141" y="179" type="line"/>
      <point x="141" y="179"/>
      <point x="142" y="178" type="qcurve"/>
      <point x="177" y="143" type="line"/>
      <point x="177" y="142"/>
      <point x="178" y="142" type="qcurve"/>
      <point x="194" y="107"/>
    </contour>
    <contour>
      <point x="128" y="56" type="qcurve"/>
      <point x="145" y="56"/>
      <point x="150" y="61" type="qcurve"/>
      <point x="186" y="96" type="line"/>
      <point x="189" y="99"/>
      <point x="189" y="104" type="qcurve"/>
      <point x="176" y="134"/>
      <point x="173" y="140" type="qcurve"/>
      <point x="139" y="174" type="line"/>
      <point x="93" y="186" type="line"/>
      <point x="77" y="170" type="line"/>
      <point x="76" y="169"/>
      <point x="75" y="169" type="qcurve"/>
      <point x="73" y="169"/>
      <point x="73" y="171" type="qcurve"/>
      <point x="69" y="186"/>
      <point x="65" y="224"/>
      <point x="63" y="249"/>
      <point x="62" y="297"/>
      <point x="61" y="306" type="qcurve"/>
      <point x="60" y="328"/>
      <point x="60" y="341" type="qcurve"/>
      <point x="60" y="476"/>
      <point x="149" y="626" type="qcurve"/>
      <point x="155" y="635"/>
      <point x="166" y="653"/>
      <point x="181" y="674"/>
      <point x="192" y="688"/>
      <point x="211" y="711"/>
      <point x="220" y="722"/>
      <point x="242" y="747"/>
      <point x="249" y="754"/>
      <point x="274" y="782"/>
      <point x="276" y="785" type="qcurve"/>
      <point x="243" y="818" type="line"/>
      <point x="1" y="818" type="line"/>
      <point x="-32" y="785" type="line"/>
      <point x="1" y="752" type="line"/>
      <point x="177" y="752" type="line"/>
      <point x="180" y="752"/>
      <point x="180" y="750" type="qcurve"/>
      <point x="180" y="749"/>
      <point x="179" y="748" type="qcurve"/>
      <point x="117" y="677"/>
      <point x="83" y="624" type="qcurve"/>
      <point x="60" y="584"/>
      <point x="22" y="460"/>
      <point x="-5" y="343"/>
      <point x="-6" y="341" type="qcurve"/>
      <point x="-6" y="329"/>
      <point x="-4" y="288"/>
      <point x="-4" y="283" type="qcurve"/>
      <point x="-2" y="242"/>
      <point x="1" y="194"/>
      <point x="20" y="130"/>
      <point x="36" y="113" type="qcurve"/>
      <point x="72" y="78" type="line"/>
      <point x="93" y="56"/>
    </contour>
  </outline>
</glyph>
<glyph name="uni09C8" format="2">
  <advance width="376"/>
  <unicode hex="09C8"/>
  <outline>
    <contour>
      <point x="329" y="871" type="qcurve"/>
      <point x="329" y="859"/>
      <point x="327" y="821"/>
      <point x="327" y="812" type="qcurve"/>
      <point x="344" y="812"/>
      <point x="377" y="819" type="qcurve"/>
      <point x="378" y="819"/>
      <point x="379" y="818" type="qcurve"/>
      <point x="414" y="783" type="line"/>
      <point x="415" y="782"/>
      <point x="415" y="780"/>
      <point x="414" y="779" type="qcurve"/>
      <point x="379" y="744" type="line"/>
      <point x="378" y="743"/>
      <point x="377" y="743" type="qcurve"/>
      <point x="341" y="736"/>
      <point x="323" y="736" type="qcurve"/>
      <point x="303" y="736"/>
      <point x="294" y="744" type="qcurve"/>
      <point x="259" y="780" type="line"/>
      <point x="251" y="788"/>
      <point x="251" y="809" type="qcurve"/>
      <point x="251" y="819"/>
      <point x="253" y="855"/>
      <point x="253" y="863" type="qcurve"/>
      <point x="232" y="875"/>
      <point x="208" y="888" type="qcurve"/>
      <point x="188" y="888"/>
      <point x="166" y="886"/>
      <point x="132" y="871"/>
      <point x="115" y="856" type="qcurve"/>
      <point x="102" y="844"/>
      <point x="81" y="844" type="qcurve"/>
      <point x="45" y="844"/>
      <point x="20" y="870" type="qcurve"/>
      <point x="-16" y="905" type="line"/>
      <point x="-33" y="922"/>
      <point x="-33" y="943" type="qcurve"/>
      <point x="-33" y="946"/>
      <point x="-32" y="947" type="qcurve"/>
      <point x="3" y="982" type="line"/>
      <point x="4" y="983"/>
      <point x="6" y="983"/>
      <point x="7" y="982" type="qcurve"/>
      <point x="42" y="947" type="line"/>
      <point x="43" y="946"/>
      <point x="43" y="943" type="qcurve"/>
      <point x="43" y="936"/>
      <point x="46" y="928" type="qcurve"/>
      <point x="63" y="920"/>
      <point x="81" y="920" type="qcurve"/>
      <point x="100" y="920"/>
      <point x="111" y="930" type="qcurve"/>
      <point x="129" y="946"/>
      <point x="165" y="961"/>
      <point x="188" y="964"/>
      <point x="209" y="964" type="qcurve"/>
      <point x="210" y="964"/>
      <point x="244" y="945"/>
      <point x="285" y="920"/>
      <point x="291" y="914" type="qcurve"/>
      <point x="326" y="879" type="line"/>
      <point x="329" y="876"/>
      <point x="329" y="873" type="qcurve"/>
      <point x="329" y="872"/>
      <point x="329" y="871"/>
    </contour>
    <contour>
      <point x="324" y="871" type="qcurve"/>
      <point x="324" y="871"/>
      <point x="324" y="872"/>
      <point x="324" y="873" type="qcurve"/>
      <point x="324" y="873"/>
      <point x="324" y="873" type="qcurve"/>
      <point x="324" y="874"/>
      <point x="323" y="875" type="qcurve"/>
      <point x="287" y="910" type="line"/>
      <point x="276" y="921"/>
      <point x="208" y="959" type="qcurve"/>
      <point x="188" y="959"/>
      <point x="166" y="957"/>
      <point x="132" y="942"/>
      <point x="115" y="926" type="qcurve"/>
      <point x="102" y="915"/>
      <point x="81" y="915" type="qcurve"/>
      <point x="61" y="915"/>
      <point x="42" y="924" type="qcurve"/>
      <point x="42" y="925"/>
      <point x="41" y="926" type="qcurve"/>
      <point x="38" y="934"/>
      <point x="38" y="943" type="qcurve"/>
      <point x="38" y="943"/>
      <point x="38" y="944" type="qcurve"/>
      <point x="5" y="977" type="line"/>
      <point x="-28" y="944" type="line"/>
      <point x="-28" y="943"/>
      <point x="-28" y="943" type="qcurve"/>
      <point x="-28" y="924"/>
      <point x="-12" y="908" type="qcurve"/>
      <point x="23" y="873" type="line"/>
      <point x="47" y="849"/>
      <point x="81" y="849" type="qcurve"/>
      <point x="100" y="849"/>
      <point x="111" y="860" type="qcurve"/>
      <point x="129" y="875"/>
      <point x="165" y="891"/>
      <point x="188" y="893"/>
      <point x="209" y="893" type="qcurve"/>
      <point x="212" y="893"/>
      <point x="257" y="866" type="qcurve"/>
      <point x="258" y="865"/>
      <point x="258" y="864" type="qcurve"/>
      <point x="258" y="855"/>
      <point x="256" y="819"/>
      <point x="256" y="809" type="qcurve"/>
      <point x="256" y="790"/>
      <point x="263" y="783" type="qcurve"/>
      <point x="298" y="748" type="line"/>
      <point x="305" y="741"/>
      <point x="341" y="741"/>
      <point x="376" y="748" type="qcurve"/>
      <point x="409" y="781" type="line"/>
      <point x="376" y="814" type="line"/>
      <point x="342" y="807"/>
      <point x="324" y="807" type="qcurve"/>
      <point x="322" y="807"/>
      <point x="322" y="809" type="qcurve"/>
      <point x="322" y="820"/>
      <point x="324" y="860"/>
    </contour>
    <contour>
      <point x="194" y="105" type="qcurve"/>
      <point x="194" y="97"/>
      <point x="189" y="93" type="qcurve"/>
      <point x="154" y="58" type="line"/>
      <point x="148" y="51"/>
      <point x="130" y="51" type="qcurve"/>
      <point x="129" y="51"/>
      <point x="128" y="51"/>
      <point x="128" y="51" type="qcurve"/>
      <point x="91" y="51"/>
      <point x="68" y="74" type="qcurve"/>
      <point x="33" y="109" type="line"/>
      <point x="15" y="127"/>
      <point x="-4" y="194"/>
      <point x="-7" y="241"/>
      <point x="-9" y="283" type="qcurve"/>
      <point x="-9" y="288"/>
      <point x="-11" y="329"/>
      <point x="-11" y="341" type="qcurve"/>
      <point x="-11" y="467"/>
      <point x="78" y="626" type="qcurve"/>
      <point x="105" y="674"/>
      <point x="171" y="747" type="qcurve"/>
      <point x="0" y="747" type="line"/>
      <point x="-1" y="747"/>
      <point x="-2" y="748" type="qcurve"/>
      <point x="-37" y="783" type="line"/>
      <point x="-38" y="784"/>
      <point x="-38" y="786"/>
      <point x="-37" y="787" type="qcurve"/>
      <point x="-2" y="822" type="line"/>
      <point x="-1" y="823"/>
      <point x="0" y="823" type="qcurve"/>
      <point x="244" y="823" type="line"/>
      <point x="245" y="823"/>
      <point x="246" y="822" type="qcurve"/>
      <point x="281" y="787" type="line"/>
      <point x="282" y="786"/>
      <point x="282" y="784"/>
      <point x="281" y="783" type="qcurve"/>
      <point x="277" y="779"/>
      <point x="233" y="730"/>
      <point x="217" y="711"/>
      <point x="184" y="672"/>
      <point x="163" y="640"/>
      <point x="154" y="624" type="qcurve"/>
      <point x="65" y="466"/>
      <point x="65" y="341" type="qcurve"/>
      <point x="65" y="329"/>
      <point x="67" y="288"/>
      <point x="67" y="283" type="qcurve"/>
      <point x="69" y="210"/>
      <point x="77" y="177" type="qcurve"/>
      <point x="90" y="190" type="line"/>
      <point x="91" y="191"/>
      <point x="92" y="191" type="qcurve"/>
      <point x="92" y="191"/>
      <point x="93" y="191" type="qcurve"/>
      <point x="141" y="179" type="line"/>
      <point x="141" y="179"/>
      <point x="142" y="178" type="qcurve"/>
      <point x="177" y="143" type="line"/>
      <point x="177" y="142"/>
      <point x="178" y="142" type="qcurve"/>
      <point x="194" y="107"/>
    </contour>
    <contour>
      <point x="177" y="752" type="line"/>
      <point x="179" y="752"/>
      <point x="179" y="750" type="qcurve"/>
      <point x="179" y="749"/>
      <point x="179" y="748" type="qcurve"/>
      <point x="110" y="671"/>
      <point x="83" y="624" type="qcurve"/>
      <point x="-6" y="466"/>
      <point x="-6" y="341" type="qcurve"/>
      <point x="-6" y="329"/>
      <point x="-4" y="288"/>
      <point x="-4" y="283" type="qcurve"/>
      <point x="-2" y="242"/>
      <point x="1" y="194"/>
      <point x="20" y="130"/>
      <point x="36" y="113" type="qcurve"/>
      <point x="72" y="78" type="line"/>
      <point x="93" y="56"/>
      <point x="128" y="56" type="qcurve"/>
      <point x="145" y="56"/>
      <point x="150" y="61" type="qcurve"/>
      <point x="186" y="96" type="line"/>
      <point x="189" y="99"/>
      <point x="189" y="104" type="qcurve"/>
      <point x="176" y="134"/>
      <point x="173" y="140" type="qcurve"/>
      <point x="139" y="174" type="line"/>
      <point x="93" y="186" type="line"/>
      <point x="77" y="170" type="line"/>
      <point x="76" y="169"/>
      <point x="75" y="169" type="qcurve"/>
      <point x="73" y="169"/>
      <point x="73" y="171" type="qcurve"/>
      <point x="69" y="186"/>
      <point x="65" y="224"/>
      <point x="63" y="249"/>
      <point x="62" y="297"/>
      <point x="61" y="306" type="qcurve"/>
      <point x="60" y="328"/>
      <point x="60" y="341" type="qcurve"/>
      <point x="60" y="467"/>
      <point x="149" y="626" type="qcurve"/>
      <point x="158" y="643"/>
      <point x="179" y="674"/>
      <point x="213" y="714"/>
      <point x="227" y="730"/>
      <point x="274" y="782"/>
      <point x="276" y="785" type="qcurve"/>
      <point x="243" y="818" type="line"/>
      <point x="1" y="818" type="line"/>
      <point x="-32" y="785" type="line"/>
      <point x="1" y="752" type="line"/>
    </contour>
  </outline>
</glyph>
